<?xml version="1.0" encoding="utf-8" standalone="no"?>
<!DOCTYPE svg PUBLIC "-//W3C//DTD SVG 1.1//EN"
  "http://www.w3.org/Graphics/SVG/1.1/DTD/svg11.dtd">
<!-- Created with matplotlib (https://matplotlib.org/) -->
<svg height="396pt" version="1.1" viewBox="0 0 576 396" width="576pt" xmlns="http://www.w3.org/2000/svg" xmlns:xlink="http://www.w3.org/1999/xlink">
 <metadata>
  <rdf:RDF xmlns:cc="http://creativecommons.org/ns#" xmlns:dc="http://purl.org/dc/elements/1.1/" xmlns:rdf="http://www.w3.org/1999/02/22-rdf-syntax-ns#">
   <cc:Work>
    <dc:type rdf:resource="http://purl.org/dc/dcmitype/StillImage"/>
    <dc:date>2021-01-21T21:44:10.228226</dc:date>
    <dc:format>image/svg+xml</dc:format>
    <dc:creator>
     <cc:Agent>
      <dc:title>Matplotlib v3.3.3, https://matplotlib.org/</dc:title>
     </cc:Agent>
    </dc:creator>
   </cc:Work>
  </rdf:RDF>
 </metadata>
 <defs>
  <style type="text/css">*{stroke-linecap:butt;stroke-linejoin:round;}</style>
 </defs>
 <g id="figure_1">
  <g id="patch_1">
   <path d="M 0 396 
L 576 396 
L 576 0 
L 0 0 
z
" style="fill:#ffffff;"/>
  </g>
  <g id="axes_1">
   <g id="patch_2">
    <path d="M 72 346.5 
L 518.4 346.5 
L 518.4 47.52 
L 72 47.52 
z
" style="fill:#ffffff;"/>
   </g>
   <g id="matplotlib.axis_1">
    <g id="xtick_1">
     <g id="line2d_1">
      <path clip-path="url(#pe16b88fdbb)" d="M 108 346.5 
L 108 47.52 
" style="fill:none;stroke:#cccccc;stroke-linecap:round;"/>
     </g>
     <g id="line2d_2"/>
     <g id="text_1">
      <!-- 3 -->
      <g style="fill:#262626;" transform="translate(105.219531 360.657812)scale(0.1 -0.1)">
       <defs>
        <path d="M 4.203125 18.890625 
L 12.984375 20.0625 
Q 14.5 12.59375 18.140625 9.296875 
Q 21.78125 6 27 6 
Q 33.203125 6 37.46875 10.296875 
Q 41.75 14.59375 41.75 20.953125 
Q 41.75 27 37.796875 30.921875 
Q 33.84375 34.859375 27.734375 34.859375 
Q 25.25 34.859375 21.53125 33.890625 
L 22.515625 41.609375 
Q 23.390625 41.5 23.921875 41.5 
Q 29.546875 41.5 34.03125 44.421875 
Q 38.53125 47.359375 38.53125 53.46875 
Q 38.53125 58.296875 35.25 61.46875 
Q 31.984375 64.65625 26.8125 64.65625 
Q 21.6875 64.65625 18.265625 61.421875 
Q 14.84375 58.203125 13.875 51.765625 
L 5.078125 53.328125 
Q 6.6875 62.15625 12.390625 67.015625 
Q 18.109375 71.875 26.609375 71.875 
Q 32.46875 71.875 37.390625 69.359375 
Q 42.328125 66.84375 44.9375 62.5 
Q 47.5625 58.15625 47.5625 53.265625 
Q 47.5625 48.640625 45.0625 44.828125 
Q 42.578125 41.015625 37.703125 38.765625 
Q 44.046875 37.3125 47.5625 32.6875 
Q 51.078125 28.078125 51.078125 21.140625 
Q 51.078125 11.765625 44.234375 5.25 
Q 37.40625 -1.265625 26.953125 -1.265625 
Q 17.53125 -1.265625 11.296875 4.34375 
Q 5.078125 9.96875 4.203125 18.890625 
z
" id="ArialMT-51"/>
       </defs>
       <use xlink:href="#ArialMT-51"/>
      </g>
     </g>
    </g>
    <g id="xtick_2">
     <g id="line2d_3">
      <path clip-path="url(#pe16b88fdbb)" d="M 180 346.5 
L 180 47.52 
" style="fill:none;stroke:#cccccc;stroke-linecap:round;"/>
     </g>
     <g id="line2d_4"/>
     <g id="text_2">
      <!-- 4 -->
      <g style="fill:#262626;" transform="translate(177.219531 360.657812)scale(0.1 -0.1)">
       <defs>
        <path d="M 32.328125 0 
L 32.328125 17.140625 
L 1.265625 17.140625 
L 1.265625 25.203125 
L 33.9375 71.578125 
L 41.109375 71.578125 
L 41.109375 25.203125 
L 50.78125 25.203125 
L 50.78125 17.140625 
L 41.109375 17.140625 
L 41.109375 0 
z
M 32.328125 25.203125 
L 32.328125 57.46875 
L 9.90625 25.203125 
z
" id="ArialMT-52"/>
       </defs>
       <use xlink:href="#ArialMT-52"/>
      </g>
     </g>
    </g>
    <g id="xtick_3">
     <g id="line2d_5">
      <path clip-path="url(#pe16b88fdbb)" d="M 252 346.5 
L 252 47.52 
" style="fill:none;stroke:#cccccc;stroke-linecap:round;"/>
     </g>
     <g id="line2d_6"/>
     <g id="text_3">
      <!-- 5 -->
      <g style="fill:#262626;" transform="translate(249.219531 360.657812)scale(0.1 -0.1)">
       <defs>
        <path d="M 4.15625 18.75 
L 13.375 19.53125 
Q 14.40625 12.796875 18.140625 9.390625 
Q 21.875 6 27.15625 6 
Q 33.5 6 37.890625 10.78125 
Q 42.28125 15.578125 42.28125 23.484375 
Q 42.28125 31 38.0625 35.34375 
Q 33.84375 39.703125 27 39.703125 
Q 22.75 39.703125 19.328125 37.765625 
Q 15.921875 35.84375 13.96875 32.765625 
L 5.71875 33.84375 
L 12.640625 70.609375 
L 48.25 70.609375 
L 48.25 62.203125 
L 19.671875 62.203125 
L 15.828125 42.96875 
Q 22.265625 47.46875 29.34375 47.46875 
Q 38.71875 47.46875 45.15625 40.96875 
Q 51.609375 34.46875 51.609375 24.265625 
Q 51.609375 14.546875 45.953125 7.46875 
Q 39.0625 -1.21875 27.15625 -1.21875 
Q 17.390625 -1.21875 11.203125 4.25 
Q 5.03125 9.71875 4.15625 18.75 
z
" id="ArialMT-53"/>
       </defs>
       <use xlink:href="#ArialMT-53"/>
      </g>
     </g>
    </g>
    <g id="xtick_4">
     <g id="line2d_7">
      <path clip-path="url(#pe16b88fdbb)" d="M 324 346.5 
L 324 47.52 
" style="fill:none;stroke:#cccccc;stroke-linecap:round;"/>
     </g>
     <g id="line2d_8"/>
     <g id="text_4">
      <!-- 6 -->
      <g style="fill:#262626;" transform="translate(321.219531 360.657812)scale(0.1 -0.1)">
       <defs>
        <path d="M 49.75 54.046875 
L 41.015625 53.375 
Q 39.84375 58.546875 37.703125 60.890625 
Q 34.125 64.65625 28.90625 64.65625 
Q 24.703125 64.65625 21.53125 62.3125 
Q 17.390625 59.28125 14.984375 53.46875 
Q 12.59375 47.65625 12.5 36.921875 
Q 15.671875 41.75 20.265625 44.09375 
Q 24.859375 46.4375 29.890625 46.4375 
Q 38.671875 46.4375 44.84375 39.96875 
Q 51.03125 33.5 51.03125 23.25 
Q 51.03125 16.5 48.125 10.71875 
Q 45.21875 4.9375 40.140625 1.859375 
Q 35.0625 -1.21875 28.609375 -1.21875 
Q 17.625 -1.21875 10.6875 6.859375 
Q 3.765625 14.9375 3.765625 33.5 
Q 3.765625 54.25 11.421875 63.671875 
Q 18.109375 71.875 29.4375 71.875 
Q 37.890625 71.875 43.28125 67.140625 
Q 48.6875 62.40625 49.75 54.046875 
z
M 13.875 23.1875 
Q 13.875 18.65625 15.796875 14.5 
Q 17.71875 10.359375 21.1875 8.171875 
Q 24.65625 6 28.46875 6 
Q 34.03125 6 38.03125 10.484375 
Q 42.046875 14.984375 42.046875 22.703125 
Q 42.046875 30.125 38.078125 34.390625 
Q 34.125 38.671875 28.125 38.671875 
Q 22.171875 38.671875 18.015625 34.390625 
Q 13.875 30.125 13.875 23.1875 
z
" id="ArialMT-54"/>
       </defs>
       <use xlink:href="#ArialMT-54"/>
      </g>
     </g>
    </g>
    <g id="xtick_5">
     <g id="line2d_9">
      <path clip-path="url(#pe16b88fdbb)" d="M 396 346.5 
L 396 47.52 
" style="fill:none;stroke:#cccccc;stroke-linecap:round;"/>
     </g>
     <g id="line2d_10"/>
     <g id="text_5">
      <!-- 7 -->
      <g style="fill:#262626;" transform="translate(393.219531 360.657812)scale(0.1 -0.1)">
       <defs>
        <path d="M 4.734375 62.203125 
L 4.734375 70.65625 
L 51.078125 70.65625 
L 51.078125 63.8125 
Q 44.234375 56.546875 37.515625 44.484375 
Q 30.8125 32.421875 27.15625 19.671875 
Q 24.515625 10.6875 23.78125 0 
L 14.75 0 
Q 14.890625 8.453125 18.0625 20.40625 
Q 21.234375 32.375 27.171875 43.484375 
Q 33.109375 54.59375 39.796875 62.203125 
z
" id="ArialMT-55"/>
       </defs>
       <use xlink:href="#ArialMT-55"/>
      </g>
     </g>
    </g>
    <g id="xtick_6">
     <g id="line2d_11">
      <path clip-path="url(#pe16b88fdbb)" d="M 468 346.5 
L 468 47.52 
" style="fill:none;stroke:#cccccc;stroke-linecap:round;"/>
     </g>
     <g id="line2d_12"/>
     <g id="text_6">
      <!-- 8 -->
      <g style="fill:#262626;" transform="translate(465.219531 360.657812)scale(0.1 -0.1)">
       <defs>
        <path d="M 17.671875 38.8125 
Q 12.203125 40.828125 9.5625 44.53125 
Q 6.9375 48.25 6.9375 53.421875 
Q 6.9375 61.234375 12.546875 66.546875 
Q 18.171875 71.875 27.484375 71.875 
Q 36.859375 71.875 42.578125 66.421875 
Q 48.296875 60.984375 48.296875 53.171875 
Q 48.296875 48.1875 45.671875 44.5 
Q 43.0625 40.828125 37.75 38.8125 
Q 44.34375 36.671875 47.78125 31.875 
Q 51.21875 27.09375 51.21875 20.453125 
Q 51.21875 11.28125 44.71875 5.03125 
Q 38.234375 -1.21875 27.640625 -1.21875 
Q 17.046875 -1.21875 10.546875 5.046875 
Q 4.046875 11.328125 4.046875 20.703125 
Q 4.046875 27.6875 7.59375 32.390625 
Q 11.140625 37.109375 17.671875 38.8125 
z
M 15.921875 53.71875 
Q 15.921875 48.640625 19.1875 45.40625 
Q 22.46875 42.1875 27.6875 42.1875 
Q 32.765625 42.1875 36.015625 45.375 
Q 39.265625 48.578125 39.265625 53.21875 
Q 39.265625 58.0625 35.90625 61.359375 
Q 32.5625 64.65625 27.59375 64.65625 
Q 22.5625 64.65625 19.234375 61.421875 
Q 15.921875 58.203125 15.921875 53.71875 
z
M 13.09375 20.65625 
Q 13.09375 16.890625 14.875 13.375 
Q 16.65625 9.859375 20.171875 7.921875 
Q 23.6875 6 27.734375 6 
Q 34.03125 6 38.125 10.046875 
Q 42.234375 14.109375 42.234375 20.359375 
Q 42.234375 26.703125 38.015625 30.859375 
Q 33.796875 35.015625 27.4375 35.015625 
Q 21.234375 35.015625 17.15625 30.90625 
Q 13.09375 26.8125 13.09375 20.65625 
z
" id="ArialMT-56"/>
       </defs>
       <use xlink:href="#ArialMT-56"/>
      </g>
     </g>
    </g>
   </g>
   <g id="matplotlib.axis_2">
    <g id="ytick_1">
     <g id="line2d_13">
      <path clip-path="url(#pe16b88fdbb)" d="M 72 322.065254 
L 518.4 322.065254 
" style="fill:none;stroke:#cccccc;stroke-linecap:round;"/>
     </g>
     <g id="line2d_14"/>
     <g id="text_7">
      <!-- 4.5 -->
      <g style="fill:#262626;" transform="translate(51.1 325.64416)scale(0.1 -0.1)">
       <defs>
        <path d="M 9.078125 0 
L 9.078125 10.015625 
L 19.09375 10.015625 
L 19.09375 0 
z
" id="ArialMT-46"/>
       </defs>
       <use xlink:href="#ArialMT-52"/>
       <use x="55.615234" xlink:href="#ArialMT-46"/>
       <use x="83.398438" xlink:href="#ArialMT-53"/>
      </g>
     </g>
    </g>
    <g id="ytick_2">
     <g id="line2d_15">
      <path clip-path="url(#pe16b88fdbb)" d="M 72 285.551895 
L 518.4 285.551895 
" style="fill:none;stroke:#cccccc;stroke-linecap:round;"/>
     </g>
     <g id="line2d_16"/>
     <g id="text_8">
      <!-- 5.0 -->
      <g style="fill:#262626;" transform="translate(51.1 289.130802)scale(0.1 -0.1)">
       <defs>
        <path d="M 4.15625 35.296875 
Q 4.15625 48 6.765625 55.734375 
Q 9.375 63.484375 14.515625 67.671875 
Q 19.671875 71.875 27.484375 71.875 
Q 33.25 71.875 37.59375 69.546875 
Q 41.9375 67.234375 44.765625 62.859375 
Q 47.609375 58.5 49.21875 52.21875 
Q 50.828125 45.953125 50.828125 35.296875 
Q 50.828125 22.703125 48.234375 14.96875 
Q 45.65625 7.234375 40.5 3 
Q 35.359375 -1.21875 27.484375 -1.21875 
Q 17.140625 -1.21875 11.234375 6.203125 
Q 4.15625 15.140625 4.15625 35.296875 
z
M 13.1875 35.296875 
Q 13.1875 17.671875 17.3125 11.828125 
Q 21.4375 6 27.484375 6 
Q 33.546875 6 37.671875 11.859375 
Q 41.796875 17.71875 41.796875 35.296875 
Q 41.796875 52.984375 37.671875 58.78125 
Q 33.546875 64.59375 27.390625 64.59375 
Q 21.34375 64.59375 17.71875 59.46875 
Q 13.1875 52.9375 13.1875 35.296875 
z
" id="ArialMT-48"/>
       </defs>
       <use xlink:href="#ArialMT-53"/>
       <use x="55.615234" xlink:href="#ArialMT-46"/>
       <use x="83.398438" xlink:href="#ArialMT-48"/>
      </g>
     </g>
    </g>
    <g id="ytick_3">
     <g id="line2d_17">
      <path clip-path="url(#pe16b88fdbb)" d="M 72 249.038537 
L 518.4 249.038537 
" style="fill:none;stroke:#cccccc;stroke-linecap:round;"/>
     </g>
     <g id="line2d_18"/>
     <g id="text_9">
      <!-- 5.5 -->
      <g style="fill:#262626;" transform="translate(51.1 252.617443)scale(0.1 -0.1)">
       <use xlink:href="#ArialMT-53"/>
       <use x="55.615234" xlink:href="#ArialMT-46"/>
       <use x="83.398438" xlink:href="#ArialMT-53"/>
      </g>
     </g>
    </g>
    <g id="ytick_4">
     <g id="line2d_19">
      <path clip-path="url(#pe16b88fdbb)" d="M 72 212.525178 
L 518.4 212.525178 
" style="fill:none;stroke:#cccccc;stroke-linecap:round;"/>
     </g>
     <g id="line2d_20"/>
     <g id="text_10">
      <!-- 6.0 -->
      <g style="fill:#262626;" transform="translate(51.1 216.104085)scale(0.1 -0.1)">
       <use xlink:href="#ArialMT-54"/>
       <use x="55.615234" xlink:href="#ArialMT-46"/>
       <use x="83.398438" xlink:href="#ArialMT-48"/>
      </g>
     </g>
    </g>
    <g id="ytick_5">
     <g id="line2d_21">
      <path clip-path="url(#pe16b88fdbb)" d="M 72 176.01182 
L 518.4 176.01182 
" style="fill:none;stroke:#cccccc;stroke-linecap:round;"/>
     </g>
     <g id="line2d_22"/>
     <g id="text_11">
      <!-- 6.5 -->
      <g style="fill:#262626;" transform="translate(51.1 179.590726)scale(0.1 -0.1)">
       <use xlink:href="#ArialMT-54"/>
       <use x="55.615234" xlink:href="#ArialMT-46"/>
       <use x="83.398438" xlink:href="#ArialMT-53"/>
      </g>
     </g>
    </g>
    <g id="ytick_6">
     <g id="line2d_23">
      <path clip-path="url(#pe16b88fdbb)" d="M 72 139.498461 
L 518.4 139.498461 
" style="fill:none;stroke:#cccccc;stroke-linecap:round;"/>
     </g>
     <g id="line2d_24"/>
     <g id="text_12">
      <!-- 7.0 -->
      <g style="fill:#262626;" transform="translate(51.1 143.077367)scale(0.1 -0.1)">
       <use xlink:href="#ArialMT-55"/>
       <use x="55.615234" xlink:href="#ArialMT-46"/>
       <use x="83.398438" xlink:href="#ArialMT-48"/>
      </g>
     </g>
    </g>
    <g id="ytick_7">
     <g id="line2d_25">
      <path clip-path="url(#pe16b88fdbb)" d="M 72 102.985103 
L 518.4 102.985103 
" style="fill:none;stroke:#cccccc;stroke-linecap:round;"/>
     </g>
     <g id="line2d_26"/>
     <g id="text_13">
      <!-- 7.5 -->
      <g style="fill:#262626;" transform="translate(51.1 106.564009)scale(0.1 -0.1)">
       <use xlink:href="#ArialMT-55"/>
       <use x="55.615234" xlink:href="#ArialMT-46"/>
       <use x="83.398438" xlink:href="#ArialMT-53"/>
      </g>
     </g>
    </g>
    <g id="ytick_8">
     <g id="line2d_27">
      <path clip-path="url(#pe16b88fdbb)" d="M 72 66.471744 
L 518.4 66.471744 
" style="fill:none;stroke:#cccccc;stroke-linecap:round;"/>
     </g>
     <g id="line2d_28"/>
     <g id="text_14">
      <!-- 8.0 -->
      <g style="fill:#262626;" transform="translate(51.1 70.05065)scale(0.1 -0.1)">
       <use xlink:href="#ArialMT-56"/>
       <use x="55.615234" xlink:href="#ArialMT-46"/>
       <use x="83.398438" xlink:href="#ArialMT-48"/>
      </g>
     </g>
    </g>
   </g>
   <g id="PathCollection_1">
    <defs>
     <path d="M 0 3.5 
C 0.928211 3.5 1.81853 3.131218 2.474874 2.474874 
C 3.131218 1.81853 3.5 0.928211 3.5 0 
C 3.5 -0.928211 3.131218 -1.81853 2.474874 -2.474874 
C 1.81853 -3.131218 0.928211 -3.5 0 -3.5 
C -0.928211 -3.5 -1.81853 -3.131218 -2.474874 -2.474874 
C -3.131218 -1.81853 -3.5 -0.928211 -3.5 0 
C -3.5 0.928211 -3.131218 1.81853 -2.474874 2.474874 
C -1.81853 3.131218 -0.928211 3.5 0 3.5 
z
" id="mf4955600df" style="stroke:#0272a2;stroke-opacity:0.75;stroke-width:0.3;"/>
    </defs>
    <g clip-path="url(#pe16b88fdbb)">
     <use style="fill:#0272a2;fill-opacity:0.75;stroke:#0272a2;stroke-opacity:0.75;stroke-width:0.3;" x="266.4" xlink:href="#mf4955600df" y="220.224182"/>
     <use style="fill:#0272a2;fill-opacity:0.75;stroke:#0272a2;stroke-opacity:0.75;stroke-width:0.3;" x="360" xlink:href="#mf4955600df" y="172.200448"/>
     <use style="fill:#0272a2;fill-opacity:0.75;stroke:#0272a2;stroke-opacity:0.75;stroke-width:0.3;" x="302.4" xlink:href="#mf4955600df" y="193.351474"/>
     <use style="fill:#0272a2;fill-opacity:0.75;stroke:#0272a2;stroke-opacity:0.75;stroke-width:0.3;" x="352.8" xlink:href="#mf4955600df" y="207.929471"/>
     <use style="fill:#0272a2;fill-opacity:0.75;stroke:#0272a2;stroke-opacity:0.75;stroke-width:0.3;" x="338.4" xlink:href="#mf4955600df" y="200.282475"/>
     <use style="fill:#0272a2;fill-opacity:0.75;stroke:#0272a2;stroke-opacity:0.75;stroke-width:0.3;" x="352.8" xlink:href="#mf4955600df" y="206.092975"/>
     <use style="fill:#0272a2;fill-opacity:0.75;stroke:#0272a2;stroke-opacity:0.75;stroke-width:0.3;" x="367.2" xlink:href="#mf4955600df" y="157.008114"/>
     <use style="fill:#0272a2;fill-opacity:0.75;stroke:#0272a2;stroke-opacity:0.75;stroke-width:0.3;" x="266.4" xlink:href="#mf4955600df" y="237.999032"/>
     <use style="fill:#0272a2;fill-opacity:0.75;stroke:#0272a2;stroke-opacity:0.75;stroke-width:0.3;" x="280.8" xlink:href="#mf4955600df" y="247.110023"/>
     <use style="fill:#0272a2;fill-opacity:0.75;stroke:#0272a2;stroke-opacity:0.75;stroke-width:0.3;" x="432" xlink:href="#mf4955600df" y="125.191754"/>
     <use style="fill:#0272a2;fill-opacity:0.75;stroke:#0272a2;stroke-opacity:0.75;stroke-width:0.3;" x="252" xlink:href="#mf4955600df" y="243.961151"/>
     <use style="fill:#0272a2;fill-opacity:0.75;stroke:#0272a2;stroke-opacity:0.75;stroke-width:0.3;" x="273.6" xlink:href="#mf4955600df" y="249.699842"/>
     <use style="fill:#0272a2;fill-opacity:0.75;stroke:#0272a2;stroke-opacity:0.75;stroke-width:0.3;" x="288" xlink:href="#mf4955600df" y="266.217251"/>
     <use style="fill:#0272a2;fill-opacity:0.75;stroke:#0272a2;stroke-opacity:0.75;stroke-width:0.3;" x="381.6" xlink:href="#mf4955600df" y="224.563473"/>
     <use style="fill:#0272a2;fill-opacity:0.75;stroke:#0272a2;stroke-opacity:0.75;stroke-width:0.3;" x="252" xlink:href="#mf4955600df" y="226.580553"/>
     <use style="fill:#0272a2;fill-opacity:0.75;stroke:#0272a2;stroke-opacity:0.75;stroke-width:0.3;" x="144" xlink:href="#mf4955600df" y="253.980149"/>
     <use style="fill:#0272a2;fill-opacity:0.75;stroke:#0272a2;stroke-opacity:0.75;stroke-width:0.3;" x="352.8" xlink:href="#mf4955600df" y="192.609835"/>
     <use style="fill:#0272a2;fill-opacity:0.75;stroke:#0272a2;stroke-opacity:0.75;stroke-width:0.3;" x="331.2" xlink:href="#mf4955600df" y="215.542522"/>
     <use style="fill:#0272a2;fill-opacity:0.75;stroke:#0272a2;stroke-opacity:0.75;stroke-width:0.3;" x="266.4" xlink:href="#mf4955600df" y="204.550672"/>
     <use style="fill:#0272a2;fill-opacity:0.75;stroke:#0272a2;stroke-opacity:0.75;stroke-width:0.3;" x="302.4" xlink:href="#mf4955600df" y="206.235019"/>
     <use style="fill:#0272a2;fill-opacity:0.75;stroke:#0272a2;stroke-opacity:0.75;stroke-width:0.3;" x="273.6" xlink:href="#mf4955600df" y="273.473283"/>
     <use style="fill:#0272a2;fill-opacity:0.75;stroke:#0272a2;stroke-opacity:0.75;stroke-width:0.3;" x="223.2" xlink:href="#mf4955600df" y="218.235082"/>
     <use style="fill:#0272a2;fill-opacity:0.75;stroke:#0272a2;stroke-opacity:0.75;stroke-width:0.3;" x="417.6" xlink:href="#mf4955600df" y="157.257466"/>
     <use style="fill:#0272a2;fill-opacity:0.75;stroke:#0272a2;stroke-opacity:0.75;stroke-width:0.3;" x="388.8" xlink:href="#mf4955600df" y="216.103454"/>
     <use style="fill:#0272a2;fill-opacity:0.75;stroke:#0272a2;stroke-opacity:0.75;stroke-width:0.3;" x="352.8" xlink:href="#mf4955600df" y="197.384727"/>
     <use style="fill:#0272a2;fill-opacity:0.75;stroke:#0272a2;stroke-opacity:0.75;stroke-width:0.3;" x="345.6" xlink:href="#mf4955600df" y="181.914751"/>
     <use style="fill:#0272a2;fill-opacity:0.75;stroke:#0272a2;stroke-opacity:0.75;stroke-width:0.3;" x="280.8" xlink:href="#mf4955600df" y="235.918491"/>
     <use style="fill:#0272a2;fill-opacity:0.75;stroke:#0272a2;stroke-opacity:0.75;stroke-width:0.3;" x="266.4" xlink:href="#mf4955600df" y="178.821472"/>
     <use style="fill:#0272a2;fill-opacity:0.75;stroke:#0272a2;stroke-opacity:0.75;stroke-width:0.3;" x="302.4" xlink:href="#mf4955600df" y="211.351577"/>
     <use style="fill:#0272a2;fill-opacity:0.75;stroke:#0272a2;stroke-opacity:0.75;stroke-width:0.3;" x="352.8" xlink:href="#mf4955600df" y="206.541464"/>
     <use style="fill:#0272a2;fill-opacity:0.75;stroke:#0272a2;stroke-opacity:0.75;stroke-width:0.3;" x="374.4" xlink:href="#mf4955600df" y="120.574014"/>
     <use style="fill:#0272a2;fill-opacity:0.75;stroke:#0272a2;stroke-opacity:0.75;stroke-width:0.3;" x="280.8" xlink:href="#mf4955600df" y="235.217422"/>
     <use style="fill:#0272a2;fill-opacity:0.75;stroke:#0272a2;stroke-opacity:0.75;stroke-width:0.3;" x="410.4" xlink:href="#mf4955600df" y="180.311393"/>
     <use style="fill:#0272a2;fill-opacity:0.75;stroke:#0272a2;stroke-opacity:0.75;stroke-width:0.3;" x="295.2" xlink:href="#mf4955600df" y="237.289099"/>
     <use style="fill:#0272a2;fill-opacity:0.75;stroke:#0272a2;stroke-opacity:0.75;stroke-width:0.3;" x="367.2" xlink:href="#mf4955600df" y="204.721569"/>
     <use style="fill:#0272a2;fill-opacity:0.75;stroke:#0272a2;stroke-opacity:0.75;stroke-width:0.3;" x="324" xlink:href="#mf4955600df" y="218.644483"/>
     <use style="fill:#0272a2;fill-opacity:0.75;stroke:#0272a2;stroke-opacity:0.75;stroke-width:0.3;" x="324" xlink:href="#mf4955600df" y="206.854049"/>
     <use style="fill:#0272a2;fill-opacity:0.75;stroke:#0272a2;stroke-opacity:0.75;stroke-width:0.3;" x="237.6" xlink:href="#mf4955600df" y="237.833433"/>
     <use style="fill:#0272a2;fill-opacity:0.75;stroke:#0272a2;stroke-opacity:0.75;stroke-width:0.3;" x="244.8" xlink:href="#mf4955600df" y="223.00141"/>
     <use style="fill:#0272a2;fill-opacity:0.75;stroke:#0272a2;stroke-opacity:0.75;stroke-width:0.3;" x="295.2" xlink:href="#mf4955600df" y="256.851815"/>
     <use style="fill:#0272a2;fill-opacity:0.75;stroke:#0272a2;stroke-opacity:0.75;stroke-width:0.3;" x="324" xlink:href="#mf4955600df" y="224.65849"/>
     <use style="fill:#0272a2;fill-opacity:0.75;stroke:#0272a2;stroke-opacity:0.75;stroke-width:0.3;" x="324" xlink:href="#mf4955600df" y="182.157516"/>
     <use style="fill:#0272a2;fill-opacity:0.75;stroke:#0272a2;stroke-opacity:0.75;stroke-width:0.3;" x="316.8" xlink:href="#mf4955600df" y="188.086717"/>
     <use style="fill:#0272a2;fill-opacity:0.75;stroke:#0272a2;stroke-opacity:0.75;stroke-width:0.3;" x="266.4" xlink:href="#mf4955600df" y="231.629662"/>
     <use style="fill:#0272a2;fill-opacity:0.75;stroke:#0272a2;stroke-opacity:0.75;stroke-width:0.3;" x="374.4" xlink:href="#mf4955600df" y="194.375655"/>
     <use style="fill:#0272a2;fill-opacity:0.75;stroke:#0272a2;stroke-opacity:0.75;stroke-width:0.3;" x="388.8" xlink:href="#mf4955600df" y="237.499937"/>
     <use style="fill:#0272a2;fill-opacity:0.75;stroke:#0272a2;stroke-opacity:0.75;stroke-width:0.3;" x="345.6" xlink:href="#mf4955600df" y="240.296733"/>
     <use style="fill:#0272a2;fill-opacity:0.75;stroke:#0272a2;stroke-opacity:0.75;stroke-width:0.3;" x="273.6" xlink:href="#mf4955600df" y="198.176335"/>
     <use style="fill:#0272a2;fill-opacity:0.75;stroke:#0272a2;stroke-opacity:0.75;stroke-width:0.3;" x="345.6" xlink:href="#mf4955600df" y="222.787778"/>
     <use style="fill:#0272a2;fill-opacity:0.75;stroke:#0272a2;stroke-opacity:0.75;stroke-width:0.3;" x="324" xlink:href="#mf4955600df" y="246.918037"/>
     <use style="fill:#0272a2;fill-opacity:0.75;stroke:#0272a2;stroke-opacity:0.75;stroke-width:0.3;" x="252" xlink:href="#mf4955600df" y="181.899994"/>
     <use style="fill:#0272a2;fill-opacity:0.75;stroke:#0272a2;stroke-opacity:0.75;stroke-width:0.3;" x="295.2" xlink:href="#mf4955600df" y="241.412408"/>
     <use style="fill:#0272a2;fill-opacity:0.75;stroke:#0272a2;stroke-opacity:0.75;stroke-width:0.3;" x="388.8" xlink:href="#mf4955600df" y="192.345817"/>
     <use style="fill:#0272a2;fill-opacity:0.75;stroke:#0272a2;stroke-opacity:0.75;stroke-width:0.3;" x="266.4" xlink:href="#mf4955600df" y="250.526524"/>
     <use style="fill:#0272a2;fill-opacity:0.75;stroke:#0272a2;stroke-opacity:0.75;stroke-width:0.3;" x="396" xlink:href="#mf4955600df" y="187.770744"/>
     <use style="fill:#0272a2;fill-opacity:0.75;stroke:#0272a2;stroke-opacity:0.75;stroke-width:0.3;" x="446.4" xlink:href="#mf4955600df" y="141.977875"/>
     <use style="fill:#0272a2;fill-opacity:0.75;stroke:#0272a2;stroke-opacity:0.75;stroke-width:0.3;" x="374.4" xlink:href="#mf4955600df" y="224.931082"/>
     <use style="fill:#0272a2;fill-opacity:0.75;stroke:#0272a2;stroke-opacity:0.75;stroke-width:0.3;" x="338.4" xlink:href="#mf4955600df" y="173.997729"/>
     <use style="fill:#0272a2;fill-opacity:0.75;stroke:#0272a2;stroke-opacity:0.75;stroke-width:0.3;" x="360" xlink:href="#mf4955600df" y="198.773881"/>
     <use style="fill:#0272a2;fill-opacity:0.75;stroke:#0272a2;stroke-opacity:0.75;stroke-width:0.3;" x="367.2" xlink:href="#mf4955600df" y="162.1315"/>
     <use style="fill:#0272a2;fill-opacity:0.75;stroke:#0272a2;stroke-opacity:0.75;stroke-width:0.3;" x="331.2" xlink:href="#mf4955600df" y="217.659592"/>
     <use style="fill:#0272a2;fill-opacity:0.75;stroke:#0272a2;stroke-opacity:0.75;stroke-width:0.3;" x="338.4" xlink:href="#mf4955600df" y="153.729758"/>
     <use style="fill:#0272a2;fill-opacity:0.75;stroke:#0272a2;stroke-opacity:0.75;stroke-width:0.3;" x="352.8" xlink:href="#mf4955600df" y="210.873317"/>
     <use style="fill:#0272a2;fill-opacity:0.75;stroke:#0272a2;stroke-opacity:0.75;stroke-width:0.3;" x="280.8" xlink:href="#mf4955600df" y="228.435599"/>
     <use style="fill:#0272a2;fill-opacity:0.75;stroke:#0272a2;stroke-opacity:0.75;stroke-width:0.3;" x="316.8" xlink:href="#mf4955600df" y="206.401493"/>
     <use style="fill:#0272a2;fill-opacity:0.75;stroke:#0272a2;stroke-opacity:0.75;stroke-width:0.3;" x="352.8" xlink:href="#mf4955600df" y="225.847166"/>
     <use style="fill:#0272a2;fill-opacity:0.75;stroke:#0272a2;stroke-opacity:0.75;stroke-width:0.3;" x="331.2" xlink:href="#mf4955600df" y="214.81614"/>
     <use style="fill:#0272a2;fill-opacity:0.75;stroke:#0272a2;stroke-opacity:0.75;stroke-width:0.3;" x="288" xlink:href="#mf4955600df" y="240.152975"/>
     <use style="fill:#0272a2;fill-opacity:0.75;stroke:#0272a2;stroke-opacity:0.75;stroke-width:0.3;" x="424.8" xlink:href="#mf4955600df" y="168.087521"/>
     <use style="fill:#0272a2;fill-opacity:0.75;stroke:#0272a2;stroke-opacity:0.75;stroke-width:0.3;" x="338.4" xlink:href="#mf4955600df" y="249.819659"/>
     <use style="fill:#0272a2;fill-opacity:0.75;stroke:#0272a2;stroke-opacity:0.75;stroke-width:0.3;" x="324" xlink:href="#mf4955600df" y="247.448041"/>
     <use style="fill:#0272a2;fill-opacity:0.75;stroke:#0272a2;stroke-opacity:0.75;stroke-width:0.3;" x="381.6" xlink:href="#mf4955600df" y="139.746886"/>
     <use style="fill:#0272a2;fill-opacity:0.75;stroke:#0272a2;stroke-opacity:0.75;stroke-width:0.3;" x="338.4" xlink:href="#mf4955600df" y="216.787715"/>
     <use style="fill:#0272a2;fill-opacity:0.75;stroke:#0272a2;stroke-opacity:0.75;stroke-width:0.3;" x="230.4" xlink:href="#mf4955600df" y="244.504996"/>
     <use style="fill:#0272a2;fill-opacity:0.75;stroke:#0272a2;stroke-opacity:0.75;stroke-width:0.3;" x="230.4" xlink:href="#mf4955600df" y="191.69264"/>
     <use style="fill:#0272a2;fill-opacity:0.75;stroke:#0272a2;stroke-opacity:0.75;stroke-width:0.3;" x="324" xlink:href="#mf4955600df" y="204.397615"/>
     <use style="fill:#0272a2;fill-opacity:0.75;stroke:#0272a2;stroke-opacity:0.75;stroke-width:0.3;" x="302.4" xlink:href="#mf4955600df" y="224.131094"/>
     <use style="fill:#0272a2;fill-opacity:0.75;stroke:#0272a2;stroke-opacity:0.75;stroke-width:0.3;" x="208.8" xlink:href="#mf4955600df" y="199.810403"/>
     <use style="fill:#0272a2;fill-opacity:0.75;stroke:#0272a2;stroke-opacity:0.75;stroke-width:0.3;" x="374.4" xlink:href="#mf4955600df" y="165.416234"/>
     <use style="fill:#0272a2;fill-opacity:0.75;stroke:#0272a2;stroke-opacity:0.75;stroke-width:0.3;" x="316.8" xlink:href="#mf4955600df" y="232.411045"/>
     <use style="fill:#0272a2;fill-opacity:0.75;stroke:#0272a2;stroke-opacity:0.75;stroke-width:0.3;" x="252" xlink:href="#mf4955600df" y="190.042139"/>
     <use style="fill:#0272a2;fill-opacity:0.75;stroke:#0272a2;stroke-opacity:0.75;stroke-width:0.3;" x="288" xlink:href="#mf4955600df" y="223.957664"/>
     <use style="fill:#0272a2;fill-opacity:0.75;stroke:#0272a2;stroke-opacity:0.75;stroke-width:0.3;" x="331.2" xlink:href="#mf4955600df" y="141.129361"/>
     <use style="fill:#0272a2;fill-opacity:0.75;stroke:#0272a2;stroke-opacity:0.75;stroke-width:0.3;" x="201.6" xlink:href="#mf4955600df" y="250.560801"/>
     <use style="fill:#0272a2;fill-opacity:0.75;stroke:#0272a2;stroke-opacity:0.75;stroke-width:0.3;" x="316.8" xlink:href="#mf4955600df" y="191.220065"/>
     <use style="fill:#0272a2;fill-opacity:0.75;stroke:#0272a2;stroke-opacity:0.75;stroke-width:0.3;" x="381.6" xlink:href="#mf4955600df" y="168.602481"/>
     <use style="fill:#0272a2;fill-opacity:0.75;stroke:#0272a2;stroke-opacity:0.75;stroke-width:0.3;" x="345.6" xlink:href="#mf4955600df" y="189.979898"/>
     <use style="fill:#0272a2;fill-opacity:0.75;stroke:#0272a2;stroke-opacity:0.75;stroke-width:0.3;" x="280.8" xlink:href="#mf4955600df" y="260.785829"/>
     <use style="fill:#0272a2;fill-opacity:0.75;stroke:#0272a2;stroke-opacity:0.75;stroke-width:0.3;" x="345.6" xlink:href="#mf4955600df" y="229.375991"/>
     <use style="fill:#0272a2;fill-opacity:0.75;stroke:#0272a2;stroke-opacity:0.75;stroke-width:0.3;" x="252" xlink:href="#mf4955600df" y="241.768799"/>
     <use style="fill:#0272a2;fill-opacity:0.75;stroke:#0272a2;stroke-opacity:0.75;stroke-width:0.3;" x="331.2" xlink:href="#mf4955600df" y="163.57135"/>
     <use style="fill:#0272a2;fill-opacity:0.75;stroke:#0272a2;stroke-opacity:0.75;stroke-width:0.3;" x="295.2" xlink:href="#mf4955600df" y="184.813984"/>
     <use style="fill:#0272a2;fill-opacity:0.75;stroke:#0272a2;stroke-opacity:0.75;stroke-width:0.3;" x="295.2" xlink:href="#mf4955600df" y="216.758475"/>
     <use style="fill:#0272a2;fill-opacity:0.75;stroke:#0272a2;stroke-opacity:0.75;stroke-width:0.3;" x="331.2" xlink:href="#mf4955600df" y="209.302857"/>
     <use style="fill:#0272a2;fill-opacity:0.75;stroke:#0272a2;stroke-opacity:0.75;stroke-width:0.3;" x="266.4" xlink:href="#mf4955600df" y="230.248286"/>
     <use style="fill:#0272a2;fill-opacity:0.75;stroke:#0272a2;stroke-opacity:0.75;stroke-width:0.3;" x="410.4" xlink:href="#mf4955600df" y="188.536842"/>
     <use style="fill:#0272a2;fill-opacity:0.75;stroke:#0272a2;stroke-opacity:0.75;stroke-width:0.3;" x="309.6" xlink:href="#mf4955600df" y="207.42512"/>
     <use style="fill:#0272a2;fill-opacity:0.75;stroke:#0272a2;stroke-opacity:0.75;stroke-width:0.3;" x="302.4" xlink:href="#mf4955600df" y="205.320816"/>
     <use style="fill:#0272a2;fill-opacity:0.75;stroke:#0272a2;stroke-opacity:0.75;stroke-width:0.3;" x="208.8" xlink:href="#mf4955600df" y="229.725942"/>
     <use style="fill:#0272a2;fill-opacity:0.75;stroke:#0272a2;stroke-opacity:0.75;stroke-width:0.3;" x="266.4" xlink:href="#mf4955600df" y="248.178318"/>
     <use style="fill:#0272a2;fill-opacity:0.75;stroke:#0272a2;stroke-opacity:0.75;stroke-width:0.3;" x="252" xlink:href="#mf4955600df" y="256.299581"/>
     <use style="fill:#0272a2;fill-opacity:0.75;stroke:#0272a2;stroke-opacity:0.75;stroke-width:0.3;" x="165.6" xlink:href="#mf4955600df" y="254.844448"/>
     <use style="fill:#0272a2;fill-opacity:0.75;stroke:#0272a2;stroke-opacity:0.75;stroke-width:0.3;" x="331.2" xlink:href="#mf4955600df" y="164.499673"/>
     <use style="fill:#0272a2;fill-opacity:0.75;stroke:#0272a2;stroke-opacity:0.75;stroke-width:0.3;" x="396" xlink:href="#mf4955600df" y="135.861151"/>
     <use style="fill:#0272a2;fill-opacity:0.75;stroke:#0272a2;stroke-opacity:0.75;stroke-width:0.3;" x="280.8" xlink:href="#mf4955600df" y="211.299458"/>
     <use style="fill:#0272a2;fill-opacity:0.75;stroke:#0272a2;stroke-opacity:0.75;stroke-width:0.3;" x="295.2" xlink:href="#mf4955600df" y="216.625296"/>
     <use style="fill:#0272a2;fill-opacity:0.75;stroke:#0272a2;stroke-opacity:0.75;stroke-width:0.3;" x="381.6" xlink:href="#mf4955600df" y="197.111196"/>
     <use style="fill:#0272a2;fill-opacity:0.75;stroke:#0272a2;stroke-opacity:0.75;stroke-width:0.3;" x="367.2" xlink:href="#mf4955600df" y="215.404785"/>
     <use style="fill:#0272a2;fill-opacity:0.75;stroke:#0272a2;stroke-opacity:0.75;stroke-width:0.3;" x="230.4" xlink:href="#mf4955600df" y="216.111292"/>
     <use style="fill:#0272a2;fill-opacity:0.75;stroke:#0272a2;stroke-opacity:0.75;stroke-width:0.3;" x="316.8" xlink:href="#mf4955600df" y="240.623847"/>
     <use style="fill:#0272a2;fill-opacity:0.75;stroke:#0272a2;stroke-opacity:0.75;stroke-width:0.3;" x="252" xlink:href="#mf4955600df" y="249.475188"/>
     <use style="fill:#0272a2;fill-opacity:0.75;stroke:#0272a2;stroke-opacity:0.75;stroke-width:0.3;" x="288" xlink:href="#mf4955600df" y="183.495182"/>
     <use style="fill:#0272a2;fill-opacity:0.75;stroke:#0272a2;stroke-opacity:0.75;stroke-width:0.3;" x="288" xlink:href="#mf4955600df" y="199.039865"/>
     <use style="fill:#0272a2;fill-opacity:0.75;stroke:#0272a2;stroke-opacity:0.75;stroke-width:0.3;" x="280.8" xlink:href="#mf4955600df" y="246.486238"/>
     <use style="fill:#0272a2;fill-opacity:0.75;stroke:#0272a2;stroke-opacity:0.75;stroke-width:0.3;" x="324" xlink:href="#mf4955600df" y="191.957667"/>
     <use style="fill:#0272a2;fill-opacity:0.75;stroke:#0272a2;stroke-opacity:0.75;stroke-width:0.3;" x="324" xlink:href="#mf4955600df" y="174.713229"/>
     <use style="fill:#0272a2;fill-opacity:0.75;stroke:#0272a2;stroke-opacity:0.75;stroke-width:0.3;" x="309.6" xlink:href="#mf4955600df" y="269.427194"/>
     <use style="fill:#0272a2;fill-opacity:0.75;stroke:#0272a2;stroke-opacity:0.75;stroke-width:0.3;" x="381.6" xlink:href="#mf4955600df" y="166.783904"/>
     <use style="fill:#0272a2;fill-opacity:0.75;stroke:#0272a2;stroke-opacity:0.75;stroke-width:0.3;" x="338.4" xlink:href="#mf4955600df" y="215.767701"/>
     <use style="fill:#0272a2;fill-opacity:0.75;stroke:#0272a2;stroke-opacity:0.75;stroke-width:0.3;" x="288" xlink:href="#mf4955600df" y="198.523723"/>
     <use style="fill:#0272a2;fill-opacity:0.75;stroke:#0272a2;stroke-opacity:0.75;stroke-width:0.3;" x="288" xlink:href="#mf4955600df" y="240.66862"/>
     <use style="fill:#0272a2;fill-opacity:0.75;stroke:#0272a2;stroke-opacity:0.75;stroke-width:0.3;" x="403.2" xlink:href="#mf4955600df" y="208.873145"/>
     <use style="fill:#0272a2;fill-opacity:0.75;stroke:#0272a2;stroke-opacity:0.75;stroke-width:0.3;" x="352.8" xlink:href="#mf4955600df" y="177.399243"/>
     <use style="fill:#0272a2;fill-opacity:0.75;stroke:#0272a2;stroke-opacity:0.75;stroke-width:0.3;" x="338.4" xlink:href="#mf4955600df" y="167.799237"/>
     <use style="fill:#0272a2;fill-opacity:0.75;stroke:#0272a2;stroke-opacity:0.75;stroke-width:0.3;" x="381.6" xlink:href="#mf4955600df" y="169.324524"/>
     <use style="fill:#0272a2;fill-opacity:0.75;stroke:#0272a2;stroke-opacity:0.75;stroke-width:0.3;" x="259.2" xlink:href="#mf4955600df" y="205.40621"/>
     <use style="fill:#0272a2;fill-opacity:0.75;stroke:#0272a2;stroke-opacity:0.75;stroke-width:0.3;" x="410.4" xlink:href="#mf4955600df" y="205.886043"/>
     <use style="fill:#0272a2;fill-opacity:0.75;stroke:#0272a2;stroke-opacity:0.75;stroke-width:0.3;" x="309.6" xlink:href="#mf4955600df" y="238.75816"/>
     <use style="fill:#0272a2;fill-opacity:0.75;stroke:#0272a2;stroke-opacity:0.75;stroke-width:0.3;" x="324" xlink:href="#mf4955600df" y="208.164941"/>
     <use style="fill:#0272a2;fill-opacity:0.75;stroke:#0272a2;stroke-opacity:0.75;stroke-width:0.3;" x="295.2" xlink:href="#mf4955600df" y="232.763082"/>
     <use style="fill:#0272a2;fill-opacity:0.75;stroke:#0272a2;stroke-opacity:0.75;stroke-width:0.3;" x="432" xlink:href="#mf4955600df" y="163.013179"/>
     <use style="fill:#0272a2;fill-opacity:0.75;stroke:#0272a2;stroke-opacity:0.75;stroke-width:0.3;" x="151.2" xlink:href="#mf4955600df" y="224.278637"/>
     <use style="fill:#0272a2;fill-opacity:0.75;stroke:#0272a2;stroke-opacity:0.75;stroke-width:0.3;" x="316.8" xlink:href="#mf4955600df" y="249.145695"/>
     <use style="fill:#0272a2;fill-opacity:0.75;stroke:#0272a2;stroke-opacity:0.75;stroke-width:0.3;" x="439.2" xlink:href="#mf4955600df" y="120.546717"/>
     <use style="fill:#0272a2;fill-opacity:0.75;stroke:#0272a2;stroke-opacity:0.75;stroke-width:0.3;" x="295.2" xlink:href="#mf4955600df" y="213.423937"/>
     <use style="fill:#0272a2;fill-opacity:0.75;stroke:#0272a2;stroke-opacity:0.75;stroke-width:0.3;" x="381.6" xlink:href="#mf4955600df" y="161.036992"/>
    </g>
   </g>
   <g id="line2d_29">
    <path clip-path="url(#pe16b88fdbb)" d="M 128.88 270.62682 
L 132.24 269.513911 
L 135.6 268.401003 
L 138.96 267.288094 
L 142.32 266.175186 
L 145.68 265.062277 
L 149.04 263.949369 
L 152.4 262.83646 
L 155.76 261.723552 
L 159.12 260.610643 
L 162.48 259.497735 
L 165.84 258.384826 
L 169.2 257.271917 
L 172.56 256.159009 
L 175.92 255.0461 
L 179.28 253.933192 
L 182.64 252.820283 
L 186 251.707375 
L 189.36 250.594466 
L 192.72 249.481558 
L 196.08 248.368649 
L 199.44 247.255741 
L 202.8 246.142832 
L 206.16 245.029924 
L 209.52 243.917015 
L 212.88 242.804106 
L 216.24 241.691198 
L 219.6 240.578289 
L 222.96 239.465381 
L 226.32 238.352472 
L 229.68 237.239564 
L 233.04 236.126655 
L 236.4 235.013747 
L 239.76 233.900838 
L 243.12 232.78793 
L 246.48 231.675021 
L 249.84 230.562113 
L 253.2 229.449204 
L 256.56 228.336296 
L 259.92 227.223387 
L 263.28 226.110478 
L 266.64 224.99757 
L 270 223.884661 
L 273.36 222.771753 
L 276.72 221.658844 
L 280.08 220.545936 
L 283.44 219.433027 
L 286.8 218.320119 
L 290.16 217.20721 
L 293.52 216.094302 
L 296.88 214.981393 
L 300.24 213.868485 
L 303.6 212.755576 
L 306.96 211.642668 
L 310.32 210.529759 
L 313.68 209.41685 
L 317.04 208.303942 
L 320.4 207.191033 
L 323.76 206.078125 
L 327.12 204.965216 
L 330.48 203.852308 
L 333.84 202.739399 
L 337.2 201.626491 
L 340.56 200.513582 
L 343.92 199.400674 
L 347.28 198.287765 
L 350.64 197.174857 
L 354 196.061948 
L 357.36 194.94904 
L 360.72 193.836131 
L 364.08 192.723222 
L 367.44 191.610314 
L 370.8 190.497405 
L 374.16 189.384497 
L 377.52 188.271588 
L 380.88 187.15868 
L 384.24 186.045771 
L 387.6 184.932863 
L 390.96 183.819954 
L 394.32 182.707046 
L 397.68 181.594137 
L 401.04 180.481229 
L 404.4 179.36832 
L 407.76 178.255411 
L 411.12 177.142503 
L 414.48 176.029594 
L 417.84 174.916686 
L 421.2 173.803777 
L 424.56 172.690869 
L 427.92 171.57796 
L 431.28 170.465052 
L 434.64 169.352143 
L 438 168.239235 
L 441.36 167.126326 
L 444.72 166.013418 
L 448.08 164.900509 
L 451.44 163.787601 
L 454.8 162.674692 
L 458.16 161.561783 
L 461.52 160.448875 
" style="fill:none;stroke:#111111;stroke-dasharray:7.4,3.2;stroke-dashoffset:0;stroke-width:2;"/>
   </g>
   <g id="patch_3">
    <path d="M 72 346.5 
L 72 47.52 
" style="fill:none;stroke:#cccccc;stroke-linecap:square;stroke-linejoin:miter;stroke-width:1.25;"/>
   </g>
   <g id="patch_4">
    <path d="M 518.4 346.5 
L 518.4 47.52 
" style="fill:none;stroke:#cccccc;stroke-linecap:square;stroke-linejoin:miter;stroke-width:1.25;"/>
   </g>
   <g id="patch_5">
    <path d="M 72 346.5 
L 518.4 346.5 
" style="fill:none;stroke:#cccccc;stroke-linecap:square;stroke-linejoin:miter;stroke-width:1.25;"/>
   </g>
   <g id="patch_6">
    <path d="M 72 47.52 
L 518.4 47.52 
" style="fill:none;stroke:#cccccc;stroke-linecap:square;stroke-linejoin:miter;stroke-width:1.25;"/>
   </g>
   <g id="text_15">
    <!-- Predition Error for Ridge Regression -->
    <g style="fill:#262626;" transform="translate(198.496875 41.52)scale(0.12 -0.12)">
     <defs>
      <path d="M 7.71875 0 
L 7.71875 71.578125 
L 34.71875 71.578125 
Q 41.84375 71.578125 45.609375 70.90625 
Q 50.875 70.015625 54.4375 67.546875 
Q 58.015625 65.09375 60.1875 60.640625 
Q 62.359375 56.203125 62.359375 50.875 
Q 62.359375 41.75 56.546875 35.421875 
Q 50.734375 29.109375 35.546875 29.109375 
L 17.1875 29.109375 
L 17.1875 0 
z
M 17.1875 37.546875 
L 35.6875 37.546875 
Q 44.875 37.546875 48.734375 40.96875 
Q 52.59375 44.390625 52.59375 50.59375 
Q 52.59375 55.078125 50.3125 58.265625 
Q 48.046875 61.46875 44.34375 62.5 
Q 41.9375 63.140625 35.5 63.140625 
L 17.1875 63.140625 
z
" id="ArialMT-80"/>
      <path d="M 6.5 0 
L 6.5 51.859375 
L 14.40625 51.859375 
L 14.40625 44 
Q 17.4375 49.515625 20 51.265625 
Q 22.5625 53.03125 25.640625 53.03125 
Q 30.078125 53.03125 34.671875 50.203125 
L 31.640625 42.046875 
Q 28.421875 43.953125 25.203125 43.953125 
Q 22.3125 43.953125 20.015625 42.21875 
Q 17.71875 40.484375 16.75 37.40625 
Q 15.28125 32.71875 15.28125 27.15625 
L 15.28125 0 
z
" id="ArialMT-114"/>
      <path d="M 42.09375 16.703125 
L 51.171875 15.578125 
Q 49.03125 7.625 43.21875 3.21875 
Q 37.40625 -1.171875 28.375 -1.171875 
Q 17 -1.171875 10.328125 5.828125 
Q 3.65625 12.84375 3.65625 25.484375 
Q 3.65625 38.578125 10.390625 45.796875 
Q 17.140625 53.03125 27.875 53.03125 
Q 38.28125 53.03125 44.875 45.953125 
Q 51.46875 38.875 51.46875 26.03125 
Q 51.46875 25.25 51.421875 23.6875 
L 12.75 23.6875 
Q 13.234375 15.140625 17.578125 10.59375 
Q 21.921875 6.0625 28.421875 6.0625 
Q 33.25 6.0625 36.671875 8.59375 
Q 40.09375 11.140625 42.09375 16.703125 
z
M 13.234375 30.90625 
L 42.1875 30.90625 
Q 41.609375 37.453125 38.875 40.71875 
Q 34.671875 45.796875 27.984375 45.796875 
Q 21.921875 45.796875 17.796875 41.75 
Q 13.671875 37.703125 13.234375 30.90625 
z
" id="ArialMT-101"/>
      <path d="M 40.234375 0 
L 40.234375 6.546875 
Q 35.296875 -1.171875 25.734375 -1.171875 
Q 19.53125 -1.171875 14.328125 2.25 
Q 9.125 5.671875 6.265625 11.796875 
Q 3.421875 17.921875 3.421875 25.875 
Q 3.421875 33.640625 6 39.96875 
Q 8.59375 46.296875 13.765625 49.65625 
Q 18.953125 53.03125 25.34375 53.03125 
Q 30.03125 53.03125 33.6875 51.046875 
Q 37.359375 49.078125 39.65625 45.90625 
L 39.65625 71.578125 
L 48.390625 71.578125 
L 48.390625 0 
z
M 12.453125 25.875 
Q 12.453125 15.921875 16.640625 10.984375 
Q 20.84375 6.0625 26.5625 6.0625 
Q 32.328125 6.0625 36.34375 10.765625 
Q 40.375 15.484375 40.375 25.140625 
Q 40.375 35.796875 36.265625 40.765625 
Q 32.171875 45.75 26.171875 45.75 
Q 20.3125 45.75 16.375 40.96875 
Q 12.453125 36.1875 12.453125 25.875 
z
" id="ArialMT-100"/>
      <path d="M 6.640625 61.46875 
L 6.640625 71.578125 
L 15.4375 71.578125 
L 15.4375 61.46875 
z
M 6.640625 0 
L 6.640625 51.859375 
L 15.4375 51.859375 
L 15.4375 0 
z
" id="ArialMT-105"/>
      <path d="M 25.78125 7.859375 
L 27.046875 0.09375 
Q 23.34375 -0.6875 20.40625 -0.6875 
Q 15.625 -0.6875 12.984375 0.828125 
Q 10.359375 2.34375 9.28125 4.8125 
Q 8.203125 7.28125 8.203125 15.1875 
L 8.203125 45.015625 
L 1.765625 45.015625 
L 1.765625 51.859375 
L 8.203125 51.859375 
L 8.203125 64.703125 
L 16.9375 69.96875 
L 16.9375 51.859375 
L 25.78125 51.859375 
L 25.78125 45.015625 
L 16.9375 45.015625 
L 16.9375 14.703125 
Q 16.9375 10.9375 17.40625 9.859375 
Q 17.875 8.796875 18.921875 8.15625 
Q 19.96875 7.515625 21.921875 7.515625 
Q 23.390625 7.515625 25.78125 7.859375 
z
" id="ArialMT-116"/>
      <path d="M 3.328125 25.921875 
Q 3.328125 40.328125 11.328125 47.265625 
Q 18.015625 53.03125 27.640625 53.03125 
Q 38.328125 53.03125 45.109375 46.015625 
Q 51.90625 39.015625 51.90625 26.65625 
Q 51.90625 16.65625 48.90625 10.90625 
Q 45.90625 5.171875 40.15625 2 
Q 34.421875 -1.171875 27.640625 -1.171875 
Q 16.75 -1.171875 10.03125 5.8125 
Q 3.328125 12.796875 3.328125 25.921875 
z
M 12.359375 25.921875 
Q 12.359375 15.96875 16.703125 11.015625 
Q 21.046875 6.0625 27.640625 6.0625 
Q 34.1875 6.0625 38.53125 11.03125 
Q 42.875 16.015625 42.875 26.21875 
Q 42.875 35.84375 38.5 40.796875 
Q 34.125 45.75 27.640625 45.75 
Q 21.046875 45.75 16.703125 40.8125 
Q 12.359375 35.890625 12.359375 25.921875 
z
" id="ArialMT-111"/>
      <path d="M 6.59375 0 
L 6.59375 51.859375 
L 14.5 51.859375 
L 14.5 44.484375 
Q 20.21875 53.03125 31 53.03125 
Q 35.6875 53.03125 39.625 51.34375 
Q 43.5625 49.65625 45.515625 46.921875 
Q 47.46875 44.1875 48.25 40.4375 
Q 48.734375 37.984375 48.734375 31.890625 
L 48.734375 0 
L 39.9375 0 
L 39.9375 31.546875 
Q 39.9375 36.921875 38.90625 39.578125 
Q 37.890625 42.234375 35.28125 43.8125 
Q 32.671875 45.40625 29.15625 45.40625 
Q 23.53125 45.40625 19.453125 41.84375 
Q 15.375 38.28125 15.375 28.328125 
L 15.375 0 
z
" id="ArialMT-110"/>
      <path id="ArialMT-32"/>
      <path d="M 7.90625 0 
L 7.90625 71.578125 
L 59.671875 71.578125 
L 59.671875 63.140625 
L 17.390625 63.140625 
L 17.390625 41.21875 
L 56.984375 41.21875 
L 56.984375 32.8125 
L 17.390625 32.8125 
L 17.390625 8.453125 
L 61.328125 8.453125 
L 61.328125 0 
z
" id="ArialMT-69"/>
      <path d="M 8.6875 0 
L 8.6875 45.015625 
L 0.921875 45.015625 
L 0.921875 51.859375 
L 8.6875 51.859375 
L 8.6875 57.375 
Q 8.6875 62.59375 9.625 65.140625 
Q 10.890625 68.5625 14.078125 70.671875 
Q 17.28125 72.796875 23.046875 72.796875 
Q 26.765625 72.796875 31.25 71.921875 
L 29.9375 64.265625 
Q 27.203125 64.75 24.75 64.75 
Q 20.75 64.75 19.09375 63.03125 
Q 17.4375 61.328125 17.4375 56.640625 
L 17.4375 51.859375 
L 27.546875 51.859375 
L 27.546875 45.015625 
L 17.4375 45.015625 
L 17.4375 0 
z
" id="ArialMT-102"/>
      <path d="M 7.859375 0 
L 7.859375 71.578125 
L 39.59375 71.578125 
Q 49.171875 71.578125 54.140625 69.640625 
Q 59.125 67.71875 62.109375 62.828125 
Q 65.09375 57.953125 65.09375 52.046875 
Q 65.09375 44.4375 60.15625 39.203125 
Q 55.21875 33.984375 44.921875 32.5625 
Q 48.6875 30.765625 50.640625 29 
Q 54.78125 25.203125 58.5 19.484375 
L 70.953125 0 
L 59.03125 0 
L 49.5625 14.890625 
Q 45.40625 21.34375 42.71875 24.75 
Q 40.046875 28.171875 37.921875 29.53125 
Q 35.796875 30.90625 33.59375 31.453125 
Q 31.984375 31.78125 28.328125 31.78125 
L 17.328125 31.78125 
L 17.328125 0 
z
M 17.328125 39.984375 
L 37.703125 39.984375 
Q 44.1875 39.984375 47.84375 41.328125 
Q 51.515625 42.671875 53.421875 45.625 
Q 55.328125 48.578125 55.328125 52.046875 
Q 55.328125 57.125 51.640625 60.390625 
Q 47.953125 63.671875 39.984375 63.671875 
L 17.328125 63.671875 
z
" id="ArialMT-82"/>
      <path d="M 4.984375 -4.296875 
L 13.53125 -5.5625 
Q 14.0625 -9.515625 16.5 -11.328125 
Q 19.78125 -13.765625 25.4375 -13.765625 
Q 31.546875 -13.765625 34.859375 -11.328125 
Q 38.1875 -8.890625 39.359375 -4.5 
Q 40.046875 -1.8125 39.984375 6.78125 
Q 34.234375 0 25.640625 0 
Q 14.9375 0 9.078125 7.71875 
Q 3.21875 15.4375 3.21875 26.21875 
Q 3.21875 33.640625 5.90625 39.90625 
Q 8.59375 46.1875 13.6875 49.609375 
Q 18.796875 53.03125 25.6875 53.03125 
Q 34.859375 53.03125 40.828125 45.609375 
L 40.828125 51.859375 
L 48.921875 51.859375 
L 48.921875 7.03125 
Q 48.921875 -5.078125 46.453125 -10.125 
Q 44 -15.1875 38.640625 -18.109375 
Q 33.296875 -21.046875 25.484375 -21.046875 
Q 16.21875 -21.046875 10.5 -16.875 
Q 4.78125 -12.703125 4.984375 -4.296875 
z
M 12.25 26.859375 
Q 12.25 16.65625 16.296875 11.96875 
Q 20.359375 7.28125 26.46875 7.28125 
Q 32.515625 7.28125 36.609375 11.9375 
Q 40.71875 16.609375 40.71875 26.5625 
Q 40.71875 36.078125 36.5 40.90625 
Q 32.28125 45.75 26.3125 45.75 
Q 20.453125 45.75 16.34375 40.984375 
Q 12.25 36.234375 12.25 26.859375 
z
" id="ArialMT-103"/>
      <path d="M 3.078125 15.484375 
L 11.765625 16.84375 
Q 12.5 11.625 15.84375 8.84375 
Q 19.1875 6.0625 25.203125 6.0625 
Q 31.25 6.0625 34.171875 8.515625 
Q 37.109375 10.984375 37.109375 14.3125 
Q 37.109375 17.28125 34.515625 19 
Q 32.71875 20.171875 25.53125 21.96875 
Q 15.875 24.421875 12.140625 26.203125 
Q 8.40625 27.984375 6.46875 31.125 
Q 4.546875 34.28125 4.546875 38.09375 
Q 4.546875 41.546875 6.125 44.5 
Q 7.71875 47.46875 10.453125 49.421875 
Q 12.5 50.921875 16.03125 51.96875 
Q 19.578125 53.03125 23.640625 53.03125 
Q 29.734375 53.03125 34.34375 51.265625 
Q 38.96875 49.515625 41.15625 46.5 
Q 43.359375 43.5 44.1875 38.484375 
L 35.59375 37.3125 
Q 35.015625 41.3125 32.203125 43.546875 
Q 29.390625 45.796875 24.265625 45.796875 
Q 18.21875 45.796875 15.625 43.796875 
Q 13.03125 41.796875 13.03125 39.109375 
Q 13.03125 37.40625 14.109375 36.03125 
Q 15.1875 34.625 17.484375 33.6875 
Q 18.796875 33.203125 25.25 31.453125 
Q 34.578125 28.953125 38.25 27.359375 
Q 41.9375 25.78125 44.03125 22.75 
Q 46.140625 19.734375 46.140625 15.234375 
Q 46.140625 10.84375 43.578125 6.953125 
Q 41.015625 3.078125 36.171875 0.953125 
Q 31.34375 -1.171875 25.25 -1.171875 
Q 15.140625 -1.171875 9.84375 3.03125 
Q 4.546875 7.234375 3.078125 15.484375 
z
" id="ArialMT-115"/>
     </defs>
     <use xlink:href="#ArialMT-80"/>
     <use x="66.699219" xlink:href="#ArialMT-114"/>
     <use x="100" xlink:href="#ArialMT-101"/>
     <use x="155.615234" xlink:href="#ArialMT-100"/>
     <use x="211.230469" xlink:href="#ArialMT-105"/>
     <use x="233.447266" xlink:href="#ArialMT-116"/>
     <use x="261.230469" xlink:href="#ArialMT-105"/>
     <use x="283.447266" xlink:href="#ArialMT-111"/>
     <use x="339.0625" xlink:href="#ArialMT-110"/>
     <use x="394.677734" xlink:href="#ArialMT-32"/>
     <use x="422.460938" xlink:href="#ArialMT-69"/>
     <use x="489.160156" xlink:href="#ArialMT-114"/>
     <use x="522.460938" xlink:href="#ArialMT-114"/>
     <use x="555.761719" xlink:href="#ArialMT-111"/>
     <use x="611.376953" xlink:href="#ArialMT-114"/>
     <use x="644.677734" xlink:href="#ArialMT-32"/>
     <use x="672.460938" xlink:href="#ArialMT-102"/>
     <use x="700.244141" xlink:href="#ArialMT-111"/>
     <use x="755.859375" xlink:href="#ArialMT-114"/>
     <use x="789.160156" xlink:href="#ArialMT-32"/>
     <use x="816.943359" xlink:href="#ArialMT-82"/>
     <use x="889.160156" xlink:href="#ArialMT-105"/>
     <use x="911.376953" xlink:href="#ArialMT-100"/>
     <use x="966.992188" xlink:href="#ArialMT-103"/>
     <use x="1022.607422" xlink:href="#ArialMT-101"/>
     <use x="1078.222656" xlink:href="#ArialMT-32"/>
     <use x="1106.005859" xlink:href="#ArialMT-82"/>
     <use x="1178.222656" xlink:href="#ArialMT-101"/>
     <use x="1233.837891" xlink:href="#ArialMT-103"/>
     <use x="1289.453125" xlink:href="#ArialMT-114"/>
     <use x="1322.753906" xlink:href="#ArialMT-101"/>
     <use x="1378.369141" xlink:href="#ArialMT-115"/>
     <use x="1428.369141" xlink:href="#ArialMT-115"/>
     <use x="1478.369141" xlink:href="#ArialMT-105"/>
     <use x="1500.585938" xlink:href="#ArialMT-111"/>
     <use x="1556.201172" xlink:href="#ArialMT-110"/>
    </g>
   </g>
  </g>
 </g>
 <defs>
  <clipPath id="pe16b88fdbb">
   <rect height="298.98" width="446.4" x="72" y="47.52"/>
  </clipPath>
 </defs>
</svg>
