<?xml version="1.0" encoding="utf-8" standalone="no"?>
<!DOCTYPE svg PUBLIC "-//W3C//DTD SVG 1.1//EN"
  "http://www.w3.org/Graphics/SVG/1.1/DTD/svg11.dtd">
<!-- Created with matplotlib (https://matplotlib.org/) -->
<svg height="396pt" version="1.1" viewBox="0 0 576 396" width="576pt" xmlns="http://www.w3.org/2000/svg" xmlns:xlink="http://www.w3.org/1999/xlink">
 <metadata>
  <rdf:RDF xmlns:cc="http://creativecommons.org/ns#" xmlns:dc="http://purl.org/dc/elements/1.1/" xmlns:rdf="http://www.w3.org/1999/02/22-rdf-syntax-ns#">
   <cc:Work>
    <dc:type rdf:resource="http://purl.org/dc/dcmitype/StillImage"/>
    <dc:date>2021-01-21T19:00:22.258867</dc:date>
    <dc:format>image/svg+xml</dc:format>
    <dc:creator>
     <cc:Agent>
      <dc:title>Matplotlib v3.3.3, https://matplotlib.org/</dc:title>
     </cc:Agent>
    </dc:creator>
   </cc:Work>
  </rdf:RDF>
 </metadata>
 <defs>
  <style type="text/css">*{stroke-linecap:butt;stroke-linejoin:round;}</style>
 </defs>
 <g id="figure_1">
  <g id="patch_1">
   <path d="M 0 396 
L 576 396 
L 576 0 
L 0 0 
z
" style="fill:#ffffff;"/>
  </g>
  <g id="axes_1">
   <g id="patch_2">
    <path d="M 72 346.5 
L 518.4 346.5 
L 518.4 47.52 
L 72 47.52 
z
" style="fill:#ffffff;"/>
   </g>
   <g id="matplotlib.axis_1">
    <g id="xtick_1">
     <g id="line2d_1">
      <path clip-path="url(#p196434689d)" d="M 108 346.5 
L 108 47.52 
" style="fill:none;stroke:#cccccc;stroke-linecap:round;"/>
     </g>
     <g id="line2d_2"/>
     <g id="text_1">
      <!-- 3 -->
      <g style="fill:#262626;" transform="translate(105.219531 360.657812)scale(0.1 -0.1)">
       <defs>
        <path d="M 4.203125 18.890625 
L 12.984375 20.0625 
Q 14.5 12.59375 18.140625 9.296875 
Q 21.78125 6 27 6 
Q 33.203125 6 37.46875 10.296875 
Q 41.75 14.59375 41.75 20.953125 
Q 41.75 27 37.796875 30.921875 
Q 33.84375 34.859375 27.734375 34.859375 
Q 25.25 34.859375 21.53125 33.890625 
L 22.515625 41.609375 
Q 23.390625 41.5 23.921875 41.5 
Q 29.546875 41.5 34.03125 44.421875 
Q 38.53125 47.359375 38.53125 53.46875 
Q 38.53125 58.296875 35.25 61.46875 
Q 31.984375 64.65625 26.8125 64.65625 
Q 21.6875 64.65625 18.265625 61.421875 
Q 14.84375 58.203125 13.875 51.765625 
L 5.078125 53.328125 
Q 6.6875 62.15625 12.390625 67.015625 
Q 18.109375 71.875 26.609375 71.875 
Q 32.46875 71.875 37.390625 69.359375 
Q 42.328125 66.84375 44.9375 62.5 
Q 47.5625 58.15625 47.5625 53.265625 
Q 47.5625 48.640625 45.0625 44.828125 
Q 42.578125 41.015625 37.703125 38.765625 
Q 44.046875 37.3125 47.5625 32.6875 
Q 51.078125 28.078125 51.078125 21.140625 
Q 51.078125 11.765625 44.234375 5.25 
Q 37.40625 -1.265625 26.953125 -1.265625 
Q 17.53125 -1.265625 11.296875 4.34375 
Q 5.078125 9.96875 4.203125 18.890625 
z
" id="ArialMT-51"/>
       </defs>
       <use xlink:href="#ArialMT-51"/>
      </g>
     </g>
    </g>
    <g id="xtick_2">
     <g id="line2d_3">
      <path clip-path="url(#p196434689d)" d="M 180 346.5 
L 180 47.52 
" style="fill:none;stroke:#cccccc;stroke-linecap:round;"/>
     </g>
     <g id="line2d_4"/>
     <g id="text_2">
      <!-- 4 -->
      <g style="fill:#262626;" transform="translate(177.219531 360.657812)scale(0.1 -0.1)">
       <defs>
        <path d="M 32.328125 0 
L 32.328125 17.140625 
L 1.265625 17.140625 
L 1.265625 25.203125 
L 33.9375 71.578125 
L 41.109375 71.578125 
L 41.109375 25.203125 
L 50.78125 25.203125 
L 50.78125 17.140625 
L 41.109375 17.140625 
L 41.109375 0 
z
M 32.328125 25.203125 
L 32.328125 57.46875 
L 9.90625 25.203125 
z
" id="ArialMT-52"/>
       </defs>
       <use xlink:href="#ArialMT-52"/>
      </g>
     </g>
    </g>
    <g id="xtick_3">
     <g id="line2d_5">
      <path clip-path="url(#p196434689d)" d="M 252 346.5 
L 252 47.52 
" style="fill:none;stroke:#cccccc;stroke-linecap:round;"/>
     </g>
     <g id="line2d_6"/>
     <g id="text_3">
      <!-- 5 -->
      <g style="fill:#262626;" transform="translate(249.219531 360.657812)scale(0.1 -0.1)">
       <defs>
        <path d="M 4.15625 18.75 
L 13.375 19.53125 
Q 14.40625 12.796875 18.140625 9.390625 
Q 21.875 6 27.15625 6 
Q 33.5 6 37.890625 10.78125 
Q 42.28125 15.578125 42.28125 23.484375 
Q 42.28125 31 38.0625 35.34375 
Q 33.84375 39.703125 27 39.703125 
Q 22.75 39.703125 19.328125 37.765625 
Q 15.921875 35.84375 13.96875 32.765625 
L 5.71875 33.84375 
L 12.640625 70.609375 
L 48.25 70.609375 
L 48.25 62.203125 
L 19.671875 62.203125 
L 15.828125 42.96875 
Q 22.265625 47.46875 29.34375 47.46875 
Q 38.71875 47.46875 45.15625 40.96875 
Q 51.609375 34.46875 51.609375 24.265625 
Q 51.609375 14.546875 45.953125 7.46875 
Q 39.0625 -1.21875 27.15625 -1.21875 
Q 17.390625 -1.21875 11.203125 4.25 
Q 5.03125 9.71875 4.15625 18.75 
z
" id="ArialMT-53"/>
       </defs>
       <use xlink:href="#ArialMT-53"/>
      </g>
     </g>
    </g>
    <g id="xtick_4">
     <g id="line2d_7">
      <path clip-path="url(#p196434689d)" d="M 324 346.5 
L 324 47.52 
" style="fill:none;stroke:#cccccc;stroke-linecap:round;"/>
     </g>
     <g id="line2d_8"/>
     <g id="text_4">
      <!-- 6 -->
      <g style="fill:#262626;" transform="translate(321.219531 360.657812)scale(0.1 -0.1)">
       <defs>
        <path d="M 49.75 54.046875 
L 41.015625 53.375 
Q 39.84375 58.546875 37.703125 60.890625 
Q 34.125 64.65625 28.90625 64.65625 
Q 24.703125 64.65625 21.53125 62.3125 
Q 17.390625 59.28125 14.984375 53.46875 
Q 12.59375 47.65625 12.5 36.921875 
Q 15.671875 41.75 20.265625 44.09375 
Q 24.859375 46.4375 29.890625 46.4375 
Q 38.671875 46.4375 44.84375 39.96875 
Q 51.03125 33.5 51.03125 23.25 
Q 51.03125 16.5 48.125 10.71875 
Q 45.21875 4.9375 40.140625 1.859375 
Q 35.0625 -1.21875 28.609375 -1.21875 
Q 17.625 -1.21875 10.6875 6.859375 
Q 3.765625 14.9375 3.765625 33.5 
Q 3.765625 54.25 11.421875 63.671875 
Q 18.109375 71.875 29.4375 71.875 
Q 37.890625 71.875 43.28125 67.140625 
Q 48.6875 62.40625 49.75 54.046875 
z
M 13.875 23.1875 
Q 13.875 18.65625 15.796875 14.5 
Q 17.71875 10.359375 21.1875 8.171875 
Q 24.65625 6 28.46875 6 
Q 34.03125 6 38.03125 10.484375 
Q 42.046875 14.984375 42.046875 22.703125 
Q 42.046875 30.125 38.078125 34.390625 
Q 34.125 38.671875 28.125 38.671875 
Q 22.171875 38.671875 18.015625 34.390625 
Q 13.875 30.125 13.875 23.1875 
z
" id="ArialMT-54"/>
       </defs>
       <use xlink:href="#ArialMT-54"/>
      </g>
     </g>
    </g>
    <g id="xtick_5">
     <g id="line2d_9">
      <path clip-path="url(#p196434689d)" d="M 396 346.5 
L 396 47.52 
" style="fill:none;stroke:#cccccc;stroke-linecap:round;"/>
     </g>
     <g id="line2d_10"/>
     <g id="text_5">
      <!-- 7 -->
      <g style="fill:#262626;" transform="translate(393.219531 360.657812)scale(0.1 -0.1)">
       <defs>
        <path d="M 4.734375 62.203125 
L 4.734375 70.65625 
L 51.078125 70.65625 
L 51.078125 63.8125 
Q 44.234375 56.546875 37.515625 44.484375 
Q 30.8125 32.421875 27.15625 19.671875 
Q 24.515625 10.6875 23.78125 0 
L 14.75 0 
Q 14.890625 8.453125 18.0625 20.40625 
Q 21.234375 32.375 27.171875 43.484375 
Q 33.109375 54.59375 39.796875 62.203125 
z
" id="ArialMT-55"/>
       </defs>
       <use xlink:href="#ArialMT-55"/>
      </g>
     </g>
    </g>
    <g id="xtick_6">
     <g id="line2d_11">
      <path clip-path="url(#p196434689d)" d="M 468 346.5 
L 468 47.52 
" style="fill:none;stroke:#cccccc;stroke-linecap:round;"/>
     </g>
     <g id="line2d_12"/>
     <g id="text_6">
      <!-- 8 -->
      <g style="fill:#262626;" transform="translate(465.219531 360.657812)scale(0.1 -0.1)">
       <defs>
        <path d="M 17.671875 38.8125 
Q 12.203125 40.828125 9.5625 44.53125 
Q 6.9375 48.25 6.9375 53.421875 
Q 6.9375 61.234375 12.546875 66.546875 
Q 18.171875 71.875 27.484375 71.875 
Q 36.859375 71.875 42.578125 66.421875 
Q 48.296875 60.984375 48.296875 53.171875 
Q 48.296875 48.1875 45.671875 44.5 
Q 43.0625 40.828125 37.75 38.8125 
Q 44.34375 36.671875 47.78125 31.875 
Q 51.21875 27.09375 51.21875 20.453125 
Q 51.21875 11.28125 44.71875 5.03125 
Q 38.234375 -1.21875 27.640625 -1.21875 
Q 17.046875 -1.21875 10.546875 5.046875 
Q 4.046875 11.328125 4.046875 20.703125 
Q 4.046875 27.6875 7.59375 32.390625 
Q 11.140625 37.109375 17.671875 38.8125 
z
M 15.921875 53.71875 
Q 15.921875 48.640625 19.1875 45.40625 
Q 22.46875 42.1875 27.6875 42.1875 
Q 32.765625 42.1875 36.015625 45.375 
Q 39.265625 48.578125 39.265625 53.21875 
Q 39.265625 58.0625 35.90625 61.359375 
Q 32.5625 64.65625 27.59375 64.65625 
Q 22.5625 64.65625 19.234375 61.421875 
Q 15.921875 58.203125 15.921875 53.71875 
z
M 13.09375 20.65625 
Q 13.09375 16.890625 14.875 13.375 
Q 16.65625 9.859375 20.171875 7.921875 
Q 23.6875 6 27.734375 6 
Q 34.03125 6 38.125 10.046875 
Q 42.234375 14.109375 42.234375 20.359375 
Q 42.234375 26.703125 38.015625 30.859375 
Q 33.796875 35.015625 27.4375 35.015625 
Q 21.234375 35.015625 17.15625 30.90625 
Q 13.09375 26.8125 13.09375 20.65625 
z
" id="ArialMT-56"/>
       </defs>
       <use xlink:href="#ArialMT-56"/>
      </g>
     </g>
    </g>
   </g>
   <g id="matplotlib.axis_2">
    <g id="ytick_1">
     <g id="line2d_13">
      <path clip-path="url(#p196434689d)" d="M 72 322.065254 
L 518.4 322.065254 
" style="fill:none;stroke:#cccccc;stroke-linecap:round;"/>
     </g>
     <g id="line2d_14"/>
     <g id="text_7">
      <!-- 4.5 -->
      <g style="fill:#262626;" transform="translate(51.1 325.64416)scale(0.1 -0.1)">
       <defs>
        <path d="M 9.078125 0 
L 9.078125 10.015625 
L 19.09375 10.015625 
L 19.09375 0 
z
" id="ArialMT-46"/>
       </defs>
       <use xlink:href="#ArialMT-52"/>
       <use x="55.615234" xlink:href="#ArialMT-46"/>
       <use x="83.398438" xlink:href="#ArialMT-53"/>
      </g>
     </g>
    </g>
    <g id="ytick_2">
     <g id="line2d_15">
      <path clip-path="url(#p196434689d)" d="M 72 285.551895 
L 518.4 285.551895 
" style="fill:none;stroke:#cccccc;stroke-linecap:round;"/>
     </g>
     <g id="line2d_16"/>
     <g id="text_8">
      <!-- 5.0 -->
      <g style="fill:#262626;" transform="translate(51.1 289.130802)scale(0.1 -0.1)">
       <defs>
        <path d="M 4.15625 35.296875 
Q 4.15625 48 6.765625 55.734375 
Q 9.375 63.484375 14.515625 67.671875 
Q 19.671875 71.875 27.484375 71.875 
Q 33.25 71.875 37.59375 69.546875 
Q 41.9375 67.234375 44.765625 62.859375 
Q 47.609375 58.5 49.21875 52.21875 
Q 50.828125 45.953125 50.828125 35.296875 
Q 50.828125 22.703125 48.234375 14.96875 
Q 45.65625 7.234375 40.5 3 
Q 35.359375 -1.21875 27.484375 -1.21875 
Q 17.140625 -1.21875 11.234375 6.203125 
Q 4.15625 15.140625 4.15625 35.296875 
z
M 13.1875 35.296875 
Q 13.1875 17.671875 17.3125 11.828125 
Q 21.4375 6 27.484375 6 
Q 33.546875 6 37.671875 11.859375 
Q 41.796875 17.71875 41.796875 35.296875 
Q 41.796875 52.984375 37.671875 58.78125 
Q 33.546875 64.59375 27.390625 64.59375 
Q 21.34375 64.59375 17.71875 59.46875 
Q 13.1875 52.9375 13.1875 35.296875 
z
" id="ArialMT-48"/>
       </defs>
       <use xlink:href="#ArialMT-53"/>
       <use x="55.615234" xlink:href="#ArialMT-46"/>
       <use x="83.398438" xlink:href="#ArialMT-48"/>
      </g>
     </g>
    </g>
    <g id="ytick_3">
     <g id="line2d_17">
      <path clip-path="url(#p196434689d)" d="M 72 249.038537 
L 518.4 249.038537 
" style="fill:none;stroke:#cccccc;stroke-linecap:round;"/>
     </g>
     <g id="line2d_18"/>
     <g id="text_9">
      <!-- 5.5 -->
      <g style="fill:#262626;" transform="translate(51.1 252.617443)scale(0.1 -0.1)">
       <use xlink:href="#ArialMT-53"/>
       <use x="55.615234" xlink:href="#ArialMT-46"/>
       <use x="83.398438" xlink:href="#ArialMT-53"/>
      </g>
     </g>
    </g>
    <g id="ytick_4">
     <g id="line2d_19">
      <path clip-path="url(#p196434689d)" d="M 72 212.525178 
L 518.4 212.525178 
" style="fill:none;stroke:#cccccc;stroke-linecap:round;"/>
     </g>
     <g id="line2d_20"/>
     <g id="text_10">
      <!-- 6.0 -->
      <g style="fill:#262626;" transform="translate(51.1 216.104085)scale(0.1 -0.1)">
       <use xlink:href="#ArialMT-54"/>
       <use x="55.615234" xlink:href="#ArialMT-46"/>
       <use x="83.398438" xlink:href="#ArialMT-48"/>
      </g>
     </g>
    </g>
    <g id="ytick_5">
     <g id="line2d_21">
      <path clip-path="url(#p196434689d)" d="M 72 176.01182 
L 518.4 176.01182 
" style="fill:none;stroke:#cccccc;stroke-linecap:round;"/>
     </g>
     <g id="line2d_22"/>
     <g id="text_11">
      <!-- 6.5 -->
      <g style="fill:#262626;" transform="translate(51.1 179.590726)scale(0.1 -0.1)">
       <use xlink:href="#ArialMT-54"/>
       <use x="55.615234" xlink:href="#ArialMT-46"/>
       <use x="83.398438" xlink:href="#ArialMT-53"/>
      </g>
     </g>
    </g>
    <g id="ytick_6">
     <g id="line2d_23">
      <path clip-path="url(#p196434689d)" d="M 72 139.498461 
L 518.4 139.498461 
" style="fill:none;stroke:#cccccc;stroke-linecap:round;"/>
     </g>
     <g id="line2d_24"/>
     <g id="text_12">
      <!-- 7.0 -->
      <g style="fill:#262626;" transform="translate(51.1 143.077367)scale(0.1 -0.1)">
       <use xlink:href="#ArialMT-55"/>
       <use x="55.615234" xlink:href="#ArialMT-46"/>
       <use x="83.398438" xlink:href="#ArialMT-48"/>
      </g>
     </g>
    </g>
    <g id="ytick_7">
     <g id="line2d_25">
      <path clip-path="url(#p196434689d)" d="M 72 102.985103 
L 518.4 102.985103 
" style="fill:none;stroke:#cccccc;stroke-linecap:round;"/>
     </g>
     <g id="line2d_26"/>
     <g id="text_13">
      <!-- 7.5 -->
      <g style="fill:#262626;" transform="translate(51.1 106.564009)scale(0.1 -0.1)">
       <use xlink:href="#ArialMT-55"/>
       <use x="55.615234" xlink:href="#ArialMT-46"/>
       <use x="83.398438" xlink:href="#ArialMT-53"/>
      </g>
     </g>
    </g>
    <g id="ytick_8">
     <g id="line2d_27">
      <path clip-path="url(#p196434689d)" d="M 72 66.471744 
L 518.4 66.471744 
" style="fill:none;stroke:#cccccc;stroke-linecap:round;"/>
     </g>
     <g id="line2d_28"/>
     <g id="text_14">
      <!-- 8.0 -->
      <g style="fill:#262626;" transform="translate(51.1 70.05065)scale(0.1 -0.1)">
       <use xlink:href="#ArialMT-56"/>
       <use x="55.615234" xlink:href="#ArialMT-46"/>
       <use x="83.398438" xlink:href="#ArialMT-48"/>
      </g>
     </g>
    </g>
   </g>
   <g id="PathCollection_1">
    <defs>
     <path d="M 0 3.5 
C 0.928211 3.5 1.81853 3.131218 2.474874 2.474874 
C 3.131218 1.81853 3.5 0.928211 3.5 0 
C 3.5 -0.928211 3.131218 -1.81853 2.474874 -2.474874 
C 1.81853 -3.131218 0.928211 -3.5 0 -3.5 
C -0.928211 -3.5 -1.81853 -3.131218 -2.474874 -2.474874 
C -3.131218 -1.81853 -3.5 -0.928211 -3.5 0 
C -3.5 0.928211 -3.131218 1.81853 -2.474874 2.474874 
C -1.81853 3.131218 -0.928211 3.5 0 3.5 
z
" id="mc113dc8c64" style="stroke:#0272a2;stroke-opacity:0.75;stroke-width:0.3;"/>
    </defs>
    <g clip-path="url(#p196434689d)">
     <use style="fill:#0272a2;fill-opacity:0.75;stroke:#0272a2;stroke-opacity:0.75;stroke-width:0.3;" x="266.4" xlink:href="#mc113dc8c64" y="220.224182"/>
     <use style="fill:#0272a2;fill-opacity:0.75;stroke:#0272a2;stroke-opacity:0.75;stroke-width:0.3;" x="360" xlink:href="#mc113dc8c64" y="172.200448"/>
     <use style="fill:#0272a2;fill-opacity:0.75;stroke:#0272a2;stroke-opacity:0.75;stroke-width:0.3;" x="302.4" xlink:href="#mc113dc8c64" y="193.351474"/>
     <use style="fill:#0272a2;fill-opacity:0.75;stroke:#0272a2;stroke-opacity:0.75;stroke-width:0.3;" x="352.8" xlink:href="#mc113dc8c64" y="207.929471"/>
     <use style="fill:#0272a2;fill-opacity:0.75;stroke:#0272a2;stroke-opacity:0.75;stroke-width:0.3;" x="338.4" xlink:href="#mc113dc8c64" y="200.282475"/>
     <use style="fill:#0272a2;fill-opacity:0.75;stroke:#0272a2;stroke-opacity:0.75;stroke-width:0.3;" x="352.8" xlink:href="#mc113dc8c64" y="206.092975"/>
     <use style="fill:#0272a2;fill-opacity:0.75;stroke:#0272a2;stroke-opacity:0.75;stroke-width:0.3;" x="367.2" xlink:href="#mc113dc8c64" y="157.008114"/>
     <use style="fill:#0272a2;fill-opacity:0.75;stroke:#0272a2;stroke-opacity:0.75;stroke-width:0.3;" x="266.4" xlink:href="#mc113dc8c64" y="237.999032"/>
     <use style="fill:#0272a2;fill-opacity:0.75;stroke:#0272a2;stroke-opacity:0.75;stroke-width:0.3;" x="280.8" xlink:href="#mc113dc8c64" y="247.110023"/>
     <use style="fill:#0272a2;fill-opacity:0.75;stroke:#0272a2;stroke-opacity:0.75;stroke-width:0.3;" x="432" xlink:href="#mc113dc8c64" y="125.191754"/>
     <use style="fill:#0272a2;fill-opacity:0.75;stroke:#0272a2;stroke-opacity:0.75;stroke-width:0.3;" x="252" xlink:href="#mc113dc8c64" y="243.961151"/>
     <use style="fill:#0272a2;fill-opacity:0.75;stroke:#0272a2;stroke-opacity:0.75;stroke-width:0.3;" x="273.6" xlink:href="#mc113dc8c64" y="249.699842"/>
     <use style="fill:#0272a2;fill-opacity:0.75;stroke:#0272a2;stroke-opacity:0.75;stroke-width:0.3;" x="288" xlink:href="#mc113dc8c64" y="266.217251"/>
     <use style="fill:#0272a2;fill-opacity:0.75;stroke:#0272a2;stroke-opacity:0.75;stroke-width:0.3;" x="381.6" xlink:href="#mc113dc8c64" y="224.563473"/>
     <use style="fill:#0272a2;fill-opacity:0.75;stroke:#0272a2;stroke-opacity:0.75;stroke-width:0.3;" x="252" xlink:href="#mc113dc8c64" y="226.580553"/>
     <use style="fill:#0272a2;fill-opacity:0.75;stroke:#0272a2;stroke-opacity:0.75;stroke-width:0.3;" x="144" xlink:href="#mc113dc8c64" y="253.980149"/>
     <use style="fill:#0272a2;fill-opacity:0.75;stroke:#0272a2;stroke-opacity:0.75;stroke-width:0.3;" x="352.8" xlink:href="#mc113dc8c64" y="192.609835"/>
     <use style="fill:#0272a2;fill-opacity:0.75;stroke:#0272a2;stroke-opacity:0.75;stroke-width:0.3;" x="331.2" xlink:href="#mc113dc8c64" y="215.542522"/>
     <use style="fill:#0272a2;fill-opacity:0.75;stroke:#0272a2;stroke-opacity:0.75;stroke-width:0.3;" x="266.4" xlink:href="#mc113dc8c64" y="204.550672"/>
     <use style="fill:#0272a2;fill-opacity:0.75;stroke:#0272a2;stroke-opacity:0.75;stroke-width:0.3;" x="302.4" xlink:href="#mc113dc8c64" y="206.235019"/>
     <use style="fill:#0272a2;fill-opacity:0.75;stroke:#0272a2;stroke-opacity:0.75;stroke-width:0.3;" x="273.6" xlink:href="#mc113dc8c64" y="273.473283"/>
     <use style="fill:#0272a2;fill-opacity:0.75;stroke:#0272a2;stroke-opacity:0.75;stroke-width:0.3;" x="223.2" xlink:href="#mc113dc8c64" y="218.235082"/>
     <use style="fill:#0272a2;fill-opacity:0.75;stroke:#0272a2;stroke-opacity:0.75;stroke-width:0.3;" x="417.6" xlink:href="#mc113dc8c64" y="157.257466"/>
     <use style="fill:#0272a2;fill-opacity:0.75;stroke:#0272a2;stroke-opacity:0.75;stroke-width:0.3;" x="388.8" xlink:href="#mc113dc8c64" y="216.103454"/>
     <use style="fill:#0272a2;fill-opacity:0.75;stroke:#0272a2;stroke-opacity:0.75;stroke-width:0.3;" x="352.8" xlink:href="#mc113dc8c64" y="197.384727"/>
     <use style="fill:#0272a2;fill-opacity:0.75;stroke:#0272a2;stroke-opacity:0.75;stroke-width:0.3;" x="345.6" xlink:href="#mc113dc8c64" y="181.914751"/>
     <use style="fill:#0272a2;fill-opacity:0.75;stroke:#0272a2;stroke-opacity:0.75;stroke-width:0.3;" x="280.8" xlink:href="#mc113dc8c64" y="235.918491"/>
     <use style="fill:#0272a2;fill-opacity:0.75;stroke:#0272a2;stroke-opacity:0.75;stroke-width:0.3;" x="266.4" xlink:href="#mc113dc8c64" y="178.821472"/>
     <use style="fill:#0272a2;fill-opacity:0.75;stroke:#0272a2;stroke-opacity:0.75;stroke-width:0.3;" x="302.4" xlink:href="#mc113dc8c64" y="211.351577"/>
     <use style="fill:#0272a2;fill-opacity:0.75;stroke:#0272a2;stroke-opacity:0.75;stroke-width:0.3;" x="352.8" xlink:href="#mc113dc8c64" y="206.541464"/>
     <use style="fill:#0272a2;fill-opacity:0.75;stroke:#0272a2;stroke-opacity:0.75;stroke-width:0.3;" x="374.4" xlink:href="#mc113dc8c64" y="120.574014"/>
     <use style="fill:#0272a2;fill-opacity:0.75;stroke:#0272a2;stroke-opacity:0.75;stroke-width:0.3;" x="280.8" xlink:href="#mc113dc8c64" y="235.217422"/>
     <use style="fill:#0272a2;fill-opacity:0.75;stroke:#0272a2;stroke-opacity:0.75;stroke-width:0.3;" x="410.4" xlink:href="#mc113dc8c64" y="180.311393"/>
     <use style="fill:#0272a2;fill-opacity:0.75;stroke:#0272a2;stroke-opacity:0.75;stroke-width:0.3;" x="295.2" xlink:href="#mc113dc8c64" y="237.289099"/>
     <use style="fill:#0272a2;fill-opacity:0.75;stroke:#0272a2;stroke-opacity:0.75;stroke-width:0.3;" x="367.2" xlink:href="#mc113dc8c64" y="204.721569"/>
     <use style="fill:#0272a2;fill-opacity:0.75;stroke:#0272a2;stroke-opacity:0.75;stroke-width:0.3;" x="324" xlink:href="#mc113dc8c64" y="218.644483"/>
     <use style="fill:#0272a2;fill-opacity:0.75;stroke:#0272a2;stroke-opacity:0.75;stroke-width:0.3;" x="324" xlink:href="#mc113dc8c64" y="206.854049"/>
     <use style="fill:#0272a2;fill-opacity:0.75;stroke:#0272a2;stroke-opacity:0.75;stroke-width:0.3;" x="237.6" xlink:href="#mc113dc8c64" y="237.833433"/>
     <use style="fill:#0272a2;fill-opacity:0.75;stroke:#0272a2;stroke-opacity:0.75;stroke-width:0.3;" x="244.8" xlink:href="#mc113dc8c64" y="223.00141"/>
     <use style="fill:#0272a2;fill-opacity:0.75;stroke:#0272a2;stroke-opacity:0.75;stroke-width:0.3;" x="295.2" xlink:href="#mc113dc8c64" y="256.851815"/>
     <use style="fill:#0272a2;fill-opacity:0.75;stroke:#0272a2;stroke-opacity:0.75;stroke-width:0.3;" x="324" xlink:href="#mc113dc8c64" y="224.65849"/>
     <use style="fill:#0272a2;fill-opacity:0.75;stroke:#0272a2;stroke-opacity:0.75;stroke-width:0.3;" x="324" xlink:href="#mc113dc8c64" y="182.157516"/>
     <use style="fill:#0272a2;fill-opacity:0.75;stroke:#0272a2;stroke-opacity:0.75;stroke-width:0.3;" x="316.8" xlink:href="#mc113dc8c64" y="188.086717"/>
     <use style="fill:#0272a2;fill-opacity:0.75;stroke:#0272a2;stroke-opacity:0.75;stroke-width:0.3;" x="266.4" xlink:href="#mc113dc8c64" y="231.629662"/>
     <use style="fill:#0272a2;fill-opacity:0.75;stroke:#0272a2;stroke-opacity:0.75;stroke-width:0.3;" x="374.4" xlink:href="#mc113dc8c64" y="194.375655"/>
     <use style="fill:#0272a2;fill-opacity:0.75;stroke:#0272a2;stroke-opacity:0.75;stroke-width:0.3;" x="388.8" xlink:href="#mc113dc8c64" y="237.499937"/>
     <use style="fill:#0272a2;fill-opacity:0.75;stroke:#0272a2;stroke-opacity:0.75;stroke-width:0.3;" x="345.6" xlink:href="#mc113dc8c64" y="240.296733"/>
     <use style="fill:#0272a2;fill-opacity:0.75;stroke:#0272a2;stroke-opacity:0.75;stroke-width:0.3;" x="273.6" xlink:href="#mc113dc8c64" y="198.176335"/>
     <use style="fill:#0272a2;fill-opacity:0.75;stroke:#0272a2;stroke-opacity:0.75;stroke-width:0.3;" x="345.6" xlink:href="#mc113dc8c64" y="222.787778"/>
     <use style="fill:#0272a2;fill-opacity:0.75;stroke:#0272a2;stroke-opacity:0.75;stroke-width:0.3;" x="324" xlink:href="#mc113dc8c64" y="246.918037"/>
     <use style="fill:#0272a2;fill-opacity:0.75;stroke:#0272a2;stroke-opacity:0.75;stroke-width:0.3;" x="252" xlink:href="#mc113dc8c64" y="181.899994"/>
     <use style="fill:#0272a2;fill-opacity:0.75;stroke:#0272a2;stroke-opacity:0.75;stroke-width:0.3;" x="295.2" xlink:href="#mc113dc8c64" y="241.412408"/>
     <use style="fill:#0272a2;fill-opacity:0.75;stroke:#0272a2;stroke-opacity:0.75;stroke-width:0.3;" x="388.8" xlink:href="#mc113dc8c64" y="192.345817"/>
     <use style="fill:#0272a2;fill-opacity:0.75;stroke:#0272a2;stroke-opacity:0.75;stroke-width:0.3;" x="266.4" xlink:href="#mc113dc8c64" y="250.526524"/>
     <use style="fill:#0272a2;fill-opacity:0.75;stroke:#0272a2;stroke-opacity:0.75;stroke-width:0.3;" x="396" xlink:href="#mc113dc8c64" y="187.770744"/>
     <use style="fill:#0272a2;fill-opacity:0.75;stroke:#0272a2;stroke-opacity:0.75;stroke-width:0.3;" x="446.4" xlink:href="#mc113dc8c64" y="141.977875"/>
     <use style="fill:#0272a2;fill-opacity:0.75;stroke:#0272a2;stroke-opacity:0.75;stroke-width:0.3;" x="374.4" xlink:href="#mc113dc8c64" y="224.931082"/>
     <use style="fill:#0272a2;fill-opacity:0.75;stroke:#0272a2;stroke-opacity:0.75;stroke-width:0.3;" x="338.4" xlink:href="#mc113dc8c64" y="173.997729"/>
     <use style="fill:#0272a2;fill-opacity:0.75;stroke:#0272a2;stroke-opacity:0.75;stroke-width:0.3;" x="360" xlink:href="#mc113dc8c64" y="198.773881"/>
     <use style="fill:#0272a2;fill-opacity:0.75;stroke:#0272a2;stroke-opacity:0.75;stroke-width:0.3;" x="367.2" xlink:href="#mc113dc8c64" y="162.1315"/>
     <use style="fill:#0272a2;fill-opacity:0.75;stroke:#0272a2;stroke-opacity:0.75;stroke-width:0.3;" x="331.2" xlink:href="#mc113dc8c64" y="217.659592"/>
     <use style="fill:#0272a2;fill-opacity:0.75;stroke:#0272a2;stroke-opacity:0.75;stroke-width:0.3;" x="338.4" xlink:href="#mc113dc8c64" y="153.729758"/>
     <use style="fill:#0272a2;fill-opacity:0.75;stroke:#0272a2;stroke-opacity:0.75;stroke-width:0.3;" x="352.8" xlink:href="#mc113dc8c64" y="210.873317"/>
     <use style="fill:#0272a2;fill-opacity:0.75;stroke:#0272a2;stroke-opacity:0.75;stroke-width:0.3;" x="280.8" xlink:href="#mc113dc8c64" y="228.435599"/>
     <use style="fill:#0272a2;fill-opacity:0.75;stroke:#0272a2;stroke-opacity:0.75;stroke-width:0.3;" x="316.8" xlink:href="#mc113dc8c64" y="206.401493"/>
     <use style="fill:#0272a2;fill-opacity:0.75;stroke:#0272a2;stroke-opacity:0.75;stroke-width:0.3;" x="352.8" xlink:href="#mc113dc8c64" y="225.847166"/>
     <use style="fill:#0272a2;fill-opacity:0.75;stroke:#0272a2;stroke-opacity:0.75;stroke-width:0.3;" x="331.2" xlink:href="#mc113dc8c64" y="214.81614"/>
     <use style="fill:#0272a2;fill-opacity:0.75;stroke:#0272a2;stroke-opacity:0.75;stroke-width:0.3;" x="288" xlink:href="#mc113dc8c64" y="240.152975"/>
     <use style="fill:#0272a2;fill-opacity:0.75;stroke:#0272a2;stroke-opacity:0.75;stroke-width:0.3;" x="424.8" xlink:href="#mc113dc8c64" y="168.087521"/>
     <use style="fill:#0272a2;fill-opacity:0.75;stroke:#0272a2;stroke-opacity:0.75;stroke-width:0.3;" x="338.4" xlink:href="#mc113dc8c64" y="249.819659"/>
     <use style="fill:#0272a2;fill-opacity:0.75;stroke:#0272a2;stroke-opacity:0.75;stroke-width:0.3;" x="324" xlink:href="#mc113dc8c64" y="247.448041"/>
     <use style="fill:#0272a2;fill-opacity:0.75;stroke:#0272a2;stroke-opacity:0.75;stroke-width:0.3;" x="381.6" xlink:href="#mc113dc8c64" y="139.746886"/>
     <use style="fill:#0272a2;fill-opacity:0.75;stroke:#0272a2;stroke-opacity:0.75;stroke-width:0.3;" x="338.4" xlink:href="#mc113dc8c64" y="216.787715"/>
     <use style="fill:#0272a2;fill-opacity:0.75;stroke:#0272a2;stroke-opacity:0.75;stroke-width:0.3;" x="230.4" xlink:href="#mc113dc8c64" y="244.504996"/>
     <use style="fill:#0272a2;fill-opacity:0.75;stroke:#0272a2;stroke-opacity:0.75;stroke-width:0.3;" x="230.4" xlink:href="#mc113dc8c64" y="191.69264"/>
     <use style="fill:#0272a2;fill-opacity:0.75;stroke:#0272a2;stroke-opacity:0.75;stroke-width:0.3;" x="324" xlink:href="#mc113dc8c64" y="204.397615"/>
     <use style="fill:#0272a2;fill-opacity:0.75;stroke:#0272a2;stroke-opacity:0.75;stroke-width:0.3;" x="302.4" xlink:href="#mc113dc8c64" y="224.131094"/>
     <use style="fill:#0272a2;fill-opacity:0.75;stroke:#0272a2;stroke-opacity:0.75;stroke-width:0.3;" x="208.8" xlink:href="#mc113dc8c64" y="199.810403"/>
     <use style="fill:#0272a2;fill-opacity:0.75;stroke:#0272a2;stroke-opacity:0.75;stroke-width:0.3;" x="374.4" xlink:href="#mc113dc8c64" y="165.416234"/>
     <use style="fill:#0272a2;fill-opacity:0.75;stroke:#0272a2;stroke-opacity:0.75;stroke-width:0.3;" x="316.8" xlink:href="#mc113dc8c64" y="232.411045"/>
     <use style="fill:#0272a2;fill-opacity:0.75;stroke:#0272a2;stroke-opacity:0.75;stroke-width:0.3;" x="252" xlink:href="#mc113dc8c64" y="190.042139"/>
     <use style="fill:#0272a2;fill-opacity:0.75;stroke:#0272a2;stroke-opacity:0.75;stroke-width:0.3;" x="288" xlink:href="#mc113dc8c64" y="223.957664"/>
     <use style="fill:#0272a2;fill-opacity:0.75;stroke:#0272a2;stroke-opacity:0.75;stroke-width:0.3;" x="331.2" xlink:href="#mc113dc8c64" y="141.129361"/>
     <use style="fill:#0272a2;fill-opacity:0.75;stroke:#0272a2;stroke-opacity:0.75;stroke-width:0.3;" x="201.6" xlink:href="#mc113dc8c64" y="250.560801"/>
     <use style="fill:#0272a2;fill-opacity:0.75;stroke:#0272a2;stroke-opacity:0.75;stroke-width:0.3;" x="316.8" xlink:href="#mc113dc8c64" y="191.220065"/>
     <use style="fill:#0272a2;fill-opacity:0.75;stroke:#0272a2;stroke-opacity:0.75;stroke-width:0.3;" x="381.6" xlink:href="#mc113dc8c64" y="168.602481"/>
     <use style="fill:#0272a2;fill-opacity:0.75;stroke:#0272a2;stroke-opacity:0.75;stroke-width:0.3;" x="345.6" xlink:href="#mc113dc8c64" y="189.979898"/>
     <use style="fill:#0272a2;fill-opacity:0.75;stroke:#0272a2;stroke-opacity:0.75;stroke-width:0.3;" x="280.8" xlink:href="#mc113dc8c64" y="260.785829"/>
     <use style="fill:#0272a2;fill-opacity:0.75;stroke:#0272a2;stroke-opacity:0.75;stroke-width:0.3;" x="345.6" xlink:href="#mc113dc8c64" y="229.375991"/>
     <use style="fill:#0272a2;fill-opacity:0.75;stroke:#0272a2;stroke-opacity:0.75;stroke-width:0.3;" x="252" xlink:href="#mc113dc8c64" y="241.768799"/>
     <use style="fill:#0272a2;fill-opacity:0.75;stroke:#0272a2;stroke-opacity:0.75;stroke-width:0.3;" x="331.2" xlink:href="#mc113dc8c64" y="163.57135"/>
     <use style="fill:#0272a2;fill-opacity:0.75;stroke:#0272a2;stroke-opacity:0.75;stroke-width:0.3;" x="295.2" xlink:href="#mc113dc8c64" y="184.813984"/>
     <use style="fill:#0272a2;fill-opacity:0.75;stroke:#0272a2;stroke-opacity:0.75;stroke-width:0.3;" x="295.2" xlink:href="#mc113dc8c64" y="216.758475"/>
     <use style="fill:#0272a2;fill-opacity:0.75;stroke:#0272a2;stroke-opacity:0.75;stroke-width:0.3;" x="331.2" xlink:href="#mc113dc8c64" y="209.302857"/>
     <use style="fill:#0272a2;fill-opacity:0.75;stroke:#0272a2;stroke-opacity:0.75;stroke-width:0.3;" x="266.4" xlink:href="#mc113dc8c64" y="230.248286"/>
     <use style="fill:#0272a2;fill-opacity:0.75;stroke:#0272a2;stroke-opacity:0.75;stroke-width:0.3;" x="410.4" xlink:href="#mc113dc8c64" y="188.536842"/>
     <use style="fill:#0272a2;fill-opacity:0.75;stroke:#0272a2;stroke-opacity:0.75;stroke-width:0.3;" x="309.6" xlink:href="#mc113dc8c64" y="207.42512"/>
     <use style="fill:#0272a2;fill-opacity:0.75;stroke:#0272a2;stroke-opacity:0.75;stroke-width:0.3;" x="302.4" xlink:href="#mc113dc8c64" y="205.320816"/>
     <use style="fill:#0272a2;fill-opacity:0.75;stroke:#0272a2;stroke-opacity:0.75;stroke-width:0.3;" x="208.8" xlink:href="#mc113dc8c64" y="229.725942"/>
     <use style="fill:#0272a2;fill-opacity:0.75;stroke:#0272a2;stroke-opacity:0.75;stroke-width:0.3;" x="266.4" xlink:href="#mc113dc8c64" y="248.178318"/>
     <use style="fill:#0272a2;fill-opacity:0.75;stroke:#0272a2;stroke-opacity:0.75;stroke-width:0.3;" x="252" xlink:href="#mc113dc8c64" y="256.299581"/>
     <use style="fill:#0272a2;fill-opacity:0.75;stroke:#0272a2;stroke-opacity:0.75;stroke-width:0.3;" x="165.6" xlink:href="#mc113dc8c64" y="254.844448"/>
     <use style="fill:#0272a2;fill-opacity:0.75;stroke:#0272a2;stroke-opacity:0.75;stroke-width:0.3;" x="331.2" xlink:href="#mc113dc8c64" y="164.499673"/>
     <use style="fill:#0272a2;fill-opacity:0.75;stroke:#0272a2;stroke-opacity:0.75;stroke-width:0.3;" x="396" xlink:href="#mc113dc8c64" y="135.861151"/>
     <use style="fill:#0272a2;fill-opacity:0.75;stroke:#0272a2;stroke-opacity:0.75;stroke-width:0.3;" x="280.8" xlink:href="#mc113dc8c64" y="211.299458"/>
     <use style="fill:#0272a2;fill-opacity:0.75;stroke:#0272a2;stroke-opacity:0.75;stroke-width:0.3;" x="295.2" xlink:href="#mc113dc8c64" y="216.625296"/>
     <use style="fill:#0272a2;fill-opacity:0.75;stroke:#0272a2;stroke-opacity:0.75;stroke-width:0.3;" x="381.6" xlink:href="#mc113dc8c64" y="197.111196"/>
     <use style="fill:#0272a2;fill-opacity:0.75;stroke:#0272a2;stroke-opacity:0.75;stroke-width:0.3;" x="367.2" xlink:href="#mc113dc8c64" y="215.404785"/>
     <use style="fill:#0272a2;fill-opacity:0.75;stroke:#0272a2;stroke-opacity:0.75;stroke-width:0.3;" x="230.4" xlink:href="#mc113dc8c64" y="216.111292"/>
     <use style="fill:#0272a2;fill-opacity:0.75;stroke:#0272a2;stroke-opacity:0.75;stroke-width:0.3;" x="316.8" xlink:href="#mc113dc8c64" y="240.623847"/>
     <use style="fill:#0272a2;fill-opacity:0.75;stroke:#0272a2;stroke-opacity:0.75;stroke-width:0.3;" x="252" xlink:href="#mc113dc8c64" y="249.475188"/>
     <use style="fill:#0272a2;fill-opacity:0.75;stroke:#0272a2;stroke-opacity:0.75;stroke-width:0.3;" x="288" xlink:href="#mc113dc8c64" y="183.495182"/>
     <use style="fill:#0272a2;fill-opacity:0.75;stroke:#0272a2;stroke-opacity:0.75;stroke-width:0.3;" x="288" xlink:href="#mc113dc8c64" y="199.039865"/>
     <use style="fill:#0272a2;fill-opacity:0.75;stroke:#0272a2;stroke-opacity:0.75;stroke-width:0.3;" x="280.8" xlink:href="#mc113dc8c64" y="246.486238"/>
     <use style="fill:#0272a2;fill-opacity:0.75;stroke:#0272a2;stroke-opacity:0.75;stroke-width:0.3;" x="324" xlink:href="#mc113dc8c64" y="191.957667"/>
     <use style="fill:#0272a2;fill-opacity:0.75;stroke:#0272a2;stroke-opacity:0.75;stroke-width:0.3;" x="324" xlink:href="#mc113dc8c64" y="174.713229"/>
     <use style="fill:#0272a2;fill-opacity:0.75;stroke:#0272a2;stroke-opacity:0.75;stroke-width:0.3;" x="309.6" xlink:href="#mc113dc8c64" y="269.427194"/>
     <use style="fill:#0272a2;fill-opacity:0.75;stroke:#0272a2;stroke-opacity:0.75;stroke-width:0.3;" x="381.6" xlink:href="#mc113dc8c64" y="166.783904"/>
     <use style="fill:#0272a2;fill-opacity:0.75;stroke:#0272a2;stroke-opacity:0.75;stroke-width:0.3;" x="338.4" xlink:href="#mc113dc8c64" y="215.767701"/>
     <use style="fill:#0272a2;fill-opacity:0.75;stroke:#0272a2;stroke-opacity:0.75;stroke-width:0.3;" x="288" xlink:href="#mc113dc8c64" y="198.523723"/>
     <use style="fill:#0272a2;fill-opacity:0.75;stroke:#0272a2;stroke-opacity:0.75;stroke-width:0.3;" x="288" xlink:href="#mc113dc8c64" y="240.66862"/>
     <use style="fill:#0272a2;fill-opacity:0.75;stroke:#0272a2;stroke-opacity:0.75;stroke-width:0.3;" x="403.2" xlink:href="#mc113dc8c64" y="208.873145"/>
     <use style="fill:#0272a2;fill-opacity:0.75;stroke:#0272a2;stroke-opacity:0.75;stroke-width:0.3;" x="352.8" xlink:href="#mc113dc8c64" y="177.399243"/>
     <use style="fill:#0272a2;fill-opacity:0.75;stroke:#0272a2;stroke-opacity:0.75;stroke-width:0.3;" x="338.4" xlink:href="#mc113dc8c64" y="167.799237"/>
     <use style="fill:#0272a2;fill-opacity:0.75;stroke:#0272a2;stroke-opacity:0.75;stroke-width:0.3;" x="381.6" xlink:href="#mc113dc8c64" y="169.324524"/>
     <use style="fill:#0272a2;fill-opacity:0.75;stroke:#0272a2;stroke-opacity:0.75;stroke-width:0.3;" x="259.2" xlink:href="#mc113dc8c64" y="205.40621"/>
     <use style="fill:#0272a2;fill-opacity:0.75;stroke:#0272a2;stroke-opacity:0.75;stroke-width:0.3;" x="410.4" xlink:href="#mc113dc8c64" y="205.886043"/>
     <use style="fill:#0272a2;fill-opacity:0.75;stroke:#0272a2;stroke-opacity:0.75;stroke-width:0.3;" x="309.6" xlink:href="#mc113dc8c64" y="238.75816"/>
     <use style="fill:#0272a2;fill-opacity:0.75;stroke:#0272a2;stroke-opacity:0.75;stroke-width:0.3;" x="324" xlink:href="#mc113dc8c64" y="208.164941"/>
     <use style="fill:#0272a2;fill-opacity:0.75;stroke:#0272a2;stroke-opacity:0.75;stroke-width:0.3;" x="295.2" xlink:href="#mc113dc8c64" y="232.763082"/>
     <use style="fill:#0272a2;fill-opacity:0.75;stroke:#0272a2;stroke-opacity:0.75;stroke-width:0.3;" x="432" xlink:href="#mc113dc8c64" y="163.013179"/>
     <use style="fill:#0272a2;fill-opacity:0.75;stroke:#0272a2;stroke-opacity:0.75;stroke-width:0.3;" x="151.2" xlink:href="#mc113dc8c64" y="224.278637"/>
     <use style="fill:#0272a2;fill-opacity:0.75;stroke:#0272a2;stroke-opacity:0.75;stroke-width:0.3;" x="316.8" xlink:href="#mc113dc8c64" y="249.145695"/>
     <use style="fill:#0272a2;fill-opacity:0.75;stroke:#0272a2;stroke-opacity:0.75;stroke-width:0.3;" x="439.2" xlink:href="#mc113dc8c64" y="120.546717"/>
     <use style="fill:#0272a2;fill-opacity:0.75;stroke:#0272a2;stroke-opacity:0.75;stroke-width:0.3;" x="295.2" xlink:href="#mc113dc8c64" y="213.423937"/>
     <use style="fill:#0272a2;fill-opacity:0.75;stroke:#0272a2;stroke-opacity:0.75;stroke-width:0.3;" x="381.6" xlink:href="#mc113dc8c64" y="161.036992"/>
    </g>
   </g>
   <g id="line2d_29">
    <path clip-path="url(#p196434689d)" d="M 128.88 270.62682 
L 132.24 269.513911 
L 135.6 268.401003 
L 138.96 267.288094 
L 142.32 266.175186 
L 145.68 265.062277 
L 149.04 263.949369 
L 152.4 262.83646 
L 155.76 261.723552 
L 159.12 260.610643 
L 162.48 259.497735 
L 165.84 258.384826 
L 169.2 257.271917 
L 172.56 256.159009 
L 175.92 255.0461 
L 179.28 253.933192 
L 182.64 252.820283 
L 186 251.707375 
L 189.36 250.594466 
L 192.72 249.481558 
L 196.08 248.368649 
L 199.44 247.255741 
L 202.8 246.142832 
L 206.16 245.029924 
L 209.52 243.917015 
L 212.88 242.804106 
L 216.24 241.691198 
L 219.6 240.578289 
L 222.96 239.465381 
L 226.32 238.352472 
L 229.68 237.239564 
L 233.04 236.126655 
L 236.4 235.013747 
L 239.76 233.900838 
L 243.12 232.78793 
L 246.48 231.675021 
L 249.84 230.562113 
L 253.2 229.449204 
L 256.56 228.336296 
L 259.92 227.223387 
L 263.28 226.110478 
L 266.64 224.99757 
L 270 223.884661 
L 273.36 222.771753 
L 276.72 221.658844 
L 280.08 220.545936 
L 283.44 219.433027 
L 286.8 218.320119 
L 290.16 217.20721 
L 293.52 216.094302 
L 296.88 214.981393 
L 300.24 213.868485 
L 303.6 212.755576 
L 306.96 211.642668 
L 310.32 210.529759 
L 313.68 209.41685 
L 317.04 208.303942 
L 320.4 207.191033 
L 323.76 206.078125 
L 327.12 204.965216 
L 330.48 203.852308 
L 333.84 202.739399 
L 337.2 201.626491 
L 340.56 200.513582 
L 343.92 199.400674 
L 347.28 198.287765 
L 350.64 197.174857 
L 354 196.061948 
L 357.36 194.94904 
L 360.72 193.836131 
L 364.08 192.723222 
L 367.44 191.610314 
L 370.8 190.497405 
L 374.16 189.384497 
L 377.52 188.271588 
L 380.88 187.15868 
L 384.24 186.045771 
L 387.6 184.932863 
L 390.96 183.819954 
L 394.32 182.707046 
L 397.68 181.594137 
L 401.04 180.481229 
L 404.4 179.36832 
L 407.76 178.255411 
L 411.12 177.142503 
L 414.48 176.029594 
L 417.84 174.916686 
L 421.2 173.803777 
L 424.56 172.690869 
L 427.92 171.57796 
L 431.28 170.465052 
L 434.64 169.352143 
L 438 168.239235 
L 441.36 167.126326 
L 444.72 166.013418 
L 448.08 164.900509 
L 451.44 163.787601 
L 454.8 162.674692 
L 458.16 161.561783 
L 461.52 160.448875 
" style="fill:none;stroke:#111111;stroke-dasharray:7.4,3.2;stroke-dashoffset:0;stroke-width:2;"/>
   </g>
   <g id="patch_3">
    <path d="M 72 346.5 
L 72 47.52 
" style="fill:none;stroke:#cccccc;stroke-linecap:square;stroke-linejoin:miter;stroke-width:1.25;"/>
   </g>
   <g id="patch_4">
    <path d="M 518.4 346.5 
L 518.4 47.52 
" style="fill:none;stroke:#cccccc;stroke-linecap:square;stroke-linejoin:miter;stroke-width:1.25;"/>
   </g>
   <g id="patch_5">
    <path d="M 72 346.5 
L 518.4 346.5 
" style="fill:none;stroke:#cccccc;stroke-linecap:square;stroke-linejoin:miter;stroke-width:1.25;"/>
   </g>
   <g id="patch_6">
    <path d="M 72 47.52 
L 518.4 47.52 
" style="fill:none;stroke:#cccccc;stroke-linecap:square;stroke-linejoin:miter;stroke-width:1.25;"/>
   </g>
  </g>
 </g>
 <defs>
  <clipPath id="p196434689d">
   <rect height="298.98" width="446.4" x="72" y="47.52"/>
  </clipPath>
 </defs>
</svg>
