<?xml version="1.0" encoding="utf-8" standalone="no"?>
<!DOCTYPE svg PUBLIC "-//W3C//DTD SVG 1.1//EN"
  "http://www.w3.org/Graphics/SVG/1.1/DTD/svg11.dtd">
<!-- Created with matplotlib (https://matplotlib.org/) -->
<svg height="396pt" version="1.1" viewBox="0 0 576 396" width="576pt" xmlns="http://www.w3.org/2000/svg" xmlns:xlink="http://www.w3.org/1999/xlink">
 <metadata>
  <rdf:RDF xmlns:cc="http://creativecommons.org/ns#" xmlns:dc="http://purl.org/dc/elements/1.1/" xmlns:rdf="http://www.w3.org/1999/02/22-rdf-syntax-ns#">
   <cc:Work>
    <dc:type rdf:resource="http://purl.org/dc/dcmitype/StillImage"/>
    <dc:date>2021-01-21T19:40:11.942078</dc:date>
    <dc:format>image/svg+xml</dc:format>
    <dc:creator>
     <cc:Agent>
      <dc:title>Matplotlib v3.3.3, https://matplotlib.org/</dc:title>
     </cc:Agent>
    </dc:creator>
   </cc:Work>
  </rdf:RDF>
 </metadata>
 <defs>
  <style type="text/css">*{stroke-linecap:butt;stroke-linejoin:round;}</style>
 </defs>
 <g id="figure_1">
  <g id="patch_1">
   <path d="M 0 396 
L 576 396 
L 576 0 
L 0 0 
z
" style="fill:#ffffff;"/>
  </g>
  <g id="axes_1">
   <g id="patch_2">
    <path d="M 72 346.5 
L 518.4 346.5 
L 518.4 47.52 
L 72 47.52 
z
" style="fill:#ffffff;"/>
   </g>
   <g id="matplotlib.axis_1">
    <g id="xtick_1">
     <g id="line2d_1">
      <path clip-path="url(#p51a8f5a481)" d="M 108 346.5 
L 108 47.52 
" style="fill:none;stroke:#cccccc;stroke-linecap:round;"/>
     </g>
     <g id="line2d_2"/>
     <g id="text_1">
      <!-- 3 -->
      <g style="fill:#262626;" transform="translate(105.219531 360.657812)scale(0.1 -0.1)">
       <defs>
        <path d="M 4.203125 18.890625 
L 12.984375 20.0625 
Q 14.5 12.59375 18.140625 9.296875 
Q 21.78125 6 27 6 
Q 33.203125 6 37.46875 10.296875 
Q 41.75 14.59375 41.75 20.953125 
Q 41.75 27 37.796875 30.921875 
Q 33.84375 34.859375 27.734375 34.859375 
Q 25.25 34.859375 21.53125 33.890625 
L 22.515625 41.609375 
Q 23.390625 41.5 23.921875 41.5 
Q 29.546875 41.5 34.03125 44.421875 
Q 38.53125 47.359375 38.53125 53.46875 
Q 38.53125 58.296875 35.25 61.46875 
Q 31.984375 64.65625 26.8125 64.65625 
Q 21.6875 64.65625 18.265625 61.421875 
Q 14.84375 58.203125 13.875 51.765625 
L 5.078125 53.328125 
Q 6.6875 62.15625 12.390625 67.015625 
Q 18.109375 71.875 26.609375 71.875 
Q 32.46875 71.875 37.390625 69.359375 
Q 42.328125 66.84375 44.9375 62.5 
Q 47.5625 58.15625 47.5625 53.265625 
Q 47.5625 48.640625 45.0625 44.828125 
Q 42.578125 41.015625 37.703125 38.765625 
Q 44.046875 37.3125 47.5625 32.6875 
Q 51.078125 28.078125 51.078125 21.140625 
Q 51.078125 11.765625 44.234375 5.25 
Q 37.40625 -1.265625 26.953125 -1.265625 
Q 17.53125 -1.265625 11.296875 4.34375 
Q 5.078125 9.96875 4.203125 18.890625 
z
" id="ArialMT-51"/>
       </defs>
       <use xlink:href="#ArialMT-51"/>
      </g>
     </g>
    </g>
    <g id="xtick_2">
     <g id="line2d_3">
      <path clip-path="url(#p51a8f5a481)" d="M 180 346.5 
L 180 47.52 
" style="fill:none;stroke:#cccccc;stroke-linecap:round;"/>
     </g>
     <g id="line2d_4"/>
     <g id="text_2">
      <!-- 4 -->
      <g style="fill:#262626;" transform="translate(177.219531 360.657812)scale(0.1 -0.1)">
       <defs>
        <path d="M 32.328125 0 
L 32.328125 17.140625 
L 1.265625 17.140625 
L 1.265625 25.203125 
L 33.9375 71.578125 
L 41.109375 71.578125 
L 41.109375 25.203125 
L 50.78125 25.203125 
L 50.78125 17.140625 
L 41.109375 17.140625 
L 41.109375 0 
z
M 32.328125 25.203125 
L 32.328125 57.46875 
L 9.90625 25.203125 
z
" id="ArialMT-52"/>
       </defs>
       <use xlink:href="#ArialMT-52"/>
      </g>
     </g>
    </g>
    <g id="xtick_3">
     <g id="line2d_5">
      <path clip-path="url(#p51a8f5a481)" d="M 252 346.5 
L 252 47.52 
" style="fill:none;stroke:#cccccc;stroke-linecap:round;"/>
     </g>
     <g id="line2d_6"/>
     <g id="text_3">
      <!-- 5 -->
      <g style="fill:#262626;" transform="translate(249.219531 360.657812)scale(0.1 -0.1)">
       <defs>
        <path d="M 4.15625 18.75 
L 13.375 19.53125 
Q 14.40625 12.796875 18.140625 9.390625 
Q 21.875 6 27.15625 6 
Q 33.5 6 37.890625 10.78125 
Q 42.28125 15.578125 42.28125 23.484375 
Q 42.28125 31 38.0625 35.34375 
Q 33.84375 39.703125 27 39.703125 
Q 22.75 39.703125 19.328125 37.765625 
Q 15.921875 35.84375 13.96875 32.765625 
L 5.71875 33.84375 
L 12.640625 70.609375 
L 48.25 70.609375 
L 48.25 62.203125 
L 19.671875 62.203125 
L 15.828125 42.96875 
Q 22.265625 47.46875 29.34375 47.46875 
Q 38.71875 47.46875 45.15625 40.96875 
Q 51.609375 34.46875 51.609375 24.265625 
Q 51.609375 14.546875 45.953125 7.46875 
Q 39.0625 -1.21875 27.15625 -1.21875 
Q 17.390625 -1.21875 11.203125 4.25 
Q 5.03125 9.71875 4.15625 18.75 
z
" id="ArialMT-53"/>
       </defs>
       <use xlink:href="#ArialMT-53"/>
      </g>
     </g>
    </g>
    <g id="xtick_4">
     <g id="line2d_7">
      <path clip-path="url(#p51a8f5a481)" d="M 324 346.5 
L 324 47.52 
" style="fill:none;stroke:#cccccc;stroke-linecap:round;"/>
     </g>
     <g id="line2d_8"/>
     <g id="text_4">
      <!-- 6 -->
      <g style="fill:#262626;" transform="translate(321.219531 360.657812)scale(0.1 -0.1)">
       <defs>
        <path d="M 49.75 54.046875 
L 41.015625 53.375 
Q 39.84375 58.546875 37.703125 60.890625 
Q 34.125 64.65625 28.90625 64.65625 
Q 24.703125 64.65625 21.53125 62.3125 
Q 17.390625 59.28125 14.984375 53.46875 
Q 12.59375 47.65625 12.5 36.921875 
Q 15.671875 41.75 20.265625 44.09375 
Q 24.859375 46.4375 29.890625 46.4375 
Q 38.671875 46.4375 44.84375 39.96875 
Q 51.03125 33.5 51.03125 23.25 
Q 51.03125 16.5 48.125 10.71875 
Q 45.21875 4.9375 40.140625 1.859375 
Q 35.0625 -1.21875 28.609375 -1.21875 
Q 17.625 -1.21875 10.6875 6.859375 
Q 3.765625 14.9375 3.765625 33.5 
Q 3.765625 54.25 11.421875 63.671875 
Q 18.109375 71.875 29.4375 71.875 
Q 37.890625 71.875 43.28125 67.140625 
Q 48.6875 62.40625 49.75 54.046875 
z
M 13.875 23.1875 
Q 13.875 18.65625 15.796875 14.5 
Q 17.71875 10.359375 21.1875 8.171875 
Q 24.65625 6 28.46875 6 
Q 34.03125 6 38.03125 10.484375 
Q 42.046875 14.984375 42.046875 22.703125 
Q 42.046875 30.125 38.078125 34.390625 
Q 34.125 38.671875 28.125 38.671875 
Q 22.171875 38.671875 18.015625 34.390625 
Q 13.875 30.125 13.875 23.1875 
z
" id="ArialMT-54"/>
       </defs>
       <use xlink:href="#ArialMT-54"/>
      </g>
     </g>
    </g>
    <g id="xtick_5">
     <g id="line2d_9">
      <path clip-path="url(#p51a8f5a481)" d="M 396 346.5 
L 396 47.52 
" style="fill:none;stroke:#cccccc;stroke-linecap:round;"/>
     </g>
     <g id="line2d_10"/>
     <g id="text_5">
      <!-- 7 -->
      <g style="fill:#262626;" transform="translate(393.219531 360.657812)scale(0.1 -0.1)">
       <defs>
        <path d="M 4.734375 62.203125 
L 4.734375 70.65625 
L 51.078125 70.65625 
L 51.078125 63.8125 
Q 44.234375 56.546875 37.515625 44.484375 
Q 30.8125 32.421875 27.15625 19.671875 
Q 24.515625 10.6875 23.78125 0 
L 14.75 0 
Q 14.890625 8.453125 18.0625 20.40625 
Q 21.234375 32.375 27.171875 43.484375 
Q 33.109375 54.59375 39.796875 62.203125 
z
" id="ArialMT-55"/>
       </defs>
       <use xlink:href="#ArialMT-55"/>
      </g>
     </g>
    </g>
    <g id="xtick_6">
     <g id="line2d_11">
      <path clip-path="url(#p51a8f5a481)" d="M 468 346.5 
L 468 47.52 
" style="fill:none;stroke:#cccccc;stroke-linecap:round;"/>
     </g>
     <g id="line2d_12"/>
     <g id="text_6">
      <!-- 8 -->
      <g style="fill:#262626;" transform="translate(465.219531 360.657812)scale(0.1 -0.1)">
       <defs>
        <path d="M 17.671875 38.8125 
Q 12.203125 40.828125 9.5625 44.53125 
Q 6.9375 48.25 6.9375 53.421875 
Q 6.9375 61.234375 12.546875 66.546875 
Q 18.171875 71.875 27.484375 71.875 
Q 36.859375 71.875 42.578125 66.421875 
Q 48.296875 60.984375 48.296875 53.171875 
Q 48.296875 48.1875 45.671875 44.5 
Q 43.0625 40.828125 37.75 38.8125 
Q 44.34375 36.671875 47.78125 31.875 
Q 51.21875 27.09375 51.21875 20.453125 
Q 51.21875 11.28125 44.71875 5.03125 
Q 38.234375 -1.21875 27.640625 -1.21875 
Q 17.046875 -1.21875 10.546875 5.046875 
Q 4.046875 11.328125 4.046875 20.703125 
Q 4.046875 27.6875 7.59375 32.390625 
Q 11.140625 37.109375 17.671875 38.8125 
z
M 15.921875 53.71875 
Q 15.921875 48.640625 19.1875 45.40625 
Q 22.46875 42.1875 27.6875 42.1875 
Q 32.765625 42.1875 36.015625 45.375 
Q 39.265625 48.578125 39.265625 53.21875 
Q 39.265625 58.0625 35.90625 61.359375 
Q 32.5625 64.65625 27.59375 64.65625 
Q 22.5625 64.65625 19.234375 61.421875 
Q 15.921875 58.203125 15.921875 53.71875 
z
M 13.09375 20.65625 
Q 13.09375 16.890625 14.875 13.375 
Q 16.65625 9.859375 20.171875 7.921875 
Q 23.6875 6 27.734375 6 
Q 34.03125 6 38.125 10.046875 
Q 42.234375 14.109375 42.234375 20.359375 
Q 42.234375 26.703125 38.015625 30.859375 
Q 33.796875 35.015625 27.4375 35.015625 
Q 21.234375 35.015625 17.15625 30.90625 
Q 13.09375 26.8125 13.09375 20.65625 
z
" id="ArialMT-56"/>
       </defs>
       <use xlink:href="#ArialMT-56"/>
      </g>
     </g>
    </g>
   </g>
   <g id="matplotlib.axis_2">
    <g id="ytick_1">
     <g id="line2d_13">
      <path clip-path="url(#p51a8f5a481)" d="M 72 321.721542 
L 518.4 321.721542 
" style="fill:none;stroke:#cccccc;stroke-linecap:round;"/>
     </g>
     <g id="line2d_14"/>
     <g id="text_7">
      <!-- 3 -->
      <g style="fill:#262626;" transform="translate(59.439062 325.300448)scale(0.1 -0.1)">
       <use xlink:href="#ArialMT-51"/>
      </g>
     </g>
    </g>
    <g id="ytick_2">
     <g id="line2d_15">
      <path clip-path="url(#p51a8f5a481)" d="M 72 275.583205 
L 518.4 275.583205 
" style="fill:none;stroke:#cccccc;stroke-linecap:round;"/>
     </g>
     <g id="line2d_16"/>
     <g id="text_8">
      <!-- 4 -->
      <g style="fill:#262626;" transform="translate(59.439062 279.162111)scale(0.1 -0.1)">
       <use xlink:href="#ArialMT-52"/>
      </g>
     </g>
    </g>
    <g id="ytick_3">
     <g id="line2d_17">
      <path clip-path="url(#p51a8f5a481)" d="M 72 229.444868 
L 518.4 229.444868 
" style="fill:none;stroke:#cccccc;stroke-linecap:round;"/>
     </g>
     <g id="line2d_18"/>
     <g id="text_9">
      <!-- 5 -->
      <g style="fill:#262626;" transform="translate(59.439062 233.023775)scale(0.1 -0.1)">
       <use xlink:href="#ArialMT-53"/>
      </g>
     </g>
    </g>
    <g id="ytick_4">
     <g id="line2d_19">
      <path clip-path="url(#p51a8f5a481)" d="M 72 183.306532 
L 518.4 183.306532 
" style="fill:none;stroke:#cccccc;stroke-linecap:round;"/>
     </g>
     <g id="line2d_20"/>
     <g id="text_10">
      <!-- 6 -->
      <g style="fill:#262626;" transform="translate(59.439062 186.885438)scale(0.1 -0.1)">
       <use xlink:href="#ArialMT-54"/>
      </g>
     </g>
    </g>
    <g id="ytick_5">
     <g id="line2d_21">
      <path clip-path="url(#p51a8f5a481)" d="M 72 137.168195 
L 518.4 137.168195 
" style="fill:none;stroke:#cccccc;stroke-linecap:round;"/>
     </g>
     <g id="line2d_22"/>
     <g id="text_11">
      <!-- 7 -->
      <g style="fill:#262626;" transform="translate(59.439062 140.747102)scale(0.1 -0.1)">
       <use xlink:href="#ArialMT-55"/>
      </g>
     </g>
    </g>
    <g id="ytick_6">
     <g id="line2d_23">
      <path clip-path="url(#p51a8f5a481)" d="M 72 91.029859 
L 518.4 91.029859 
" style="fill:none;stroke:#cccccc;stroke-linecap:round;"/>
     </g>
     <g id="line2d_24"/>
     <g id="text_12">
      <!-- 8 -->
      <g style="fill:#262626;" transform="translate(59.439062 94.608765)scale(0.1 -0.1)">
       <use xlink:href="#ArialMT-56"/>
      </g>
     </g>
    </g>
   </g>
   <g id="PathCollection_1">
    <defs>
     <path d="M 0 3.5 
C 0.928211 3.5 1.81853 3.131218 2.474874 2.474874 
C 3.131218 1.81853 3.5 0.928211 3.5 0 
C 3.5 -0.928211 3.131218 -1.81853 2.474874 -2.474874 
C 1.81853 -3.131218 0.928211 -3.5 0 -3.5 
C -0.928211 -3.5 -1.81853 -3.131218 -2.474874 -2.474874 
C -3.131218 -1.81853 -3.5 -0.928211 -3.5 0 
C -3.5 0.928211 -3.131218 1.81853 -2.474874 2.474874 
C -1.81853 3.131218 -0.928211 3.5 0 3.5 
z
" id="m5a5ce90c60" style="stroke:#0272a2;stroke-opacity:0.75;stroke-width:0.3;"/>
    </defs>
    <g clip-path="url(#p51a8f5a481)">
     <use style="fill:#0272a2;fill-opacity:0.75;stroke:#0272a2;stroke-opacity:0.75;stroke-width:0.3;" x="266.4" xlink:href="#m5a5ce90c60" y="226.27929"/>
     <use style="fill:#0272a2;fill-opacity:0.75;stroke:#0272a2;stroke-opacity:0.75;stroke-width:0.3;" x="360" xlink:href="#m5a5ce90c60" y="158.081479"/>
     <use style="fill:#0272a2;fill-opacity:0.75;stroke:#0272a2;stroke-opacity:0.75;stroke-width:0.3;" x="302.4" xlink:href="#m5a5ce90c60" y="178.885158"/>
     <use style="fill:#0272a2;fill-opacity:0.75;stroke:#0272a2;stroke-opacity:0.75;stroke-width:0.3;" x="352.8" xlink:href="#m5a5ce90c60" y="157.182604"/>
     <use style="fill:#0272a2;fill-opacity:0.75;stroke:#0272a2;stroke-opacity:0.75;stroke-width:0.3;" x="338.4" xlink:href="#m5a5ce90c60" y="167.523365"/>
     <use style="fill:#0272a2;fill-opacity:0.75;stroke:#0272a2;stroke-opacity:0.75;stroke-width:0.3;" x="352.8" xlink:href="#m5a5ce90c60" y="167.352529"/>
     <use style="fill:#0272a2;fill-opacity:0.75;stroke:#0272a2;stroke-opacity:0.75;stroke-width:0.3;" x="367.2" xlink:href="#m5a5ce90c60" y="158.314337"/>
     <use style="fill:#0272a2;fill-opacity:0.75;stroke:#0272a2;stroke-opacity:0.75;stroke-width:0.3;" x="266.4" xlink:href="#m5a5ce90c60" y="222.954528"/>
     <use style="fill:#0272a2;fill-opacity:0.75;stroke:#0272a2;stroke-opacity:0.75;stroke-width:0.3;" x="280.8" xlink:href="#m5a5ce90c60" y="205.445119"/>
     <use style="fill:#0272a2;fill-opacity:0.75;stroke:#0272a2;stroke-opacity:0.75;stroke-width:0.3;" x="432" xlink:href="#m5a5ce90c60" y="116.312399"/>
     <use style="fill:#0272a2;fill-opacity:0.75;stroke:#0272a2;stroke-opacity:0.75;stroke-width:0.3;" x="252" xlink:href="#m5a5ce90c60" y="238.702682"/>
     <use style="fill:#0272a2;fill-opacity:0.75;stroke:#0272a2;stroke-opacity:0.75;stroke-width:0.3;" x="273.6" xlink:href="#m5a5ce90c60" y="213.310086"/>
     <use style="fill:#0272a2;fill-opacity:0.75;stroke:#0272a2;stroke-opacity:0.75;stroke-width:0.3;" x="288" xlink:href="#m5a5ce90c60" y="202.080433"/>
     <use style="fill:#0272a2;fill-opacity:0.75;stroke:#0272a2;stroke-opacity:0.75;stroke-width:0.3;" x="381.6" xlink:href="#m5a5ce90c60" y="148.930821"/>
     <use style="fill:#0272a2;fill-opacity:0.75;stroke:#0272a2;stroke-opacity:0.75;stroke-width:0.3;" x="252" xlink:href="#m5a5ce90c60" y="228.146"/>
     <use style="fill:#0272a2;fill-opacity:0.75;stroke:#0272a2;stroke-opacity:0.75;stroke-width:0.3;" x="144" xlink:href="#m5a5ce90c60" y="270.425364"/>
     <use style="fill:#0272a2;fill-opacity:0.75;stroke:#0272a2;stroke-opacity:0.75;stroke-width:0.3;" x="352.8" xlink:href="#m5a5ce90c60" y="164.979886"/>
     <use style="fill:#0272a2;fill-opacity:0.75;stroke:#0272a2;stroke-opacity:0.75;stroke-width:0.3;" x="331.2" xlink:href="#m5a5ce90c60" y="167.964537"/>
     <use style="fill:#0272a2;fill-opacity:0.75;stroke:#0272a2;stroke-opacity:0.75;stroke-width:0.3;" x="266.4" xlink:href="#m5a5ce90c60" y="218.525665"/>
     <use style="fill:#0272a2;fill-opacity:0.75;stroke:#0272a2;stroke-opacity:0.75;stroke-width:0.3;" x="302.4" xlink:href="#m5a5ce90c60" y="205.698331"/>
     <use style="fill:#0272a2;fill-opacity:0.75;stroke:#0272a2;stroke-opacity:0.75;stroke-width:0.3;" x="273.6" xlink:href="#m5a5ce90c60" y="225.42678"/>
     <use style="fill:#0272a2;fill-opacity:0.75;stroke:#0272a2;stroke-opacity:0.75;stroke-width:0.3;" x="223.2" xlink:href="#m5a5ce90c60" y="245.592055"/>
     <use style="fill:#0272a2;fill-opacity:0.75;stroke:#0272a2;stroke-opacity:0.75;stroke-width:0.3;" x="417.6" xlink:href="#m5a5ce90c60" y="120.214084"/>
     <use style="fill:#0272a2;fill-opacity:0.75;stroke:#0272a2;stroke-opacity:0.75;stroke-width:0.3;" x="388.8" xlink:href="#m5a5ce90c60" y="138.356"/>
     <use style="fill:#0272a2;fill-opacity:0.75;stroke:#0272a2;stroke-opacity:0.75;stroke-width:0.3;" x="352.8" xlink:href="#m5a5ce90c60" y="172.298306"/>
     <use style="fill:#0272a2;fill-opacity:0.75;stroke:#0272a2;stroke-opacity:0.75;stroke-width:0.3;" x="345.6" xlink:href="#m5a5ce90c60" y="171.393018"/>
     <use style="fill:#0272a2;fill-opacity:0.75;stroke:#0272a2;stroke-opacity:0.75;stroke-width:0.3;" x="280.8" xlink:href="#m5a5ce90c60" y="220.925798"/>
     <use style="fill:#0272a2;fill-opacity:0.75;stroke:#0272a2;stroke-opacity:0.75;stroke-width:0.3;" x="266.4" xlink:href="#m5a5ce90c60" y="211.154883"/>
     <use style="fill:#0272a2;fill-opacity:0.75;stroke:#0272a2;stroke-opacity:0.75;stroke-width:0.3;" x="302.4" xlink:href="#m5a5ce90c60" y="204.331022"/>
     <use style="fill:#0272a2;fill-opacity:0.75;stroke:#0272a2;stroke-opacity:0.75;stroke-width:0.3;" x="352.8" xlink:href="#m5a5ce90c60" y="177.890713"/>
     <use style="fill:#0272a2;fill-opacity:0.75;stroke:#0272a2;stroke-opacity:0.75;stroke-width:0.3;" x="374.4" xlink:href="#m5a5ce90c60" y="138.790068"/>
     <use style="fill:#0272a2;fill-opacity:0.75;stroke:#0272a2;stroke-opacity:0.75;stroke-width:0.3;" x="280.8" xlink:href="#m5a5ce90c60" y="214.077801"/>
     <use style="fill:#0272a2;fill-opacity:0.75;stroke:#0272a2;stroke-opacity:0.75;stroke-width:0.3;" x="410.4" xlink:href="#m5a5ce90c60" y="133.421677"/>
     <use style="fill:#0272a2;fill-opacity:0.75;stroke:#0272a2;stroke-opacity:0.75;stroke-width:0.3;" x="295.2" xlink:href="#m5a5ce90c60" y="190.326863"/>
     <use style="fill:#0272a2;fill-opacity:0.75;stroke:#0272a2;stroke-opacity:0.75;stroke-width:0.3;" x="367.2" xlink:href="#m5a5ce90c60" y="139.259669"/>
     <use style="fill:#0272a2;fill-opacity:0.75;stroke:#0272a2;stroke-opacity:0.75;stroke-width:0.3;" x="324" xlink:href="#m5a5ce90c60" y="184.119461"/>
     <use style="fill:#0272a2;fill-opacity:0.75;stroke:#0272a2;stroke-opacity:0.75;stroke-width:0.3;" x="324" xlink:href="#m5a5ce90c60" y="175.114245"/>
     <use style="fill:#0272a2;fill-opacity:0.75;stroke:#0272a2;stroke-opacity:0.75;stroke-width:0.3;" x="237.6" xlink:href="#m5a5ce90c60" y="229.779281"/>
     <use style="fill:#0272a2;fill-opacity:0.75;stroke:#0272a2;stroke-opacity:0.75;stroke-width:0.3;" x="244.8" xlink:href="#m5a5ce90c60" y="228.360381"/>
     <use style="fill:#0272a2;fill-opacity:0.75;stroke:#0272a2;stroke-opacity:0.75;stroke-width:0.3;" x="295.2" xlink:href="#m5a5ce90c60" y="218.104846"/>
     <use style="fill:#0272a2;fill-opacity:0.75;stroke:#0272a2;stroke-opacity:0.75;stroke-width:0.3;" x="324" xlink:href="#m5a5ce90c60" y="188.9717"/>
     <use style="fill:#0272a2;fill-opacity:0.75;stroke:#0272a2;stroke-opacity:0.75;stroke-width:0.3;" x="324" xlink:href="#m5a5ce90c60" y="210.460129"/>
     <use style="fill:#0272a2;fill-opacity:0.75;stroke:#0272a2;stroke-opacity:0.75;stroke-width:0.3;" x="316.8" xlink:href="#m5a5ce90c60" y="184.956572"/>
     <use style="fill:#0272a2;fill-opacity:0.75;stroke:#0272a2;stroke-opacity:0.75;stroke-width:0.3;" x="266.4" xlink:href="#m5a5ce90c60" y="214.854563"/>
     <use style="fill:#0272a2;fill-opacity:0.75;stroke:#0272a2;stroke-opacity:0.75;stroke-width:0.3;" x="374.4" xlink:href="#m5a5ce90c60" y="150.07073"/>
     <use style="fill:#0272a2;fill-opacity:0.75;stroke:#0272a2;stroke-opacity:0.75;stroke-width:0.3;" x="388.8" xlink:href="#m5a5ce90c60" y="135.395475"/>
     <use style="fill:#0272a2;fill-opacity:0.75;stroke:#0272a2;stroke-opacity:0.75;stroke-width:0.3;" x="345.6" xlink:href="#m5a5ce90c60" y="179.78903"/>
     <use style="fill:#0272a2;fill-opacity:0.75;stroke:#0272a2;stroke-opacity:0.75;stroke-width:0.3;" x="273.6" xlink:href="#m5a5ce90c60" y="208.308503"/>
     <use style="fill:#0272a2;fill-opacity:0.75;stroke:#0272a2;stroke-opacity:0.75;stroke-width:0.3;" x="345.6" xlink:href="#m5a5ce90c60" y="166.229922"/>
     <use style="fill:#0272a2;fill-opacity:0.75;stroke:#0272a2;stroke-opacity:0.75;stroke-width:0.3;" x="324" xlink:href="#m5a5ce90c60" y="182.78057"/>
     <use style="fill:#0272a2;fill-opacity:0.75;stroke:#0272a2;stroke-opacity:0.75;stroke-width:0.3;" x="252" xlink:href="#m5a5ce90c60" y="234.377186"/>
     <use style="fill:#0272a2;fill-opacity:0.75;stroke:#0272a2;stroke-opacity:0.75;stroke-width:0.3;" x="295.2" xlink:href="#m5a5ce90c60" y="180.313831"/>
     <use style="fill:#0272a2;fill-opacity:0.75;stroke:#0272a2;stroke-opacity:0.75;stroke-width:0.3;" x="388.8" xlink:href="#m5a5ce90c60" y="144.086983"/>
     <use style="fill:#0272a2;fill-opacity:0.75;stroke:#0272a2;stroke-opacity:0.75;stroke-width:0.3;" x="266.4" xlink:href="#m5a5ce90c60" y="232.94186"/>
     <use style="fill:#0272a2;fill-opacity:0.75;stroke:#0272a2;stroke-opacity:0.75;stroke-width:0.3;" x="396" xlink:href="#m5a5ce90c60" y="153.176155"/>
     <use style="fill:#0272a2;fill-opacity:0.75;stroke:#0272a2;stroke-opacity:0.75;stroke-width:0.3;" x="446.4" xlink:href="#m5a5ce90c60" y="93.658337"/>
     <use style="fill:#0272a2;fill-opacity:0.75;stroke:#0272a2;stroke-opacity:0.75;stroke-width:0.3;" x="374.4" xlink:href="#m5a5ce90c60" y="168.979937"/>
     <use style="fill:#0272a2;fill-opacity:0.75;stroke:#0272a2;stroke-opacity:0.75;stroke-width:0.3;" x="338.4" xlink:href="#m5a5ce90c60" y="170.244804"/>
     <use style="fill:#0272a2;fill-opacity:0.75;stroke:#0272a2;stroke-opacity:0.75;stroke-width:0.3;" x="360" xlink:href="#m5a5ce90c60" y="152.126469"/>
     <use style="fill:#0272a2;fill-opacity:0.75;stroke:#0272a2;stroke-opacity:0.75;stroke-width:0.3;" x="367.2" xlink:href="#m5a5ce90c60" y="143.449342"/>
     <use style="fill:#0272a2;fill-opacity:0.75;stroke:#0272a2;stroke-opacity:0.75;stroke-width:0.3;" x="331.2" xlink:href="#m5a5ce90c60" y="213.918584"/>
     <use style="fill:#0272a2;fill-opacity:0.75;stroke:#0272a2;stroke-opacity:0.75;stroke-width:0.3;" x="338.4" xlink:href="#m5a5ce90c60" y="175.845072"/>
     <use style="fill:#0272a2;fill-opacity:0.75;stroke:#0272a2;stroke-opacity:0.75;stroke-width:0.3;" x="352.8" xlink:href="#m5a5ce90c60" y="161.178418"/>
     <use style="fill:#0272a2;fill-opacity:0.75;stroke:#0272a2;stroke-opacity:0.75;stroke-width:0.3;" x="280.8" xlink:href="#m5a5ce90c60" y="215.510427"/>
     <use style="fill:#0272a2;fill-opacity:0.75;stroke:#0272a2;stroke-opacity:0.75;stroke-width:0.3;" x="316.8" xlink:href="#m5a5ce90c60" y="178.127653"/>
     <use style="fill:#0272a2;fill-opacity:0.75;stroke:#0272a2;stroke-opacity:0.75;stroke-width:0.3;" x="352.8" xlink:href="#m5a5ce90c60" y="171.64687"/>
     <use style="fill:#0272a2;fill-opacity:0.75;stroke:#0272a2;stroke-opacity:0.75;stroke-width:0.3;" x="331.2" xlink:href="#m5a5ce90c60" y="184.55926"/>
     <use style="fill:#0272a2;fill-opacity:0.75;stroke:#0272a2;stroke-opacity:0.75;stroke-width:0.3;" x="288" xlink:href="#m5a5ce90c60" y="217.199376"/>
     <use style="fill:#0272a2;fill-opacity:0.75;stroke:#0272a2;stroke-opacity:0.75;stroke-width:0.3;" x="424.8" xlink:href="#m5a5ce90c60" y="140.487819"/>
     <use style="fill:#0272a2;fill-opacity:0.75;stroke:#0272a2;stroke-opacity:0.75;stroke-width:0.3;" x="338.4" xlink:href="#m5a5ce90c60" y="170.278939"/>
     <use style="fill:#0272a2;fill-opacity:0.75;stroke:#0272a2;stroke-opacity:0.75;stroke-width:0.3;" x="324" xlink:href="#m5a5ce90c60" y="191.31455"/>
     <use style="fill:#0272a2;fill-opacity:0.75;stroke:#0272a2;stroke-opacity:0.75;stroke-width:0.3;" x="381.6" xlink:href="#m5a5ce90c60" y="150.488691"/>
     <use style="fill:#0272a2;fill-opacity:0.75;stroke:#0272a2;stroke-opacity:0.75;stroke-width:0.3;" x="338.4" xlink:href="#m5a5ce90c60" y="182.081352"/>
     <use style="fill:#0272a2;fill-opacity:0.75;stroke:#0272a2;stroke-opacity:0.75;stroke-width:0.3;" x="230.4" xlink:href="#m5a5ce90c60" y="237.671466"/>
     <use style="fill:#0272a2;fill-opacity:0.75;stroke:#0272a2;stroke-opacity:0.75;stroke-width:0.3;" x="230.4" xlink:href="#m5a5ce90c60" y="223.583347"/>
     <use style="fill:#0272a2;fill-opacity:0.75;stroke:#0272a2;stroke-opacity:0.75;stroke-width:0.3;" x="324" xlink:href="#m5a5ce90c60" y="175.293373"/>
     <use style="fill:#0272a2;fill-opacity:0.75;stroke:#0272a2;stroke-opacity:0.75;stroke-width:0.3;" x="302.4" xlink:href="#m5a5ce90c60" y="196.215793"/>
     <use style="fill:#0272a2;fill-opacity:0.75;stroke:#0272a2;stroke-opacity:0.75;stroke-width:0.3;" x="208.8" xlink:href="#m5a5ce90c60" y="246.938651"/>
     <use style="fill:#0272a2;fill-opacity:0.75;stroke:#0272a2;stroke-opacity:0.75;stroke-width:0.3;" x="374.4" xlink:href="#m5a5ce90c60" y="156.795403"/>
     <use style="fill:#0272a2;fill-opacity:0.75;stroke:#0272a2;stroke-opacity:0.75;stroke-width:0.3;" x="316.8" xlink:href="#m5a5ce90c60" y="194.125858"/>
     <use style="fill:#0272a2;fill-opacity:0.75;stroke:#0272a2;stroke-opacity:0.75;stroke-width:0.3;" x="252" xlink:href="#m5a5ce90c60" y="227.675797"/>
     <use style="fill:#0272a2;fill-opacity:0.75;stroke:#0272a2;stroke-opacity:0.75;stroke-width:0.3;" x="288" xlink:href="#m5a5ce90c60" y="200.577669"/>
     <use style="fill:#0272a2;fill-opacity:0.75;stroke:#0272a2;stroke-opacity:0.75;stroke-width:0.3;" x="331.2" xlink:href="#m5a5ce90c60" y="162.781293"/>
     <use style="fill:#0272a2;fill-opacity:0.75;stroke:#0272a2;stroke-opacity:0.75;stroke-width:0.3;" x="201.6" xlink:href="#m5a5ce90c60" y="256.027701"/>
     <use style="fill:#0272a2;fill-opacity:0.75;stroke:#0272a2;stroke-opacity:0.75;stroke-width:0.3;" x="316.8" xlink:href="#m5a5ce90c60" y="195.820273"/>
     <use style="fill:#0272a2;fill-opacity:0.75;stroke:#0272a2;stroke-opacity:0.75;stroke-width:0.3;" x="381.6" xlink:href="#m5a5ce90c60" y="143.138749"/>
     <use style="fill:#0272a2;fill-opacity:0.75;stroke:#0272a2;stroke-opacity:0.75;stroke-width:0.3;" x="345.6" xlink:href="#m5a5ce90c60" y="176.477605"/>
     <use style="fill:#0272a2;fill-opacity:0.75;stroke:#0272a2;stroke-opacity:0.75;stroke-width:0.3;" x="280.8" xlink:href="#m5a5ce90c60" y="215.146171"/>
     <use style="fill:#0272a2;fill-opacity:0.75;stroke:#0272a2;stroke-opacity:0.75;stroke-width:0.3;" x="345.6" xlink:href="#m5a5ce90c60" y="172.484768"/>
     <use style="fill:#0272a2;fill-opacity:0.75;stroke:#0272a2;stroke-opacity:0.75;stroke-width:0.3;" x="252" xlink:href="#m5a5ce90c60" y="227.178506"/>
     <use style="fill:#0272a2;fill-opacity:0.75;stroke:#0272a2;stroke-opacity:0.75;stroke-width:0.3;" x="331.2" xlink:href="#m5a5ce90c60" y="170.819154"/>
     <use style="fill:#0272a2;fill-opacity:0.75;stroke:#0272a2;stroke-opacity:0.75;stroke-width:0.3;" x="295.2" xlink:href="#m5a5ce90c60" y="194.384349"/>
     <use style="fill:#0272a2;fill-opacity:0.75;stroke:#0272a2;stroke-opacity:0.75;stroke-width:0.3;" x="295.2" xlink:href="#m5a5ce90c60" y="204.244313"/>
     <use style="fill:#0272a2;fill-opacity:0.75;stroke:#0272a2;stroke-opacity:0.75;stroke-width:0.3;" x="331.2" xlink:href="#m5a5ce90c60" y="184.760163"/>
     <use style="fill:#0272a2;fill-opacity:0.75;stroke:#0272a2;stroke-opacity:0.75;stroke-width:0.3;" x="266.4" xlink:href="#m5a5ce90c60" y="213.747008"/>
     <use style="fill:#0272a2;fill-opacity:0.75;stroke:#0272a2;stroke-opacity:0.75;stroke-width:0.3;" x="410.4" xlink:href="#m5a5ce90c60" y="128.025479"/>
     <use style="fill:#0272a2;fill-opacity:0.75;stroke:#0272a2;stroke-opacity:0.75;stroke-width:0.3;" x="309.6" xlink:href="#m5a5ce90c60" y="201.3191"/>
     <use style="fill:#0272a2;fill-opacity:0.75;stroke:#0272a2;stroke-opacity:0.75;stroke-width:0.3;" x="302.4" xlink:href="#m5a5ce90c60" y="202.104754"/>
     <use style="fill:#0272a2;fill-opacity:0.75;stroke:#0272a2;stroke-opacity:0.75;stroke-width:0.3;" x="208.8" xlink:href="#m5a5ce90c60" y="245.670677"/>
     <use style="fill:#0272a2;fill-opacity:0.75;stroke:#0272a2;stroke-opacity:0.75;stroke-width:0.3;" x="266.4" xlink:href="#m5a5ce90c60" y="215.53718"/>
     <use style="fill:#0272a2;fill-opacity:0.75;stroke:#0272a2;stroke-opacity:0.75;stroke-width:0.3;" x="252" xlink:href="#m5a5ce90c60" y="231.471411"/>
     <use style="fill:#0272a2;fill-opacity:0.75;stroke:#0272a2;stroke-opacity:0.75;stroke-width:0.3;" x="165.6" xlink:href="#m5a5ce90c60" y="280.367544"/>
     <use style="fill:#0272a2;fill-opacity:0.75;stroke:#0272a2;stroke-opacity:0.75;stroke-width:0.3;" x="331.2" xlink:href="#m5a5ce90c60" y="195.710874"/>
     <use style="fill:#0272a2;fill-opacity:0.75;stroke:#0272a2;stroke-opacity:0.75;stroke-width:0.3;" x="396" xlink:href="#m5a5ce90c60" y="150.984299"/>
     <use style="fill:#0272a2;fill-opacity:0.75;stroke:#0272a2;stroke-opacity:0.75;stroke-width:0.3;" x="280.8" xlink:href="#m5a5ce90c60" y="206.523497"/>
     <use style="fill:#0272a2;fill-opacity:0.75;stroke:#0272a2;stroke-opacity:0.75;stroke-width:0.3;" x="295.2" xlink:href="#m5a5ce90c60" y="213.508273"/>
     <use style="fill:#0272a2;fill-opacity:0.75;stroke:#0272a2;stroke-opacity:0.75;stroke-width:0.3;" x="381.6" xlink:href="#m5a5ce90c60" y="150.782468"/>
     <use style="fill:#0272a2;fill-opacity:0.75;stroke:#0272a2;stroke-opacity:0.75;stroke-width:0.3;" x="367.2" xlink:href="#m5a5ce90c60" y="148.811937"/>
     <use style="fill:#0272a2;fill-opacity:0.75;stroke:#0272a2;stroke-opacity:0.75;stroke-width:0.3;" x="230.4" xlink:href="#m5a5ce90c60" y="228.319859"/>
     <use style="fill:#0272a2;fill-opacity:0.75;stroke:#0272a2;stroke-opacity:0.75;stroke-width:0.3;" x="316.8" xlink:href="#m5a5ce90c60" y="195.77436"/>
     <use style="fill:#0272a2;fill-opacity:0.75;stroke:#0272a2;stroke-opacity:0.75;stroke-width:0.3;" x="252" xlink:href="#m5a5ce90c60" y="224.166327"/>
     <use style="fill:#0272a2;fill-opacity:0.75;stroke:#0272a2;stroke-opacity:0.75;stroke-width:0.3;" x="288" xlink:href="#m5a5ce90c60" y="197.084316"/>
     <use style="fill:#0272a2;fill-opacity:0.75;stroke:#0272a2;stroke-opacity:0.75;stroke-width:0.3;" x="288" xlink:href="#m5a5ce90c60" y="199.566094"/>
     <use style="fill:#0272a2;fill-opacity:0.75;stroke:#0272a2;stroke-opacity:0.75;stroke-width:0.3;" x="280.8" xlink:href="#m5a5ce90c60" y="210.907553"/>
     <use style="fill:#0272a2;fill-opacity:0.75;stroke:#0272a2;stroke-opacity:0.75;stroke-width:0.3;" x="324" xlink:href="#m5a5ce90c60" y="171.560951"/>
     <use style="fill:#0272a2;fill-opacity:0.75;stroke:#0272a2;stroke-opacity:0.75;stroke-width:0.3;" x="324" xlink:href="#m5a5ce90c60" y="207.562289"/>
     <use style="fill:#0272a2;fill-opacity:0.75;stroke:#0272a2;stroke-opacity:0.75;stroke-width:0.3;" x="309.6" xlink:href="#m5a5ce90c60" y="194.501542"/>
     <use style="fill:#0272a2;fill-opacity:0.75;stroke:#0272a2;stroke-opacity:0.75;stroke-width:0.3;" x="381.6" xlink:href="#m5a5ce90c60" y="150.262244"/>
     <use style="fill:#0272a2;fill-opacity:0.75;stroke:#0272a2;stroke-opacity:0.75;stroke-width:0.3;" x="338.4" xlink:href="#m5a5ce90c60" y="173.466837"/>
     <use style="fill:#0272a2;fill-opacity:0.75;stroke:#0272a2;stroke-opacity:0.75;stroke-width:0.3;" x="288" xlink:href="#m5a5ce90c60" y="215.286924"/>
     <use style="fill:#0272a2;fill-opacity:0.75;stroke:#0272a2;stroke-opacity:0.75;stroke-width:0.3;" x="288" xlink:href="#m5a5ce90c60" y="216.784501"/>
     <use style="fill:#0272a2;fill-opacity:0.75;stroke:#0272a2;stroke-opacity:0.75;stroke-width:0.3;" x="403.2" xlink:href="#m5a5ce90c60" y="142.490105"/>
     <use style="fill:#0272a2;fill-opacity:0.75;stroke:#0272a2;stroke-opacity:0.75;stroke-width:0.3;" x="352.8" xlink:href="#m5a5ce90c60" y="171.139224"/>
     <use style="fill:#0272a2;fill-opacity:0.75;stroke:#0272a2;stroke-opacity:0.75;stroke-width:0.3;" x="338.4" xlink:href="#m5a5ce90c60" y="146.941368"/>
     <use style="fill:#0272a2;fill-opacity:0.75;stroke:#0272a2;stroke-opacity:0.75;stroke-width:0.3;" x="381.6" xlink:href="#m5a5ce90c60" y="169.21957"/>
     <use style="fill:#0272a2;fill-opacity:0.75;stroke:#0272a2;stroke-opacity:0.75;stroke-width:0.3;" x="259.2" xlink:href="#m5a5ce90c60" y="219.843599"/>
     <use style="fill:#0272a2;fill-opacity:0.75;stroke:#0272a2;stroke-opacity:0.75;stroke-width:0.3;" x="410.4" xlink:href="#m5a5ce90c60" y="127.889475"/>
     <use style="fill:#0272a2;fill-opacity:0.75;stroke:#0272a2;stroke-opacity:0.75;stroke-width:0.3;" x="309.6" xlink:href="#m5a5ce90c60" y="178.092232"/>
     <use style="fill:#0272a2;fill-opacity:0.75;stroke:#0272a2;stroke-opacity:0.75;stroke-width:0.3;" x="324" xlink:href="#m5a5ce90c60" y="181.231581"/>
     <use style="fill:#0272a2;fill-opacity:0.75;stroke:#0272a2;stroke-opacity:0.75;stroke-width:0.3;" x="295.2" xlink:href="#m5a5ce90c60" y="199.101949"/>
     <use style="fill:#0272a2;fill-opacity:0.75;stroke:#0272a2;stroke-opacity:0.75;stroke-width:0.3;" x="432" xlink:href="#m5a5ce90c60" y="129.225471"/>
     <use style="fill:#0272a2;fill-opacity:0.75;stroke:#0272a2;stroke-opacity:0.75;stroke-width:0.3;" x="151.2" xlink:href="#m5a5ce90c60" y="300.361663"/>
     <use style="fill:#0272a2;fill-opacity:0.75;stroke:#0272a2;stroke-opacity:0.75;stroke-width:0.3;" x="316.8" xlink:href="#m5a5ce90c60" y="180.334059"/>
     <use style="fill:#0272a2;fill-opacity:0.75;stroke:#0272a2;stroke-opacity:0.75;stroke-width:0.3;" x="439.2" xlink:href="#m5a5ce90c60" y="109.081226"/>
     <use style="fill:#0272a2;fill-opacity:0.75;stroke:#0272a2;stroke-opacity:0.75;stroke-width:0.3;" x="295.2" xlink:href="#m5a5ce90c60" y="211.824948"/>
     <use style="fill:#0272a2;fill-opacity:0.75;stroke:#0272a2;stroke-opacity:0.75;stroke-width:0.3;" x="381.6" xlink:href="#m5a5ce90c60" y="149.320519"/>
    </g>
   </g>
   <g id="line2d_25">
    <path clip-path="url(#p51a8f5a481)" d="M 128.88 300.329452 
L 132.24 298.324537 
L 135.6 296.319622 
L 138.96 294.314707 
L 142.32 292.309792 
L 145.68 290.304877 
L 149.04 288.299962 
L 152.4 286.295047 
L 155.76 284.290132 
L 159.12 282.285217 
L 162.48 280.280302 
L 165.84 278.275387 
L 169.2 276.270472 
L 172.56 274.265557 
L 175.92 272.260642 
L 179.28 270.255727 
L 182.64 268.250812 
L 186 266.245897 
L 189.36 264.240982 
L 192.72 262.236066 
L 196.08 260.231151 
L 199.44 258.226236 
L 202.8 256.221321 
L 206.16 254.216406 
L 209.52 252.211491 
L 212.88 250.206576 
L 216.24 248.201661 
L 219.6 246.196746 
L 222.96 244.191831 
L 226.32 242.186916 
L 229.68 240.182001 
L 233.04 238.177086 
L 236.4 236.172171 
L 239.76 234.167256 
L 243.12 232.162341 
L 246.48 230.157426 
L 249.84 228.152511 
L 253.2 226.147596 
L 256.56 224.142681 
L 259.92 222.137766 
L 263.28 220.13285 
L 266.64 218.127935 
L 270 216.12302 
L 273.36 214.118105 
L 276.72 212.11319 
L 280.08 210.108275 
L 283.44 208.10336 
L 286.8 206.098445 
L 290.16 204.09353 
L 293.52 202.088615 
L 296.88 200.0837 
L 300.24 198.078785 
L 303.6 196.07387 
L 306.96 194.068955 
L 310.32 192.06404 
L 313.68 190.059125 
L 317.04 188.05421 
L 320.4 186.049295 
L 323.76 184.04438 
L 327.12 182.039465 
L 330.48 180.03455 
L 333.84 178.029634 
L 337.2 176.024719 
L 340.56 174.019804 
L 343.92 172.014889 
L 347.28 170.009974 
L 350.64 168.005059 
L 354 166.000144 
L 357.36 163.995229 
L 360.72 161.990314 
L 364.08 159.985399 
L 367.44 157.980484 
L 370.8 155.975569 
L 374.16 153.970654 
L 377.52 151.965739 
L 380.88 149.960824 
L 384.24 147.955909 
L 387.6 145.950994 
L 390.96 143.946079 
L 394.32 141.941164 
L 397.68 139.936249 
L 401.04 137.931334 
L 404.4 135.926418 
L 407.76 133.921503 
L 411.12 131.916588 
L 414.48 129.911673 
L 417.84 127.906758 
L 421.2 125.901843 
L 424.56 123.896928 
L 427.92 121.892013 
L 431.28 119.887098 
L 434.64 117.882183 
L 438 115.877268 
L 441.36 113.872353 
L 444.72 111.867438 
L 448.08 109.862523 
L 451.44 107.857608 
L 454.8 105.852693 
L 458.16 103.847778 
L 461.52 101.842863 
" style="fill:none;stroke:#111111;stroke-dasharray:7.4,3.2;stroke-dashoffset:0;stroke-width:2;"/>
   </g>
   <g id="patch_3">
    <path d="M 72 346.5 
L 72 47.52 
" style="fill:none;stroke:#cccccc;stroke-linecap:square;stroke-linejoin:miter;stroke-width:1.25;"/>
   </g>
   <g id="patch_4">
    <path d="M 518.4 346.5 
L 518.4 47.52 
" style="fill:none;stroke:#cccccc;stroke-linecap:square;stroke-linejoin:miter;stroke-width:1.25;"/>
   </g>
   <g id="patch_5">
    <path d="M 72 346.5 
L 518.4 346.5 
" style="fill:none;stroke:#cccccc;stroke-linecap:square;stroke-linejoin:miter;stroke-width:1.25;"/>
   </g>
   <g id="patch_6">
    <path d="M 72 47.52 
L 518.4 47.52 
" style="fill:none;stroke:#cccccc;stroke-linecap:square;stroke-linejoin:miter;stroke-width:1.25;"/>
   </g>
  </g>
 </g>
 <defs>
  <clipPath id="p51a8f5a481">
   <rect height="298.98" width="446.4" x="72" y="47.52"/>
  </clipPath>
 </defs>
</svg>
