<?xml version="1.0" encoding="utf-8" standalone="no"?>
<!DOCTYPE svg PUBLIC "-//W3C//DTD SVG 1.1//EN"
  "http://www.w3.org/Graphics/SVG/1.1/DTD/svg11.dtd">
<!-- Created with matplotlib (https://matplotlib.org/) -->
<svg height="396pt" version="1.1" viewBox="0 0 576 396" width="576pt" xmlns="http://www.w3.org/2000/svg" xmlns:xlink="http://www.w3.org/1999/xlink">
 <metadata>
  <rdf:RDF xmlns:cc="http://creativecommons.org/ns#" xmlns:dc="http://purl.org/dc/elements/1.1/" xmlns:rdf="http://www.w3.org/1999/02/22-rdf-syntax-ns#">
   <cc:Work>
    <dc:type rdf:resource="http://purl.org/dc/dcmitype/StillImage"/>
    <dc:date>2021-01-21T19:04:21.266612</dc:date>
    <dc:format>image/svg+xml</dc:format>
    <dc:creator>
     <cc:Agent>
      <dc:title>Matplotlib v3.3.3, https://matplotlib.org/</dc:title>
     </cc:Agent>
    </dc:creator>
   </cc:Work>
  </rdf:RDF>
 </metadata>
 <defs>
  <style type="text/css">*{stroke-linecap:butt;stroke-linejoin:round;}</style>
 </defs>
 <g id="figure_1">
  <g id="patch_1">
   <path d="M 0 396 
L 576 396 
L 576 0 
L 0 0 
z
" style="fill:#ffffff;"/>
  </g>
  <g id="axes_1">
   <g id="patch_2">
    <path d="M 72 346.5 
L 518.4 346.5 
L 518.4 47.52 
L 72 47.52 
z
" style="fill:#ffffff;"/>
   </g>
   <g id="matplotlib.axis_1">
    <g id="xtick_1">
     <g id="line2d_1">
      <path clip-path="url(#p4d2d9fc6a5)" d="M 123.017143 346.5 
L 123.017143 47.52 
" style="fill:none;stroke:#cccccc;stroke-linecap:round;"/>
     </g>
     <g id="line2d_2"/>
     <g id="text_1">
      <!-- 3 -->
      <g style="fill:#262626;" transform="translate(120.236674 360.657812)scale(0.1 -0.1)">
       <defs>
        <path d="M 4.203125 18.890625 
L 12.984375 20.0625 
Q 14.5 12.59375 18.140625 9.296875 
Q 21.78125 6 27 6 
Q 33.203125 6 37.46875 10.296875 
Q 41.75 14.59375 41.75 20.953125 
Q 41.75 27 37.796875 30.921875 
Q 33.84375 34.859375 27.734375 34.859375 
Q 25.25 34.859375 21.53125 33.890625 
L 22.515625 41.609375 
Q 23.390625 41.5 23.921875 41.5 
Q 29.546875 41.5 34.03125 44.421875 
Q 38.53125 47.359375 38.53125 53.46875 
Q 38.53125 58.296875 35.25 61.46875 
Q 31.984375 64.65625 26.8125 64.65625 
Q 21.6875 64.65625 18.265625 61.421875 
Q 14.84375 58.203125 13.875 51.765625 
L 5.078125 53.328125 
Q 6.6875 62.15625 12.390625 67.015625 
Q 18.109375 71.875 26.609375 71.875 
Q 32.46875 71.875 37.390625 69.359375 
Q 42.328125 66.84375 44.9375 62.5 
Q 47.5625 58.15625 47.5625 53.265625 
Q 47.5625 48.640625 45.0625 44.828125 
Q 42.578125 41.015625 37.703125 38.765625 
Q 44.046875 37.3125 47.5625 32.6875 
Q 51.078125 28.078125 51.078125 21.140625 
Q 51.078125 11.765625 44.234375 5.25 
Q 37.40625 -1.265625 26.953125 -1.265625 
Q 17.53125 -1.265625 11.296875 4.34375 
Q 5.078125 9.96875 4.203125 18.890625 
z
" id="ArialMT-51"/>
       </defs>
       <use xlink:href="#ArialMT-51"/>
      </g>
     </g>
    </g>
    <g id="xtick_2">
     <g id="line2d_3">
      <path clip-path="url(#p4d2d9fc6a5)" d="M 186.788571 346.5 
L 186.788571 47.52 
" style="fill:none;stroke:#cccccc;stroke-linecap:round;"/>
     </g>
     <g id="line2d_4"/>
     <g id="text_2">
      <!-- 4 -->
      <g style="fill:#262626;" transform="translate(184.008103 360.657812)scale(0.1 -0.1)">
       <defs>
        <path d="M 32.328125 0 
L 32.328125 17.140625 
L 1.265625 17.140625 
L 1.265625 25.203125 
L 33.9375 71.578125 
L 41.109375 71.578125 
L 41.109375 25.203125 
L 50.78125 25.203125 
L 50.78125 17.140625 
L 41.109375 17.140625 
L 41.109375 0 
z
M 32.328125 25.203125 
L 32.328125 57.46875 
L 9.90625 25.203125 
z
" id="ArialMT-52"/>
       </defs>
       <use xlink:href="#ArialMT-52"/>
      </g>
     </g>
    </g>
    <g id="xtick_3">
     <g id="line2d_5">
      <path clip-path="url(#p4d2d9fc6a5)" d="M 250.56 346.5 
L 250.56 47.52 
" style="fill:none;stroke:#cccccc;stroke-linecap:round;"/>
     </g>
     <g id="line2d_6"/>
     <g id="text_3">
      <!-- 5 -->
      <g style="fill:#262626;" transform="translate(247.779531 360.657812)scale(0.1 -0.1)">
       <defs>
        <path d="M 4.15625 18.75 
L 13.375 19.53125 
Q 14.40625 12.796875 18.140625 9.390625 
Q 21.875 6 27.15625 6 
Q 33.5 6 37.890625 10.78125 
Q 42.28125 15.578125 42.28125 23.484375 
Q 42.28125 31 38.0625 35.34375 
Q 33.84375 39.703125 27 39.703125 
Q 22.75 39.703125 19.328125 37.765625 
Q 15.921875 35.84375 13.96875 32.765625 
L 5.71875 33.84375 
L 12.640625 70.609375 
L 48.25 70.609375 
L 48.25 62.203125 
L 19.671875 62.203125 
L 15.828125 42.96875 
Q 22.265625 47.46875 29.34375 47.46875 
Q 38.71875 47.46875 45.15625 40.96875 
Q 51.609375 34.46875 51.609375 24.265625 
Q 51.609375 14.546875 45.953125 7.46875 
Q 39.0625 -1.21875 27.15625 -1.21875 
Q 17.390625 -1.21875 11.203125 4.25 
Q 5.03125 9.71875 4.15625 18.75 
z
" id="ArialMT-53"/>
       </defs>
       <use xlink:href="#ArialMT-53"/>
      </g>
     </g>
    </g>
    <g id="xtick_4">
     <g id="line2d_7">
      <path clip-path="url(#p4d2d9fc6a5)" d="M 314.331429 346.5 
L 314.331429 47.52 
" style="fill:none;stroke:#cccccc;stroke-linecap:round;"/>
     </g>
     <g id="line2d_8"/>
     <g id="text_4">
      <!-- 6 -->
      <g style="fill:#262626;" transform="translate(311.55096 360.657812)scale(0.1 -0.1)">
       <defs>
        <path d="M 49.75 54.046875 
L 41.015625 53.375 
Q 39.84375 58.546875 37.703125 60.890625 
Q 34.125 64.65625 28.90625 64.65625 
Q 24.703125 64.65625 21.53125 62.3125 
Q 17.390625 59.28125 14.984375 53.46875 
Q 12.59375 47.65625 12.5 36.921875 
Q 15.671875 41.75 20.265625 44.09375 
Q 24.859375 46.4375 29.890625 46.4375 
Q 38.671875 46.4375 44.84375 39.96875 
Q 51.03125 33.5 51.03125 23.25 
Q 51.03125 16.5 48.125 10.71875 
Q 45.21875 4.9375 40.140625 1.859375 
Q 35.0625 -1.21875 28.609375 -1.21875 
Q 17.625 -1.21875 10.6875 6.859375 
Q 3.765625 14.9375 3.765625 33.5 
Q 3.765625 54.25 11.421875 63.671875 
Q 18.109375 71.875 29.4375 71.875 
Q 37.890625 71.875 43.28125 67.140625 
Q 48.6875 62.40625 49.75 54.046875 
z
M 13.875 23.1875 
Q 13.875 18.65625 15.796875 14.5 
Q 17.71875 10.359375 21.1875 8.171875 
Q 24.65625 6 28.46875 6 
Q 34.03125 6 38.03125 10.484375 
Q 42.046875 14.984375 42.046875 22.703125 
Q 42.046875 30.125 38.078125 34.390625 
Q 34.125 38.671875 28.125 38.671875 
Q 22.171875 38.671875 18.015625 34.390625 
Q 13.875 30.125 13.875 23.1875 
z
" id="ArialMT-54"/>
       </defs>
       <use xlink:href="#ArialMT-54"/>
      </g>
     </g>
    </g>
    <g id="xtick_5">
     <g id="line2d_9">
      <path clip-path="url(#p4d2d9fc6a5)" d="M 378.102857 346.5 
L 378.102857 47.52 
" style="fill:none;stroke:#cccccc;stroke-linecap:round;"/>
     </g>
     <g id="line2d_10"/>
     <g id="text_5">
      <!-- 7 -->
      <g style="fill:#262626;" transform="translate(375.322388 360.657812)scale(0.1 -0.1)">
       <defs>
        <path d="M 4.734375 62.203125 
L 4.734375 70.65625 
L 51.078125 70.65625 
L 51.078125 63.8125 
Q 44.234375 56.546875 37.515625 44.484375 
Q 30.8125 32.421875 27.15625 19.671875 
Q 24.515625 10.6875 23.78125 0 
L 14.75 0 
Q 14.890625 8.453125 18.0625 20.40625 
Q 21.234375 32.375 27.171875 43.484375 
Q 33.109375 54.59375 39.796875 62.203125 
z
" id="ArialMT-55"/>
       </defs>
       <use xlink:href="#ArialMT-55"/>
      </g>
     </g>
    </g>
    <g id="xtick_6">
     <g id="line2d_11">
      <path clip-path="url(#p4d2d9fc6a5)" d="M 441.874286 346.5 
L 441.874286 47.52 
" style="fill:none;stroke:#cccccc;stroke-linecap:round;"/>
     </g>
     <g id="line2d_12"/>
     <g id="text_6">
      <!-- 8 -->
      <g style="fill:#262626;" transform="translate(439.093817 360.657812)scale(0.1 -0.1)">
       <defs>
        <path d="M 17.671875 38.8125 
Q 12.203125 40.828125 9.5625 44.53125 
Q 6.9375 48.25 6.9375 53.421875 
Q 6.9375 61.234375 12.546875 66.546875 
Q 18.171875 71.875 27.484375 71.875 
Q 36.859375 71.875 42.578125 66.421875 
Q 48.296875 60.984375 48.296875 53.171875 
Q 48.296875 48.1875 45.671875 44.5 
Q 43.0625 40.828125 37.75 38.8125 
Q 44.34375 36.671875 47.78125 31.875 
Q 51.21875 27.09375 51.21875 20.453125 
Q 51.21875 11.28125 44.71875 5.03125 
Q 38.234375 -1.21875 27.640625 -1.21875 
Q 17.046875 -1.21875 10.546875 5.046875 
Q 4.046875 11.328125 4.046875 20.703125 
Q 4.046875 27.6875 7.59375 32.390625 
Q 11.140625 37.109375 17.671875 38.8125 
z
M 15.921875 53.71875 
Q 15.921875 48.640625 19.1875 45.40625 
Q 22.46875 42.1875 27.6875 42.1875 
Q 32.765625 42.1875 36.015625 45.375 
Q 39.265625 48.578125 39.265625 53.21875 
Q 39.265625 58.0625 35.90625 61.359375 
Q 32.5625 64.65625 27.59375 64.65625 
Q 22.5625 64.65625 19.234375 61.421875 
Q 15.921875 58.203125 15.921875 53.71875 
z
M 13.09375 20.65625 
Q 13.09375 16.890625 14.875 13.375 
Q 16.65625 9.859375 20.171875 7.921875 
Q 23.6875 6 27.734375 6 
Q 34.03125 6 38.125 10.046875 
Q 42.234375 14.109375 42.234375 20.359375 
Q 42.234375 26.703125 38.015625 30.859375 
Q 33.796875 35.015625 27.4375 35.015625 
Q 21.234375 35.015625 17.15625 30.90625 
Q 13.09375 26.8125 13.09375 20.65625 
z
" id="ArialMT-56"/>
       </defs>
       <use xlink:href="#ArialMT-56"/>
      </g>
     </g>
    </g>
    <g id="xtick_7">
     <g id="line2d_13">
      <path clip-path="url(#p4d2d9fc6a5)" d="M 505.645714 346.5 
L 505.645714 47.52 
" style="fill:none;stroke:#cccccc;stroke-linecap:round;"/>
     </g>
     <g id="line2d_14"/>
     <g id="text_7">
      <!-- 9 -->
      <g style="fill:#262626;" transform="translate(502.865246 360.657812)scale(0.1 -0.1)">
       <defs>
        <path d="M 5.46875 16.546875 
L 13.921875 17.328125 
Q 14.984375 11.375 18.015625 8.6875 
Q 21.046875 6 25.78125 6 
Q 29.828125 6 32.875 7.859375 
Q 35.9375 9.71875 37.890625 12.8125 
Q 39.84375 15.921875 41.15625 21.1875 
Q 42.484375 26.46875 42.484375 31.9375 
Q 42.484375 32.515625 42.4375 33.6875 
Q 39.796875 29.5 35.234375 26.875 
Q 30.671875 24.265625 25.34375 24.265625 
Q 16.453125 24.265625 10.296875 30.703125 
Q 4.15625 37.15625 4.15625 47.703125 
Q 4.15625 58.59375 10.578125 65.234375 
Q 17 71.875 26.65625 71.875 
Q 33.640625 71.875 39.421875 68.109375 
Q 45.21875 64.359375 48.21875 57.390625 
Q 51.21875 50.4375 51.21875 37.25 
Q 51.21875 23.53125 48.234375 15.40625 
Q 45.265625 7.28125 39.375 3.03125 
Q 33.5 -1.21875 25.59375 -1.21875 
Q 17.1875 -1.21875 11.859375 3.4375 
Q 6.546875 8.109375 5.46875 16.546875 
z
M 41.453125 48.140625 
Q 41.453125 55.71875 37.421875 60.15625 
Q 33.40625 64.59375 27.734375 64.59375 
Q 21.875 64.59375 17.53125 59.8125 
Q 13.1875 55.03125 13.1875 47.40625 
Q 13.1875 40.578125 17.3125 36.296875 
Q 21.4375 32.03125 27.484375 32.03125 
Q 33.59375 32.03125 37.515625 36.296875 
Q 41.453125 40.578125 41.453125 48.140625 
z
" id="ArialMT-57"/>
       </defs>
       <use xlink:href="#ArialMT-57"/>
      </g>
     </g>
    </g>
   </g>
   <g id="matplotlib.axis_2">
    <g id="ytick_1">
     <g id="line2d_15">
      <path clip-path="url(#p4d2d9fc6a5)" d="M 72 313.440729 
L 518.4 313.440729 
" style="fill:none;stroke:#cccccc;stroke-linecap:round;"/>
     </g>
     <g id="line2d_16"/>
     <g id="text_8">
      <!-- 4.5 -->
      <g style="fill:#262626;" transform="translate(51.1 317.019635)scale(0.1 -0.1)">
       <defs>
        <path d="M 9.078125 0 
L 9.078125 10.015625 
L 19.09375 10.015625 
L 19.09375 0 
z
" id="ArialMT-46"/>
       </defs>
       <use xlink:href="#ArialMT-52"/>
       <use x="55.615234" xlink:href="#ArialMT-46"/>
       <use x="83.398438" xlink:href="#ArialMT-53"/>
      </g>
     </g>
    </g>
    <g id="ytick_2">
     <g id="line2d_17">
      <path clip-path="url(#p4d2d9fc6a5)" d="M 72 277.900268 
L 518.4 277.900268 
" style="fill:none;stroke:#cccccc;stroke-linecap:round;"/>
     </g>
     <g id="line2d_18"/>
     <g id="text_9">
      <!-- 5.0 -->
      <g style="fill:#262626;" transform="translate(51.1 281.479174)scale(0.1 -0.1)">
       <defs>
        <path d="M 4.15625 35.296875 
Q 4.15625 48 6.765625 55.734375 
Q 9.375 63.484375 14.515625 67.671875 
Q 19.671875 71.875 27.484375 71.875 
Q 33.25 71.875 37.59375 69.546875 
Q 41.9375 67.234375 44.765625 62.859375 
Q 47.609375 58.5 49.21875 52.21875 
Q 50.828125 45.953125 50.828125 35.296875 
Q 50.828125 22.703125 48.234375 14.96875 
Q 45.65625 7.234375 40.5 3 
Q 35.359375 -1.21875 27.484375 -1.21875 
Q 17.140625 -1.21875 11.234375 6.203125 
Q 4.15625 15.140625 4.15625 35.296875 
z
M 13.1875 35.296875 
Q 13.1875 17.671875 17.3125 11.828125 
Q 21.4375 6 27.484375 6 
Q 33.546875 6 37.671875 11.859375 
Q 41.796875 17.71875 41.796875 35.296875 
Q 41.796875 52.984375 37.671875 58.78125 
Q 33.546875 64.59375 27.390625 64.59375 
Q 21.34375 64.59375 17.71875 59.46875 
Q 13.1875 52.9375 13.1875 35.296875 
z
" id="ArialMT-48"/>
       </defs>
       <use xlink:href="#ArialMT-53"/>
       <use x="55.615234" xlink:href="#ArialMT-46"/>
       <use x="83.398438" xlink:href="#ArialMT-48"/>
      </g>
     </g>
    </g>
    <g id="ytick_3">
     <g id="line2d_19">
      <path clip-path="url(#p4d2d9fc6a5)" d="M 72 242.359807 
L 518.4 242.359807 
" style="fill:none;stroke:#cccccc;stroke-linecap:round;"/>
     </g>
     <g id="line2d_20"/>
     <g id="text_10">
      <!-- 5.5 -->
      <g style="fill:#262626;" transform="translate(51.1 245.938713)scale(0.1 -0.1)">
       <use xlink:href="#ArialMT-53"/>
       <use x="55.615234" xlink:href="#ArialMT-46"/>
       <use x="83.398438" xlink:href="#ArialMT-53"/>
      </g>
     </g>
    </g>
    <g id="ytick_4">
     <g id="line2d_21">
      <path clip-path="url(#p4d2d9fc6a5)" d="M 72 206.819346 
L 518.4 206.819346 
" style="fill:none;stroke:#cccccc;stroke-linecap:round;"/>
     </g>
     <g id="line2d_22"/>
     <g id="text_11">
      <!-- 6.0 -->
      <g style="fill:#262626;" transform="translate(51.1 210.398253)scale(0.1 -0.1)">
       <use xlink:href="#ArialMT-54"/>
       <use x="55.615234" xlink:href="#ArialMT-46"/>
       <use x="83.398438" xlink:href="#ArialMT-48"/>
      </g>
     </g>
    </g>
    <g id="ytick_5">
     <g id="line2d_23">
      <path clip-path="url(#p4d2d9fc6a5)" d="M 72 171.278886 
L 518.4 171.278886 
" style="fill:none;stroke:#cccccc;stroke-linecap:round;"/>
     </g>
     <g id="line2d_24"/>
     <g id="text_12">
      <!-- 6.5 -->
      <g style="fill:#262626;" transform="translate(51.1 174.857792)scale(0.1 -0.1)">
       <use xlink:href="#ArialMT-54"/>
       <use x="55.615234" xlink:href="#ArialMT-46"/>
       <use x="83.398438" xlink:href="#ArialMT-53"/>
      </g>
     </g>
    </g>
    <g id="ytick_6">
     <g id="line2d_25">
      <path clip-path="url(#p4d2d9fc6a5)" d="M 72 135.738425 
L 518.4 135.738425 
" style="fill:none;stroke:#cccccc;stroke-linecap:round;"/>
     </g>
     <g id="line2d_26"/>
     <g id="text_13">
      <!-- 7.0 -->
      <g style="fill:#262626;" transform="translate(51.1 139.317331)scale(0.1 -0.1)">
       <use xlink:href="#ArialMT-55"/>
       <use x="55.615234" xlink:href="#ArialMT-46"/>
       <use x="83.398438" xlink:href="#ArialMT-48"/>
      </g>
     </g>
    </g>
    <g id="ytick_7">
     <g id="line2d_27">
      <path clip-path="url(#p4d2d9fc6a5)" d="M 72 100.197964 
L 518.4 100.197964 
" style="fill:none;stroke:#cccccc;stroke-linecap:round;"/>
     </g>
     <g id="line2d_28"/>
     <g id="text_14">
      <!-- 7.5 -->
      <g style="fill:#262626;" transform="translate(51.1 103.77687)scale(0.1 -0.1)">
       <use xlink:href="#ArialMT-55"/>
       <use x="55.615234" xlink:href="#ArialMT-46"/>
       <use x="83.398438" xlink:href="#ArialMT-53"/>
      </g>
     </g>
    </g>
    <g id="ytick_8">
     <g id="line2d_29">
      <path clip-path="url(#p4d2d9fc6a5)" d="M 72 64.657503 
L 518.4 64.657503 
" style="fill:none;stroke:#cccccc;stroke-linecap:round;"/>
     </g>
     <g id="line2d_30"/>
     <g id="text_15">
      <!-- 8.0 -->
      <g style="fill:#262626;" transform="translate(51.1 68.236409)scale(0.1 -0.1)">
       <use xlink:href="#ArialMT-56"/>
       <use x="55.615234" xlink:href="#ArialMT-46"/>
       <use x="83.398438" xlink:href="#ArialMT-48"/>
      </g>
     </g>
    </g>
   </g>
   <g id="PathCollection_1">
    <defs>
     <path d="M 0 3.5 
C 0.928211 3.5 1.81853 3.131218 2.474874 2.474874 
C 3.131218 1.81853 3.5 0.928211 3.5 0 
C 3.5 -0.928211 3.131218 -1.81853 2.474874 -2.474874 
C 1.81853 -3.131218 0.928211 -3.5 0 -3.5 
C -0.928211 -3.5 -1.81853 -3.131218 -2.474874 -2.474874 
C -3.131218 -1.81853 -3.5 -0.928211 -3.5 0 
C -3.5 0.928211 -3.131218 1.81853 -2.474874 2.474874 
C -1.81853 3.131218 -0.928211 3.5 0 3.5 
z
" id="mdea7515bc2" style="stroke:#0272a2;stroke-opacity:0.75;stroke-width:0.3;"/>
    </defs>
    <g clip-path="url(#p4d2d9fc6a5)">
     <use style="fill:#0272a2;fill-opacity:0.75;stroke:#0272a2;stroke-opacity:0.75;stroke-width:0.3;" x="231.428571" xlink:href="#mdea7515bc2" y="227.074859"/>
     <use style="fill:#0272a2;fill-opacity:0.75;stroke:#0272a2;stroke-opacity:0.75;stroke-width:0.3;" x="339.84" xlink:href="#mdea7515bc2" y="169.531236"/>
     <use style="fill:#0272a2;fill-opacity:0.75;stroke:#0272a2;stroke-opacity:0.75;stroke-width:0.3;" x="301.577143" xlink:href="#mdea7515bc2" y="212.43125"/>
     <use style="fill:#0272a2;fill-opacity:0.75;stroke:#0272a2;stroke-opacity:0.75;stroke-width:0.3;" x="339.84" xlink:href="#mdea7515bc2" y="220.551565"/>
     <use style="fill:#0272a2;fill-opacity:0.75;stroke:#0272a2;stroke-opacity:0.75;stroke-width:0.3;" x="333.462857" xlink:href="#mdea7515bc2" y="193.723611"/>
     <use style="fill:#0272a2;fill-opacity:0.75;stroke:#0272a2;stroke-opacity:0.75;stroke-width:0.3;" x="339.84" xlink:href="#mdea7515bc2" y="206.318211"/>
     <use style="fill:#0272a2;fill-opacity:0.75;stroke:#0272a2;stroke-opacity:0.75;stroke-width:0.3;" x="346.217143" xlink:href="#mdea7515bc2" y="158.59185"/>
     <use style="fill:#0272a2;fill-opacity:0.75;stroke:#0272a2;stroke-opacity:0.75;stroke-width:0.3;" x="250.56" xlink:href="#mdea7515bc2" y="229.009296"/>
     <use style="fill:#0272a2;fill-opacity:0.75;stroke:#0272a2;stroke-opacity:0.75;stroke-width:0.3;" x="282.445714" xlink:href="#mdea7515bc2" y="247.029081"/>
     <use style="fill:#0272a2;fill-opacity:0.75;stroke:#0272a2;stroke-opacity:0.75;stroke-width:0.3;" x="403.611429" xlink:href="#mdea7515bc2" y="130.358473"/>
     <use style="fill:#0272a2;fill-opacity:0.75;stroke:#0272a2;stroke-opacity:0.75;stroke-width:0.3;" x="225.051429" xlink:href="#mdea7515bc2" y="246.786169"/>
     <use style="fill:#0272a2;fill-opacity:0.75;stroke:#0272a2;stroke-opacity:0.75;stroke-width:0.3;" x="263.314286" xlink:href="#mdea7515bc2" y="248.565156"/>
     <use style="fill:#0272a2;fill-opacity:0.75;stroke:#0272a2;stroke-opacity:0.75;stroke-width:0.3;" x="288.822857" xlink:href="#mdea7515bc2" y="264.680394"/>
     <use style="fill:#0272a2;fill-opacity:0.75;stroke:#0272a2;stroke-opacity:0.75;stroke-width:0.3;" x="358.971429" xlink:href="#mdea7515bc2" y="231.737265"/>
     <use style="fill:#0272a2;fill-opacity:0.75;stroke:#0272a2;stroke-opacity:0.75;stroke-width:0.3;" x="237.805714" xlink:href="#mdea7515bc2" y="228.76303"/>
     <use style="fill:#0272a2;fill-opacity:0.75;stroke:#0272a2;stroke-opacity:0.75;stroke-width:0.3;" x="174.034286" xlink:href="#mdea7515bc2" y="254.615628"/>
     <use style="fill:#0272a2;fill-opacity:0.75;stroke:#0272a2;stroke-opacity:0.75;stroke-width:0.3;" x="327.085714" xlink:href="#mdea7515bc2" y="190.780798"/>
     <use style="fill:#0272a2;fill-opacity:0.75;stroke:#0272a2;stroke-opacity:0.75;stroke-width:0.3;" x="327.085714" xlink:href="#mdea7515bc2" y="218.555939"/>
     <use style="fill:#0272a2;fill-opacity:0.75;stroke:#0272a2;stroke-opacity:0.75;stroke-width:0.3;" x="244.182857" xlink:href="#mdea7515bc2" y="204.899637"/>
     <use style="fill:#0272a2;fill-opacity:0.75;stroke:#0272a2;stroke-opacity:0.75;stroke-width:0.3;" x="282.445714" xlink:href="#mdea7515bc2" y="191.339752"/>
     <use style="fill:#0272a2;fill-opacity:0.75;stroke:#0272a2;stroke-opacity:0.75;stroke-width:0.3;" x="244.182857" xlink:href="#mdea7515bc2" y="275.419078"/>
     <use style="fill:#0272a2;fill-opacity:0.75;stroke:#0272a2;stroke-opacity:0.75;stroke-width:0.3;" x="205.92" xlink:href="#mdea7515bc2" y="219.852225"/>
     <use style="fill:#0272a2;fill-opacity:0.75;stroke:#0272a2;stroke-opacity:0.75;stroke-width:0.3;" x="416.365714" xlink:href="#mdea7515bc2" y="148.464692"/>
     <use style="fill:#0272a2;fill-opacity:0.75;stroke:#0272a2;stroke-opacity:0.75;stroke-width:0.3;" x="378.102857" xlink:href="#mdea7515bc2" y="214.203202"/>
     <use style="fill:#0272a2;fill-opacity:0.75;stroke:#0272a2;stroke-opacity:0.75;stroke-width:0.3;" x="314.331429" xlink:href="#mdea7515bc2" y="202.592557"/>
     <use style="fill:#0272a2;fill-opacity:0.75;stroke:#0272a2;stroke-opacity:0.75;stroke-width:0.3;" x="314.331429" xlink:href="#mdea7515bc2" y="181.85853"/>
     <use style="fill:#0272a2;fill-opacity:0.75;stroke:#0272a2;stroke-opacity:0.75;stroke-width:0.3;" x="244.182857" xlink:href="#mdea7515bc2" y="251.600331"/>
     <use style="fill:#0272a2;fill-opacity:0.75;stroke:#0272a2;stroke-opacity:0.75;stroke-width:0.3;" x="263.314286" xlink:href="#mdea7515bc2" y="183.750507"/>
     <use style="fill:#0272a2;fill-opacity:0.75;stroke:#0272a2;stroke-opacity:0.75;stroke-width:0.3;" x="276.068571" xlink:href="#mdea7515bc2" y="212.139258"/>
     <use style="fill:#0272a2;fill-opacity:0.75;stroke:#0272a2;stroke-opacity:0.75;stroke-width:0.3;" x="320.708571" xlink:href="#mdea7515bc2" y="202.189624"/>
     <use style="fill:#0272a2;fill-opacity:0.75;stroke:#0272a2;stroke-opacity:0.75;stroke-width:0.3;" x="352.594286" xlink:href="#mdea7515bc2" y="129.486393"/>
     <use style="fill:#0272a2;fill-opacity:0.75;stroke:#0272a2;stroke-opacity:0.75;stroke-width:0.3;" x="256.937143" xlink:href="#mdea7515bc2" y="232.882879"/>
     <use style="fill:#0272a2;fill-opacity:0.75;stroke:#0272a2;stroke-opacity:0.75;stroke-width:0.3;" x="371.725714" xlink:href="#mdea7515bc2" y="201.129139"/>
     <use style="fill:#0272a2;fill-opacity:0.75;stroke:#0272a2;stroke-opacity:0.75;stroke-width:0.3;" x="301.577143" xlink:href="#mdea7515bc2" y="238.615963"/>
     <use style="fill:#0272a2;fill-opacity:0.75;stroke:#0272a2;stroke-opacity:0.75;stroke-width:0.3;" x="358.971429" xlink:href="#mdea7515bc2" y="213.337362"/>
     <use style="fill:#0272a2;fill-opacity:0.75;stroke:#0272a2;stroke-opacity:0.75;stroke-width:0.3;" x="301.577143" xlink:href="#mdea7515bc2" y="226.844799"/>
     <use style="fill:#0272a2;fill-opacity:0.75;stroke:#0272a2;stroke-opacity:0.75;stroke-width:0.3;" x="320.708571" xlink:href="#mdea7515bc2" y="203.312503"/>
     <use style="fill:#0272a2;fill-opacity:0.75;stroke:#0272a2;stroke-opacity:0.75;stroke-width:0.3;" x="225.051429" xlink:href="#mdea7515bc2" y="240.873166"/>
     <use style="fill:#0272a2;fill-opacity:0.75;stroke:#0272a2;stroke-opacity:0.75;stroke-width:0.3;" x="231.428571" xlink:href="#mdea7515bc2" y="229.102639"/>
     <use style="fill:#0272a2;fill-opacity:0.75;stroke:#0272a2;stroke-opacity:0.75;stroke-width:0.3;" x="256.937143" xlink:href="#mdea7515bc2" y="256.530533"/>
     <use style="fill:#0272a2;fill-opacity:0.75;stroke:#0272a2;stroke-opacity:0.75;stroke-width:0.3;" x="295.2" xlink:href="#mdea7515bc2" y="228.462036"/>
     <use style="fill:#0272a2;fill-opacity:0.75;stroke:#0272a2;stroke-opacity:0.75;stroke-width:0.3;" x="250.56" xlink:href="#mdea7515bc2" y="193.506028"/>
     <use style="fill:#0272a2;fill-opacity:0.75;stroke:#0272a2;stroke-opacity:0.75;stroke-width:0.3;" x="307.954286" xlink:href="#mdea7515bc2" y="184.613783"/>
     <use style="fill:#0272a2;fill-opacity:0.75;stroke:#0272a2;stroke-opacity:0.75;stroke-width:0.3;" x="256.937143" xlink:href="#mdea7515bc2" y="232.648645"/>
     <use style="fill:#0272a2;fill-opacity:0.75;stroke:#0272a2;stroke-opacity:0.75;stroke-width:0.3;" x="365.348571" xlink:href="#mdea7515bc2" y="189.811346"/>
     <use style="fill:#0272a2;fill-opacity:0.75;stroke:#0272a2;stroke-opacity:0.75;stroke-width:0.3;" x="390.857143" xlink:href="#mdea7515bc2" y="233.731039"/>
     <use style="fill:#0272a2;fill-opacity:0.75;stroke:#0272a2;stroke-opacity:0.75;stroke-width:0.3;" x="320.708571" xlink:href="#mdea7515bc2" y="238.473416"/>
     <use style="fill:#0272a2;fill-opacity:0.75;stroke:#0272a2;stroke-opacity:0.75;stroke-width:0.3;" x="263.314286" xlink:href="#mdea7515bc2" y="201.245931"/>
     <use style="fill:#0272a2;fill-opacity:0.75;stroke:#0272a2;stroke-opacity:0.75;stroke-width:0.3;" x="339.84" xlink:href="#mdea7515bc2" y="220.444295"/>
     <use style="fill:#0272a2;fill-opacity:0.75;stroke:#0272a2;stroke-opacity:0.75;stroke-width:0.3;" x="314.331429" xlink:href="#mdea7515bc2" y="246.130642"/>
     <use style="fill:#0272a2;fill-opacity:0.75;stroke:#0272a2;stroke-opacity:0.75;stroke-width:0.3;" x="225.051429" xlink:href="#mdea7515bc2" y="188.747649"/>
     <use style="fill:#0272a2;fill-opacity:0.75;stroke:#0272a2;stroke-opacity:0.75;stroke-width:0.3;" x="327.085714" xlink:href="#mdea7515bc2" y="239.622246"/>
     <use style="fill:#0272a2;fill-opacity:0.75;stroke:#0272a2;stroke-opacity:0.75;stroke-width:0.3;" x="371.725714" xlink:href="#mdea7515bc2" y="194.780557"/>
     <use style="fill:#0272a2;fill-opacity:0.75;stroke:#0272a2;stroke-opacity:0.75;stroke-width:0.3;" x="237.805714" xlink:href="#mdea7515bc2" y="251.652622"/>
     <use style="fill:#0272a2;fill-opacity:0.75;stroke:#0272a2;stroke-opacity:0.75;stroke-width:0.3;" x="346.217143" xlink:href="#mdea7515bc2" y="192.697542"/>
     <use style="fill:#0272a2;fill-opacity:0.75;stroke:#0272a2;stroke-opacity:0.75;stroke-width:0.3;" x="454.628571" xlink:href="#mdea7515bc2" y="130.092395"/>
     <use style="fill:#0272a2;fill-opacity:0.75;stroke:#0272a2;stroke-opacity:0.75;stroke-width:0.3;" x="327.085714" xlink:href="#mdea7515bc2" y="229.39472"/>
     <use style="fill:#0272a2;fill-opacity:0.75;stroke:#0272a2;stroke-opacity:0.75;stroke-width:0.3;" x="327.085714" xlink:href="#mdea7515bc2" y="168.005741"/>
     <use style="fill:#0272a2;fill-opacity:0.75;stroke:#0272a2;stroke-opacity:0.75;stroke-width:0.3;" x="352.594286" xlink:href="#mdea7515bc2" y="203.601485"/>
     <use style="fill:#0272a2;fill-opacity:0.75;stroke:#0272a2;stroke-opacity:0.75;stroke-width:0.3;" x="358.971429" xlink:href="#mdea7515bc2" y="170.029635"/>
     <use style="fill:#0272a2;fill-opacity:0.75;stroke:#0272a2;stroke-opacity:0.75;stroke-width:0.3;" x="250.56" xlink:href="#mdea7515bc2" y="220.190104"/>
     <use style="fill:#0272a2;fill-opacity:0.75;stroke:#0272a2;stroke-opacity:0.75;stroke-width:0.3;" x="327.085714" xlink:href="#mdea7515bc2" y="145.686562"/>
     <use style="fill:#0272a2;fill-opacity:0.75;stroke:#0272a2;stroke-opacity:0.75;stroke-width:0.3;" x="346.217143" xlink:href="#mdea7515bc2" y="208.974796"/>
     <use style="fill:#0272a2;fill-opacity:0.75;stroke:#0272a2;stroke-opacity:0.75;stroke-width:0.3;" x="250.56" xlink:href="#mdea7515bc2" y="235.302658"/>
     <use style="fill:#0272a2;fill-opacity:0.75;stroke:#0272a2;stroke-opacity:0.75;stroke-width:0.3;" x="314.331429" xlink:href="#mdea7515bc2" y="200.440229"/>
     <use style="fill:#0272a2;fill-opacity:0.75;stroke:#0272a2;stroke-opacity:0.75;stroke-width:0.3;" x="320.708571" xlink:href="#mdea7515bc2" y="230.061206"/>
     <use style="fill:#0272a2;fill-opacity:0.75;stroke:#0272a2;stroke-opacity:0.75;stroke-width:0.3;" x="301.577143" xlink:href="#mdea7515bc2" y="216.36955"/>
     <use style="fill:#0272a2;fill-opacity:0.75;stroke:#0272a2;stroke-opacity:0.75;stroke-width:0.3;" x="244.182857" xlink:href="#mdea7515bc2" y="257.897076"/>
     <use style="fill:#0272a2;fill-opacity:0.75;stroke:#0272a2;stroke-opacity:0.75;stroke-width:0.3;" x="397.234286" xlink:href="#mdea7515bc2" y="150.19067"/>
     <use style="fill:#0272a2;fill-opacity:0.75;stroke:#0272a2;stroke-opacity:0.75;stroke-width:0.3;" x="327.085714" xlink:href="#mdea7515bc2" y="252.194966"/>
     <use style="fill:#0272a2;fill-opacity:0.75;stroke:#0272a2;stroke-opacity:0.75;stroke-width:0.3;" x="301.577143" xlink:href="#mdea7515bc2" y="248.125569"/>
     <use style="fill:#0272a2;fill-opacity:0.75;stroke:#0272a2;stroke-opacity:0.75;stroke-width:0.3;" x="346.217143" xlink:href="#mdea7515bc2" y="152.089714"/>
     <use style="fill:#0272a2;fill-opacity:0.75;stroke:#0272a2;stroke-opacity:0.75;stroke-width:0.3;" x="295.2" xlink:href="#mdea7515bc2" y="228.227197"/>
     <use style="fill:#0272a2;fill-opacity:0.75;stroke:#0272a2;stroke-opacity:0.75;stroke-width:0.3;" x="225.051429" xlink:href="#mdea7515bc2" y="244.50834"/>
     <use style="fill:#0272a2;fill-opacity:0.75;stroke:#0272a2;stroke-opacity:0.75;stroke-width:0.3;" x="237.805714" xlink:href="#mdea7515bc2" y="188.638366"/>
     <use style="fill:#0272a2;fill-opacity:0.75;stroke:#0272a2;stroke-opacity:0.75;stroke-width:0.3;" x="314.331429" xlink:href="#mdea7515bc2" y="205.390306"/>
     <use style="fill:#0272a2;fill-opacity:0.75;stroke:#0272a2;stroke-opacity:0.75;stroke-width:0.3;" x="288.822857" xlink:href="#mdea7515bc2" y="227.492912"/>
     <use style="fill:#0272a2;fill-opacity:0.75;stroke:#0272a2;stroke-opacity:0.75;stroke-width:0.3;" x="199.542857" xlink:href="#mdea7515bc2" y="201.488047"/>
     <use style="fill:#0272a2;fill-opacity:0.75;stroke:#0272a2;stroke-opacity:0.75;stroke-width:0.3;" x="346.217143" xlink:href="#mdea7515bc2" y="163.432427"/>
     <use style="fill:#0272a2;fill-opacity:0.75;stroke:#0272a2;stroke-opacity:0.75;stroke-width:0.3;" x="301.577143" xlink:href="#mdea7515bc2" y="222.677407"/>
     <use style="fill:#0272a2;fill-opacity:0.75;stroke:#0272a2;stroke-opacity:0.75;stroke-width:0.3;" x="244.182857" xlink:href="#mdea7515bc2" y="188.636681"/>
     <use style="fill:#0272a2;fill-opacity:0.75;stroke:#0272a2;stroke-opacity:0.75;stroke-width:0.3;" x="282.445714" xlink:href="#mdea7515bc2" y="221.962495"/>
     <use style="fill:#0272a2;fill-opacity:0.75;stroke:#0272a2;stroke-opacity:0.75;stroke-width:0.3;" x="327.085714" xlink:href="#mdea7515bc2" y="152.744992"/>
     <use style="fill:#0272a2;fill-opacity:0.75;stroke:#0272a2;stroke-opacity:0.75;stroke-width:0.3;" x="199.542857" xlink:href="#mdea7515bc2" y="246.97153"/>
     <use style="fill:#0272a2;fill-opacity:0.75;stroke:#0272a2;stroke-opacity:0.75;stroke-width:0.3;" x="276.068571" xlink:href="#mdea7515bc2" y="198.470042"/>
     <use style="fill:#0272a2;fill-opacity:0.75;stroke:#0272a2;stroke-opacity:0.75;stroke-width:0.3;" x="365.348571" xlink:href="#mdea7515bc2" y="178.592829"/>
     <use style="fill:#0272a2;fill-opacity:0.75;stroke:#0272a2;stroke-opacity:0.75;stroke-width:0.3;" x="320.708571" xlink:href="#mdea7515bc2" y="191.049135"/>
     <use style="fill:#0272a2;fill-opacity:0.75;stroke:#0272a2;stroke-opacity:0.75;stroke-width:0.3;" x="263.314286" xlink:href="#mdea7515bc2" y="259.316772"/>
     <use style="fill:#0272a2;fill-opacity:0.75;stroke:#0272a2;stroke-opacity:0.75;stroke-width:0.3;" x="333.462857" xlink:href="#mdea7515bc2" y="224.486997"/>
     <use style="fill:#0272a2;fill-opacity:0.75;stroke:#0272a2;stroke-opacity:0.75;stroke-width:0.3;" x="237.805714" xlink:href="#mdea7515bc2" y="244.860896"/>
     <use style="fill:#0272a2;fill-opacity:0.75;stroke:#0272a2;stroke-opacity:0.75;stroke-width:0.3;" x="327.085714" xlink:href="#mdea7515bc2" y="160.249394"/>
     <use style="fill:#0272a2;fill-opacity:0.75;stroke:#0272a2;stroke-opacity:0.75;stroke-width:0.3;" x="295.2" xlink:href="#mdea7515bc2" y="181.485309"/>
     <use style="fill:#0272a2;fill-opacity:0.75;stroke:#0272a2;stroke-opacity:0.75;stroke-width:0.3;" x="269.691429" xlink:href="#mdea7515bc2" y="222.14207"/>
     <use style="fill:#0272a2;fill-opacity:0.75;stroke:#0272a2;stroke-opacity:0.75;stroke-width:0.3;" x="327.085714" xlink:href="#mdea7515bc2" y="198.56372"/>
     <use style="fill:#0272a2;fill-opacity:0.75;stroke:#0272a2;stroke-opacity:0.75;stroke-width:0.3;" x="256.937143" xlink:href="#mdea7515bc2" y="234.788664"/>
     <use style="fill:#0272a2;fill-opacity:0.75;stroke:#0272a2;stroke-opacity:0.75;stroke-width:0.3;" x="390.857143" xlink:href="#mdea7515bc2" y="183.724066"/>
     <use style="fill:#0272a2;fill-opacity:0.75;stroke:#0272a2;stroke-opacity:0.75;stroke-width:0.3;" x="282.445714" xlink:href="#mdea7515bc2" y="209.249153"/>
     <use style="fill:#0272a2;fill-opacity:0.75;stroke:#0272a2;stroke-opacity:0.75;stroke-width:0.3;" x="269.691429" xlink:href="#mdea7515bc2" y="209.109596"/>
     <use style="fill:#0272a2;fill-opacity:0.75;stroke:#0272a2;stroke-opacity:0.75;stroke-width:0.3;" x="205.92" xlink:href="#mdea7515bc2" y="239.189865"/>
     <use style="fill:#0272a2;fill-opacity:0.75;stroke:#0272a2;stroke-opacity:0.75;stroke-width:0.3;" x="250.56" xlink:href="#mdea7515bc2" y="250.79965"/>
     <use style="fill:#0272a2;fill-opacity:0.75;stroke:#0272a2;stroke-opacity:0.75;stroke-width:0.3;" x="244.182857" xlink:href="#mdea7515bc2" y="251.89683"/>
     <use style="fill:#0272a2;fill-opacity:0.75;stroke:#0272a2;stroke-opacity:0.75;stroke-width:0.3;" x="154.902857" xlink:href="#mdea7515bc2" y="257.646632"/>
     <use style="fill:#0272a2;fill-opacity:0.75;stroke:#0272a2;stroke-opacity:0.75;stroke-width:0.3;" x="282.445714" xlink:href="#mdea7515bc2" y="170.922435"/>
     <use style="fill:#0272a2;fill-opacity:0.75;stroke:#0272a2;stroke-opacity:0.75;stroke-width:0.3;" x="365.348571" xlink:href="#mdea7515bc2" y="122.298036"/>
     <use style="fill:#0272a2;fill-opacity:0.75;stroke:#0272a2;stroke-opacity:0.75;stroke-width:0.3;" x="276.068571" xlink:href="#mdea7515bc2" y="213.047331"/>
     <use style="fill:#0272a2;fill-opacity:0.75;stroke:#0272a2;stroke-opacity:0.75;stroke-width:0.3;" x="256.937143" xlink:href="#mdea7515bc2" y="215.395757"/>
     <use style="fill:#0272a2;fill-opacity:0.75;stroke:#0272a2;stroke-opacity:0.75;stroke-width:0.3;" x="365.348571" xlink:href="#mdea7515bc2" y="185.623852"/>
     <use style="fill:#0272a2;fill-opacity:0.75;stroke:#0272a2;stroke-opacity:0.75;stroke-width:0.3;" x="352.594286" xlink:href="#mdea7515bc2" y="218.454649"/>
     <use style="fill:#0272a2;fill-opacity:0.75;stroke:#0272a2;stroke-opacity:0.75;stroke-width:0.3;" x="237.805714" xlink:href="#mdea7515bc2" y="222.046772"/>
     <use style="fill:#0272a2;fill-opacity:0.75;stroke:#0272a2;stroke-opacity:0.75;stroke-width:0.3;" x="295.2" xlink:href="#mdea7515bc2" y="238.60111"/>
     <use style="fill:#0272a2;fill-opacity:0.75;stroke:#0272a2;stroke-opacity:0.75;stroke-width:0.3;" x="250.56" xlink:href="#mdea7515bc2" y="249.7679"/>
     <use style="fill:#0272a2;fill-opacity:0.75;stroke:#0272a2;stroke-opacity:0.75;stroke-width:0.3;" x="282.445714" xlink:href="#mdea7515bc2" y="182.43331"/>
     <use style="fill:#0272a2;fill-opacity:0.75;stroke:#0272a2;stroke-opacity:0.75;stroke-width:0.3;" x="269.691429" xlink:href="#mdea7515bc2" y="201.096232"/>
     <use style="fill:#0272a2;fill-opacity:0.75;stroke:#0272a2;stroke-opacity:0.75;stroke-width:0.3;" x="269.691429" xlink:href="#mdea7515bc2" y="248.811917"/>
     <use style="fill:#0272a2;fill-opacity:0.75;stroke:#0272a2;stroke-opacity:0.75;stroke-width:0.3;" x="333.462857" xlink:href="#mdea7515bc2" y="192.876809"/>
     <use style="fill:#0272a2;fill-opacity:0.75;stroke:#0272a2;stroke-opacity:0.75;stroke-width:0.3;" x="250.56" xlink:href="#mdea7515bc2" y="191.342271"/>
     <use style="fill:#0272a2;fill-opacity:0.75;stroke:#0272a2;stroke-opacity:0.75;stroke-width:0.3;" x="301.577143" xlink:href="#mdea7515bc2" y="266.879519"/>
     <use style="fill:#0272a2;fill-opacity:0.75;stroke:#0272a2;stroke-opacity:0.75;stroke-width:0.3;" x="346.217143" xlink:href="#mdea7515bc2" y="187.510906"/>
     <use style="fill:#0272a2;fill-opacity:0.75;stroke:#0272a2;stroke-opacity:0.75;stroke-width:0.3;" x="320.708571" xlink:href="#mdea7515bc2" y="214.717347"/>
     <use style="fill:#0272a2;fill-opacity:0.75;stroke:#0272a2;stroke-opacity:0.75;stroke-width:0.3;" x="244.182857" xlink:href="#mdea7515bc2" y="219.384202"/>
     <use style="fill:#0272a2;fill-opacity:0.75;stroke:#0272a2;stroke-opacity:0.75;stroke-width:0.3;" x="244.182857" xlink:href="#mdea7515bc2" y="257.791666"/>
     <use style="fill:#0272a2;fill-opacity:0.75;stroke:#0272a2;stroke-opacity:0.75;stroke-width:0.3;" x="371.725714" xlink:href="#mdea7515bc2" y="212.616977"/>
     <use style="fill:#0272a2;fill-opacity:0.75;stroke:#0272a2;stroke-opacity:0.75;stroke-width:0.3;" x="327.085714" xlink:href="#mdea7515bc2" y="179.727512"/>
     <use style="fill:#0272a2;fill-opacity:0.75;stroke:#0272a2;stroke-opacity:0.75;stroke-width:0.3;" x="346.217143" xlink:href="#mdea7515bc2" y="174.695102"/>
     <use style="fill:#0272a2;fill-opacity:0.75;stroke:#0272a2;stroke-opacity:0.75;stroke-width:0.3;" x="333.462857" xlink:href="#mdea7515bc2" y="161.670135"/>
     <use style="fill:#0272a2;fill-opacity:0.75;stroke:#0272a2;stroke-opacity:0.75;stroke-width:0.3;" x="237.805714" xlink:href="#mdea7515bc2" y="214.439249"/>
     <use style="fill:#0272a2;fill-opacity:0.75;stroke:#0272a2;stroke-opacity:0.75;stroke-width:0.3;" x="397.234286" xlink:href="#mdea7515bc2" y="204.282975"/>
     <use style="fill:#0272a2;fill-opacity:0.75;stroke:#0272a2;stroke-opacity:0.75;stroke-width:0.3;" x="320.708571" xlink:href="#mdea7515bc2" y="235.293398"/>
     <use style="fill:#0272a2;fill-opacity:0.75;stroke:#0272a2;stroke-opacity:0.75;stroke-width:0.3;" x="320.708571" xlink:href="#mdea7515bc2" y="201.021589"/>
     <use style="fill:#0272a2;fill-opacity:0.75;stroke:#0272a2;stroke-opacity:0.75;stroke-width:0.3;" x="282.445714" xlink:href="#mdea7515bc2" y="239.257262"/>
     <use style="fill:#0272a2;fill-opacity:0.75;stroke:#0272a2;stroke-opacity:0.75;stroke-width:0.3;" x="390.857143" xlink:href="#mdea7515bc2" y="163.957756"/>
     <use style="fill:#0272a2;fill-opacity:0.75;stroke:#0272a2;stroke-opacity:0.75;stroke-width:0.3;" x="135.771429" xlink:href="#mdea7515bc2" y="222.084703"/>
     <use style="fill:#0272a2;fill-opacity:0.75;stroke:#0272a2;stroke-opacity:0.75;stroke-width:0.3;" x="307.954286" xlink:href="#mdea7515bc2" y="252.191239"/>
     <use style="fill:#0272a2;fill-opacity:0.75;stroke:#0272a2;stroke-opacity:0.75;stroke-width:0.3;" x="429.12" xlink:href="#mdea7515bc2" y="118.600922"/>
     <use style="fill:#0272a2;fill-opacity:0.75;stroke:#0272a2;stroke-opacity:0.75;stroke-width:0.3;" x="263.314286" xlink:href="#mdea7515bc2" y="216.934462"/>
     <use style="fill:#0272a2;fill-opacity:0.75;stroke:#0272a2;stroke-opacity:0.75;stroke-width:0.3;" x="346.217143" xlink:href="#mdea7515bc2" y="164.545995"/>
    </g>
   </g>
   <g id="line2d_31">
    <path clip-path="url(#p4d2d9fc6a5)" d="M 119.828571 272.307193 
L 123.371429 271.074588 
L 126.914286 269.841984 
L 130.457143 268.609379 
L 134 267.376774 
L 137.542857 266.144169 
L 141.085714 264.911564 
L 144.628571 263.67896 
L 148.171429 262.446355 
L 151.714286 261.21375 
L 155.257143 259.981145 
L 158.8 258.748541 
L 162.342857 257.515936 
L 165.885714 256.283331 
L 169.428571 255.050726 
L 172.971429 253.818122 
L 176.514286 252.585517 
L 180.057143 251.352912 
L 183.6 250.120307 
L 187.142857 248.887702 
L 190.685714 247.655098 
L 194.228571 246.422493 
L 197.771429 245.189888 
L 201.314286 243.957283 
L 204.857143 242.724679 
L 208.4 241.492074 
L 211.942857 240.259469 
L 215.485714 239.026864 
L 219.028571 237.79426 
L 222.571429 236.561655 
L 226.114286 235.32905 
L 229.657143 234.096445 
L 233.2 232.86384 
L 236.742857 231.631236 
L 240.285714 230.398631 
L 243.828571 229.166026 
L 247.371429 227.933421 
L 250.914286 226.700817 
L 254.457143 225.468212 
L 258 224.235607 
L 261.542857 223.003002 
L 265.085714 221.770398 
L 268.628571 220.537793 
L 272.171429 219.305188 
L 275.714286 218.072583 
L 279.257143 216.839978 
L 282.8 215.607374 
L 286.342857 214.374769 
L 289.885714 213.142164 
L 293.428571 211.909559 
L 296.971429 210.676955 
L 300.514286 209.44435 
L 304.057143 208.211745 
L 307.6 206.97914 
L 311.142857 205.746536 
L 314.685714 204.513931 
L 318.228571 203.281326 
L 321.771429 202.048721 
L 325.314286 200.816117 
L 328.857143 199.583512 
L 332.4 198.350907 
L 335.942857 197.118302 
L 339.485714 195.885697 
L 343.028571 194.653093 
L 346.571429 193.420488 
L 350.114286 192.187883 
L 353.657143 190.955278 
L 357.2 189.722674 
L 360.742857 188.490069 
L 364.285714 187.257464 
L 367.828571 186.024859 
L 371.371429 184.792255 
L 374.914286 183.55965 
L 378.457143 182.327045 
L 382 181.09444 
L 385.542857 179.861835 
L 389.085714 178.629231 
L 392.628571 177.396626 
L 396.171429 176.164021 
L 399.714286 174.931416 
L 403.257143 173.698812 
L 406.8 172.466207 
L 410.342857 171.233602 
L 413.885714 170.000997 
L 417.428571 168.768393 
L 420.971429 167.535788 
L 424.514286 166.303183 
L 428.057143 165.070578 
L 431.6 163.837973 
L 435.142857 162.605369 
L 438.685714 161.372764 
L 442.228571 160.140159 
L 445.771429 158.907554 
L 449.314286 157.67495 
L 452.857143 156.442345 
L 456.4 155.20974 
L 459.942857 153.977135 
L 463.485714 152.744531 
L 467.028571 151.511926 
L 470.571429 150.279321 
" style="fill:none;stroke:#111111;stroke-dasharray:7.4,3.2;stroke-dashoffset:0;stroke-width:2;"/>
   </g>
   <g id="patch_3">
    <path d="M 72 346.5 
L 72 47.52 
" style="fill:none;stroke:#cccccc;stroke-linecap:square;stroke-linejoin:miter;stroke-width:1.25;"/>
   </g>
   <g id="patch_4">
    <path d="M 518.4 346.5 
L 518.4 47.52 
" style="fill:none;stroke:#cccccc;stroke-linecap:square;stroke-linejoin:miter;stroke-width:1.25;"/>
   </g>
   <g id="patch_5">
    <path d="M 72 346.5 
L 518.4 346.5 
" style="fill:none;stroke:#cccccc;stroke-linecap:square;stroke-linejoin:miter;stroke-width:1.25;"/>
   </g>
   <g id="patch_6">
    <path d="M 72 47.52 
L 518.4 47.52 
" style="fill:none;stroke:#cccccc;stroke-linecap:square;stroke-linejoin:miter;stroke-width:1.25;"/>
   </g>
  </g>
 </g>
 <defs>
  <clipPath id="p4d2d9fc6a5">
   <rect height="298.98" width="446.4" x="72" y="47.52"/>
  </clipPath>
 </defs>
</svg>
