<?xml version="1.0" encoding="utf-8" standalone="no"?>
<!DOCTYPE svg PUBLIC "-//W3C//DTD SVG 1.1//EN"
  "http://www.w3.org/Graphics/SVG/1.1/DTD/svg11.dtd">
<!-- Created with matplotlib (https://matplotlib.org/) -->
<svg height="396pt" version="1.1" viewBox="0 0 576 396" width="576pt" xmlns="http://www.w3.org/2000/svg" xmlns:xlink="http://www.w3.org/1999/xlink">
 <metadata>
  <rdf:RDF xmlns:cc="http://creativecommons.org/ns#" xmlns:dc="http://purl.org/dc/elements/1.1/" xmlns:rdf="http://www.w3.org/1999/02/22-rdf-syntax-ns#">
   <cc:Work>
    <dc:type rdf:resource="http://purl.org/dc/dcmitype/StillImage"/>
    <dc:date>2021-01-21T19:00:26.823246</dc:date>
    <dc:format>image/svg+xml</dc:format>
    <dc:creator>
     <cc:Agent>
      <dc:title>Matplotlib v3.3.3, https://matplotlib.org/</dc:title>
     </cc:Agent>
    </dc:creator>
   </cc:Work>
  </rdf:RDF>
 </metadata>
 <defs>
  <style type="text/css">*{stroke-linecap:butt;stroke-linejoin:round;}</style>
 </defs>
 <g id="figure_1">
  <g id="patch_1">
   <path d="M 0 396 
L 576 396 
L 576 0 
L 0 0 
z
" style="fill:#ffffff;"/>
  </g>
  <g id="axes_1">
   <g id="patch_2">
    <path d="M 72 346.5 
L 518.4 346.5 
L 518.4 47.52 
L 72 47.52 
z
" style="fill:#ffffff;"/>
   </g>
   <g id="matplotlib.axis_1">
    <g id="xtick_1">
     <g id="line2d_1">
      <path clip-path="url(#pb1311d2a1e)" d="M 129.183471 346.5 
L 129.183471 47.52 
" style="fill:none;stroke:#cccccc;stroke-linecap:round;"/>
     </g>
     <g id="line2d_2"/>
     <g id="text_1">
      <!-- 80 -->
      <g style="fill:#262626;" transform="translate(123.622534 360.657812)scale(0.1 -0.1)">
       <defs>
        <path d="M 17.671875 38.8125 
Q 12.203125 40.828125 9.5625 44.53125 
Q 6.9375 48.25 6.9375 53.421875 
Q 6.9375 61.234375 12.546875 66.546875 
Q 18.171875 71.875 27.484375 71.875 
Q 36.859375 71.875 42.578125 66.421875 
Q 48.296875 60.984375 48.296875 53.171875 
Q 48.296875 48.1875 45.671875 44.5 
Q 43.0625 40.828125 37.75 38.8125 
Q 44.34375 36.671875 47.78125 31.875 
Q 51.21875 27.09375 51.21875 20.453125 
Q 51.21875 11.28125 44.71875 5.03125 
Q 38.234375 -1.21875 27.640625 -1.21875 
Q 17.046875 -1.21875 10.546875 5.046875 
Q 4.046875 11.328125 4.046875 20.703125 
Q 4.046875 27.6875 7.59375 32.390625 
Q 11.140625 37.109375 17.671875 38.8125 
z
M 15.921875 53.71875 
Q 15.921875 48.640625 19.1875 45.40625 
Q 22.46875 42.1875 27.6875 42.1875 
Q 32.765625 42.1875 36.015625 45.375 
Q 39.265625 48.578125 39.265625 53.21875 
Q 39.265625 58.0625 35.90625 61.359375 
Q 32.5625 64.65625 27.59375 64.65625 
Q 22.5625 64.65625 19.234375 61.421875 
Q 15.921875 58.203125 15.921875 53.71875 
z
M 13.09375 20.65625 
Q 13.09375 16.890625 14.875 13.375 
Q 16.65625 9.859375 20.171875 7.921875 
Q 23.6875 6 27.734375 6 
Q 34.03125 6 38.125 10.046875 
Q 42.234375 14.109375 42.234375 20.359375 
Q 42.234375 26.703125 38.015625 30.859375 
Q 33.796875 35.015625 27.4375 35.015625 
Q 21.234375 35.015625 17.15625 30.90625 
Q 13.09375 26.8125 13.09375 20.65625 
z
" id="ArialMT-56"/>
        <path d="M 4.15625 35.296875 
Q 4.15625 48 6.765625 55.734375 
Q 9.375 63.484375 14.515625 67.671875 
Q 19.671875 71.875 27.484375 71.875 
Q 33.25 71.875 37.59375 69.546875 
Q 41.9375 67.234375 44.765625 62.859375 
Q 47.609375 58.5 49.21875 52.21875 
Q 50.828125 45.953125 50.828125 35.296875 
Q 50.828125 22.703125 48.234375 14.96875 
Q 45.65625 7.234375 40.5 3 
Q 35.359375 -1.21875 27.484375 -1.21875 
Q 17.140625 -1.21875 11.234375 6.203125 
Q 4.15625 15.140625 4.15625 35.296875 
z
M 13.1875 35.296875 
Q 13.1875 17.671875 17.3125 11.828125 
Q 21.4375 6 27.484375 6 
Q 33.546875 6 37.671875 11.859375 
Q 41.796875 17.71875 41.796875 35.296875 
Q 41.796875 52.984375 37.671875 58.78125 
Q 33.546875 64.59375 27.390625 64.59375 
Q 21.34375 64.59375 17.71875 59.46875 
Q 13.1875 52.9375 13.1875 35.296875 
z
" id="ArialMT-48"/>
       </defs>
       <use xlink:href="#ArialMT-56"/>
       <use x="55.615234" xlink:href="#ArialMT-48"/>
      </g>
     </g>
    </g>
    <g id="xtick_2">
     <g id="line2d_3">
      <path clip-path="url(#pb1311d2a1e)" d="M 202.968595 346.5 
L 202.968595 47.52 
" style="fill:none;stroke:#cccccc;stroke-linecap:round;"/>
     </g>
     <g id="line2d_4"/>
     <g id="text_2">
      <!-- 90 -->
      <g style="fill:#262626;" transform="translate(197.407658 360.657812)scale(0.1 -0.1)">
       <defs>
        <path d="M 5.46875 16.546875 
L 13.921875 17.328125 
Q 14.984375 11.375 18.015625 8.6875 
Q 21.046875 6 25.78125 6 
Q 29.828125 6 32.875 7.859375 
Q 35.9375 9.71875 37.890625 12.8125 
Q 39.84375 15.921875 41.15625 21.1875 
Q 42.484375 26.46875 42.484375 31.9375 
Q 42.484375 32.515625 42.4375 33.6875 
Q 39.796875 29.5 35.234375 26.875 
Q 30.671875 24.265625 25.34375 24.265625 
Q 16.453125 24.265625 10.296875 30.703125 
Q 4.15625 37.15625 4.15625 47.703125 
Q 4.15625 58.59375 10.578125 65.234375 
Q 17 71.875 26.65625 71.875 
Q 33.640625 71.875 39.421875 68.109375 
Q 45.21875 64.359375 48.21875 57.390625 
Q 51.21875 50.4375 51.21875 37.25 
Q 51.21875 23.53125 48.234375 15.40625 
Q 45.265625 7.28125 39.375 3.03125 
Q 33.5 -1.21875 25.59375 -1.21875 
Q 17.1875 -1.21875 11.859375 3.4375 
Q 6.546875 8.109375 5.46875 16.546875 
z
M 41.453125 48.140625 
Q 41.453125 55.71875 37.421875 60.15625 
Q 33.40625 64.59375 27.734375 64.59375 
Q 21.875 64.59375 17.53125 59.8125 
Q 13.1875 55.03125 13.1875 47.40625 
Q 13.1875 40.578125 17.3125 36.296875 
Q 21.4375 32.03125 27.484375 32.03125 
Q 33.59375 32.03125 37.515625 36.296875 
Q 41.453125 40.578125 41.453125 48.140625 
z
" id="ArialMT-57"/>
       </defs>
       <use xlink:href="#ArialMT-57"/>
       <use x="55.615234" xlink:href="#ArialMT-48"/>
      </g>
     </g>
    </g>
    <g id="xtick_3">
     <g id="line2d_5">
      <path clip-path="url(#pb1311d2a1e)" d="M 276.753719 346.5 
L 276.753719 47.52 
" style="fill:none;stroke:#cccccc;stroke-linecap:round;"/>
     </g>
     <g id="line2d_6"/>
     <g id="text_3">
      <!-- 100 -->
      <g style="fill:#262626;" transform="translate(268.412313 360.657812)scale(0.1 -0.1)">
       <defs>
        <path d="M 37.25 0 
L 28.46875 0 
L 28.46875 56 
Q 25.296875 52.984375 20.140625 49.953125 
Q 14.984375 46.921875 10.890625 45.40625 
L 10.890625 53.90625 
Q 18.265625 57.375 23.78125 62.296875 
Q 29.296875 67.234375 31.59375 71.875 
L 37.25 71.875 
z
" id="ArialMT-49"/>
       </defs>
       <use xlink:href="#ArialMT-49"/>
       <use x="55.615234" xlink:href="#ArialMT-48"/>
       <use x="111.230469" xlink:href="#ArialMT-48"/>
      </g>
     </g>
    </g>
    <g id="xtick_4">
     <g id="line2d_7">
      <path clip-path="url(#pb1311d2a1e)" d="M 350.538843 346.5 
L 350.538843 47.52 
" style="fill:none;stroke:#cccccc;stroke-linecap:round;"/>
     </g>
     <g id="line2d_8"/>
     <g id="text_4">
      <!-- 110 -->
      <g style="fill:#262626;" transform="translate(342.566187 360.657812)scale(0.1 -0.1)">
       <use xlink:href="#ArialMT-49"/>
       <use x="48.240234" xlink:href="#ArialMT-49"/>
       <use x="103.855469" xlink:href="#ArialMT-48"/>
      </g>
     </g>
    </g>
    <g id="xtick_5">
     <g id="line2d_9">
      <path clip-path="url(#pb1311d2a1e)" d="M 424.323967 346.5 
L 424.323967 47.52 
" style="fill:none;stroke:#cccccc;stroke-linecap:round;"/>
     </g>
     <g id="line2d_10"/>
     <g id="text_5">
      <!-- 120 -->
      <g style="fill:#262626;" transform="translate(415.982561 360.657812)scale(0.1 -0.1)">
       <defs>
        <path d="M 50.34375 8.453125 
L 50.34375 0 
L 3.03125 0 
Q 2.9375 3.171875 4.046875 6.109375 
Q 5.859375 10.9375 9.828125 15.625 
Q 13.8125 20.3125 21.34375 26.46875 
Q 33.015625 36.03125 37.109375 41.625 
Q 41.21875 47.21875 41.21875 52.203125 
Q 41.21875 57.421875 37.46875 61 
Q 33.734375 64.59375 27.734375 64.59375 
Q 21.390625 64.59375 17.578125 60.78125 
Q 13.765625 56.984375 13.71875 50.25 
L 4.6875 51.171875 
Q 5.609375 61.28125 11.65625 66.578125 
Q 17.71875 71.875 27.9375 71.875 
Q 38.234375 71.875 44.234375 66.15625 
Q 50.25 60.453125 50.25 52 
Q 50.25 47.703125 48.484375 43.546875 
Q 46.734375 39.40625 42.65625 34.8125 
Q 38.578125 30.21875 29.109375 22.21875 
Q 21.1875 15.578125 18.9375 13.203125 
Q 16.703125 10.84375 15.234375 8.453125 
z
" id="ArialMT-50"/>
       </defs>
       <use xlink:href="#ArialMT-49"/>
       <use x="55.615234" xlink:href="#ArialMT-50"/>
       <use x="111.230469" xlink:href="#ArialMT-48"/>
      </g>
     </g>
    </g>
    <g id="xtick_6">
     <g id="line2d_11">
      <path clip-path="url(#pb1311d2a1e)" d="M 498.109091 346.5 
L 498.109091 47.52 
" style="fill:none;stroke:#cccccc;stroke-linecap:round;"/>
     </g>
     <g id="line2d_12"/>
     <g id="text_6">
      <!-- 130 -->
      <g style="fill:#262626;" transform="translate(489.767685 360.657812)scale(0.1 -0.1)">
       <defs>
        <path d="M 4.203125 18.890625 
L 12.984375 20.0625 
Q 14.5 12.59375 18.140625 9.296875 
Q 21.78125 6 27 6 
Q 33.203125 6 37.46875 10.296875 
Q 41.75 14.59375 41.75 20.953125 
Q 41.75 27 37.796875 30.921875 
Q 33.84375 34.859375 27.734375 34.859375 
Q 25.25 34.859375 21.53125 33.890625 
L 22.515625 41.609375 
Q 23.390625 41.5 23.921875 41.5 
Q 29.546875 41.5 34.03125 44.421875 
Q 38.53125 47.359375 38.53125 53.46875 
Q 38.53125 58.296875 35.25 61.46875 
Q 31.984375 64.65625 26.8125 64.65625 
Q 21.6875 64.65625 18.265625 61.421875 
Q 14.84375 58.203125 13.875 51.765625 
L 5.078125 53.328125 
Q 6.6875 62.15625 12.390625 67.015625 
Q 18.109375 71.875 26.609375 71.875 
Q 32.46875 71.875 37.390625 69.359375 
Q 42.328125 66.84375 44.9375 62.5 
Q 47.5625 58.15625 47.5625 53.265625 
Q 47.5625 48.640625 45.0625 44.828125 
Q 42.578125 41.015625 37.703125 38.765625 
Q 44.046875 37.3125 47.5625 32.6875 
Q 51.078125 28.078125 51.078125 21.140625 
Q 51.078125 11.765625 44.234375 5.25 
Q 37.40625 -1.265625 26.953125 -1.265625 
Q 17.53125 -1.265625 11.296875 4.34375 
Q 5.078125 9.96875 4.203125 18.890625 
z
" id="ArialMT-51"/>
       </defs>
       <use xlink:href="#ArialMT-49"/>
       <use x="55.615234" xlink:href="#ArialMT-51"/>
       <use x="111.230469" xlink:href="#ArialMT-48"/>
      </g>
     </g>
    </g>
    <g id="text_7">
     <!-- Runtime in minutes -->
     <g style="fill:#262626;" transform="translate(248.127734 374.518906)scale(0.11 -0.11)">
      <defs>
       <path d="M 7.859375 0 
L 7.859375 71.578125 
L 39.59375 71.578125 
Q 49.171875 71.578125 54.140625 69.640625 
Q 59.125 67.71875 62.109375 62.828125 
Q 65.09375 57.953125 65.09375 52.046875 
Q 65.09375 44.4375 60.15625 39.203125 
Q 55.21875 33.984375 44.921875 32.5625 
Q 48.6875 30.765625 50.640625 29 
Q 54.78125 25.203125 58.5 19.484375 
L 70.953125 0 
L 59.03125 0 
L 49.5625 14.890625 
Q 45.40625 21.34375 42.71875 24.75 
Q 40.046875 28.171875 37.921875 29.53125 
Q 35.796875 30.90625 33.59375 31.453125 
Q 31.984375 31.78125 28.328125 31.78125 
L 17.328125 31.78125 
L 17.328125 0 
z
M 17.328125 39.984375 
L 37.703125 39.984375 
Q 44.1875 39.984375 47.84375 41.328125 
Q 51.515625 42.671875 53.421875 45.625 
Q 55.328125 48.578125 55.328125 52.046875 
Q 55.328125 57.125 51.640625 60.390625 
Q 47.953125 63.671875 39.984375 63.671875 
L 17.328125 63.671875 
z
" id="ArialMT-82"/>
       <path d="M 40.578125 0 
L 40.578125 7.625 
Q 34.515625 -1.171875 24.125 -1.171875 
Q 19.53125 -1.171875 15.546875 0.578125 
Q 11.578125 2.34375 9.640625 5 
Q 7.71875 7.671875 6.9375 11.53125 
Q 6.390625 14.109375 6.390625 19.734375 
L 6.390625 51.859375 
L 15.1875 51.859375 
L 15.1875 23.09375 
Q 15.1875 16.21875 15.71875 13.8125 
Q 16.546875 10.359375 19.234375 8.375 
Q 21.921875 6.390625 25.875 6.390625 
Q 29.828125 6.390625 33.296875 8.421875 
Q 36.765625 10.453125 38.203125 13.9375 
Q 39.65625 17.4375 39.65625 24.078125 
L 39.65625 51.859375 
L 48.4375 51.859375 
L 48.4375 0 
z
" id="ArialMT-117"/>
       <path d="M 6.59375 0 
L 6.59375 51.859375 
L 14.5 51.859375 
L 14.5 44.484375 
Q 20.21875 53.03125 31 53.03125 
Q 35.6875 53.03125 39.625 51.34375 
Q 43.5625 49.65625 45.515625 46.921875 
Q 47.46875 44.1875 48.25 40.4375 
Q 48.734375 37.984375 48.734375 31.890625 
L 48.734375 0 
L 39.9375 0 
L 39.9375 31.546875 
Q 39.9375 36.921875 38.90625 39.578125 
Q 37.890625 42.234375 35.28125 43.8125 
Q 32.671875 45.40625 29.15625 45.40625 
Q 23.53125 45.40625 19.453125 41.84375 
Q 15.375 38.28125 15.375 28.328125 
L 15.375 0 
z
" id="ArialMT-110"/>
       <path d="M 25.78125 7.859375 
L 27.046875 0.09375 
Q 23.34375 -0.6875 20.40625 -0.6875 
Q 15.625 -0.6875 12.984375 0.828125 
Q 10.359375 2.34375 9.28125 4.8125 
Q 8.203125 7.28125 8.203125 15.1875 
L 8.203125 45.015625 
L 1.765625 45.015625 
L 1.765625 51.859375 
L 8.203125 51.859375 
L 8.203125 64.703125 
L 16.9375 69.96875 
L 16.9375 51.859375 
L 25.78125 51.859375 
L 25.78125 45.015625 
L 16.9375 45.015625 
L 16.9375 14.703125 
Q 16.9375 10.9375 17.40625 9.859375 
Q 17.875 8.796875 18.921875 8.15625 
Q 19.96875 7.515625 21.921875 7.515625 
Q 23.390625 7.515625 25.78125 7.859375 
z
" id="ArialMT-116"/>
       <path d="M 6.640625 61.46875 
L 6.640625 71.578125 
L 15.4375 71.578125 
L 15.4375 61.46875 
z
M 6.640625 0 
L 6.640625 51.859375 
L 15.4375 51.859375 
L 15.4375 0 
z
" id="ArialMT-105"/>
       <path d="M 6.59375 0 
L 6.59375 51.859375 
L 14.453125 51.859375 
L 14.453125 44.578125 
Q 16.890625 48.390625 20.9375 50.703125 
Q 25 53.03125 30.171875 53.03125 
Q 35.9375 53.03125 39.625 50.640625 
Q 43.3125 48.25 44.828125 43.953125 
Q 50.984375 53.03125 60.84375 53.03125 
Q 68.5625 53.03125 72.703125 48.75 
Q 76.859375 44.484375 76.859375 35.59375 
L 76.859375 0 
L 68.109375 0 
L 68.109375 32.671875 
Q 68.109375 37.9375 67.25 40.25 
Q 66.40625 42.578125 64.15625 43.984375 
Q 61.921875 45.40625 58.890625 45.40625 
Q 53.421875 45.40625 49.796875 41.765625 
Q 46.1875 38.140625 46.1875 30.125 
L 46.1875 0 
L 37.40625 0 
L 37.40625 33.6875 
Q 37.40625 39.546875 35.25 42.46875 
Q 33.109375 45.40625 28.21875 45.40625 
Q 24.515625 45.40625 21.359375 43.453125 
Q 18.21875 41.5 16.796875 37.734375 
Q 15.375 33.984375 15.375 26.90625 
L 15.375 0 
z
" id="ArialMT-109"/>
       <path d="M 42.09375 16.703125 
L 51.171875 15.578125 
Q 49.03125 7.625 43.21875 3.21875 
Q 37.40625 -1.171875 28.375 -1.171875 
Q 17 -1.171875 10.328125 5.828125 
Q 3.65625 12.84375 3.65625 25.484375 
Q 3.65625 38.578125 10.390625 45.796875 
Q 17.140625 53.03125 27.875 53.03125 
Q 38.28125 53.03125 44.875 45.953125 
Q 51.46875 38.875 51.46875 26.03125 
Q 51.46875 25.25 51.421875 23.6875 
L 12.75 23.6875 
Q 13.234375 15.140625 17.578125 10.59375 
Q 21.921875 6.0625 28.421875 6.0625 
Q 33.25 6.0625 36.671875 8.59375 
Q 40.09375 11.140625 42.09375 16.703125 
z
M 13.234375 30.90625 
L 42.1875 30.90625 
Q 41.609375 37.453125 38.875 40.71875 
Q 34.671875 45.796875 27.984375 45.796875 
Q 21.921875 45.796875 17.796875 41.75 
Q 13.671875 37.703125 13.234375 30.90625 
z
" id="ArialMT-101"/>
       <path id="ArialMT-32"/>
       <path d="M 3.078125 15.484375 
L 11.765625 16.84375 
Q 12.5 11.625 15.84375 8.84375 
Q 19.1875 6.0625 25.203125 6.0625 
Q 31.25 6.0625 34.171875 8.515625 
Q 37.109375 10.984375 37.109375 14.3125 
Q 37.109375 17.28125 34.515625 19 
Q 32.71875 20.171875 25.53125 21.96875 
Q 15.875 24.421875 12.140625 26.203125 
Q 8.40625 27.984375 6.46875 31.125 
Q 4.546875 34.28125 4.546875 38.09375 
Q 4.546875 41.546875 6.125 44.5 
Q 7.71875 47.46875 10.453125 49.421875 
Q 12.5 50.921875 16.03125 51.96875 
Q 19.578125 53.03125 23.640625 53.03125 
Q 29.734375 53.03125 34.34375 51.265625 
Q 38.96875 49.515625 41.15625 46.5 
Q 43.359375 43.5 44.1875 38.484375 
L 35.59375 37.3125 
Q 35.015625 41.3125 32.203125 43.546875 
Q 29.390625 45.796875 24.265625 45.796875 
Q 18.21875 45.796875 15.625 43.796875 
Q 13.03125 41.796875 13.03125 39.109375 
Q 13.03125 37.40625 14.109375 36.03125 
Q 15.1875 34.625 17.484375 33.6875 
Q 18.796875 33.203125 25.25 31.453125 
Q 34.578125 28.953125 38.25 27.359375 
Q 41.9375 25.78125 44.03125 22.75 
Q 46.140625 19.734375 46.140625 15.234375 
Q 46.140625 10.84375 43.578125 6.953125 
Q 41.015625 3.078125 36.171875 0.953125 
Q 31.34375 -1.171875 25.25 -1.171875 
Q 15.140625 -1.171875 9.84375 3.03125 
Q 4.546875 7.234375 3.078125 15.484375 
z
" id="ArialMT-115"/>
      </defs>
      <use xlink:href="#ArialMT-82"/>
      <use x="72.216797" xlink:href="#ArialMT-117"/>
      <use x="127.832031" xlink:href="#ArialMT-110"/>
      <use x="183.447266" xlink:href="#ArialMT-116"/>
      <use x="211.230469" xlink:href="#ArialMT-105"/>
      <use x="233.447266" xlink:href="#ArialMT-109"/>
      <use x="316.748047" xlink:href="#ArialMT-101"/>
      <use x="372.363281" xlink:href="#ArialMT-32"/>
      <use x="400.146484" xlink:href="#ArialMT-105"/>
      <use x="422.363281" xlink:href="#ArialMT-110"/>
      <use x="477.978516" xlink:href="#ArialMT-32"/>
      <use x="505.761719" xlink:href="#ArialMT-109"/>
      <use x="589.0625" xlink:href="#ArialMT-105"/>
      <use x="611.279297" xlink:href="#ArialMT-110"/>
      <use x="666.894531" xlink:href="#ArialMT-117"/>
      <use x="722.509766" xlink:href="#ArialMT-116"/>
      <use x="750.292969" xlink:href="#ArialMT-101"/>
      <use x="805.908203" xlink:href="#ArialMT-115"/>
     </g>
    </g>
   </g>
   <g id="matplotlib.axis_2">
    <g id="ytick_1">
     <g id="line2d_13">
      <path clip-path="url(#pb1311d2a1e)" d="M 72 300.552857 
L 518.4 300.552857 
" style="fill:none;stroke:#cccccc;stroke-linecap:round;"/>
     </g>
     <g id="line2d_14"/>
     <g id="text_8">
      <!-- 4 -->
      <g style="fill:#262626;" transform="translate(59.439062 304.131763)scale(0.1 -0.1)">
       <defs>
        <path d="M 32.328125 0 
L 32.328125 17.140625 
L 1.265625 17.140625 
L 1.265625 25.203125 
L 33.9375 71.578125 
L 41.109375 71.578125 
L 41.109375 25.203125 
L 50.78125 25.203125 
L 50.78125 17.140625 
L 41.109375 17.140625 
L 41.109375 0 
z
M 32.328125 25.203125 
L 32.328125 57.46875 
L 9.90625 25.203125 
z
" id="ArialMT-52"/>
       </defs>
       <use xlink:href="#ArialMT-52"/>
      </g>
     </g>
    </g>
    <g id="ytick_2">
     <g id="line2d_15">
      <path clip-path="url(#pb1311d2a1e)" d="M 72 235.838571 
L 518.4 235.838571 
" style="fill:none;stroke:#cccccc;stroke-linecap:round;"/>
     </g>
     <g id="line2d_16"/>
     <g id="text_9">
      <!-- 5 -->
      <g style="fill:#262626;" transform="translate(59.439062 239.417478)scale(0.1 -0.1)">
       <defs>
        <path d="M 4.15625 18.75 
L 13.375 19.53125 
Q 14.40625 12.796875 18.140625 9.390625 
Q 21.875 6 27.15625 6 
Q 33.5 6 37.890625 10.78125 
Q 42.28125 15.578125 42.28125 23.484375 
Q 42.28125 31 38.0625 35.34375 
Q 33.84375 39.703125 27 39.703125 
Q 22.75 39.703125 19.328125 37.765625 
Q 15.921875 35.84375 13.96875 32.765625 
L 5.71875 33.84375 
L 12.640625 70.609375 
L 48.25 70.609375 
L 48.25 62.203125 
L 19.671875 62.203125 
L 15.828125 42.96875 
Q 22.265625 47.46875 29.34375 47.46875 
Q 38.71875 47.46875 45.15625 40.96875 
Q 51.609375 34.46875 51.609375 24.265625 
Q 51.609375 14.546875 45.953125 7.46875 
Q 39.0625 -1.21875 27.15625 -1.21875 
Q 17.390625 -1.21875 11.203125 4.25 
Q 5.03125 9.71875 4.15625 18.75 
z
" id="ArialMT-53"/>
       </defs>
       <use xlink:href="#ArialMT-53"/>
      </g>
     </g>
    </g>
    <g id="ytick_3">
     <g id="line2d_17">
      <path clip-path="url(#pb1311d2a1e)" d="M 72 171.124286 
L 518.4 171.124286 
" style="fill:none;stroke:#cccccc;stroke-linecap:round;"/>
     </g>
     <g id="line2d_18"/>
     <g id="text_10">
      <!-- 6 -->
      <g style="fill:#262626;" transform="translate(59.439062 174.703192)scale(0.1 -0.1)">
       <defs>
        <path d="M 49.75 54.046875 
L 41.015625 53.375 
Q 39.84375 58.546875 37.703125 60.890625 
Q 34.125 64.65625 28.90625 64.65625 
Q 24.703125 64.65625 21.53125 62.3125 
Q 17.390625 59.28125 14.984375 53.46875 
Q 12.59375 47.65625 12.5 36.921875 
Q 15.671875 41.75 20.265625 44.09375 
Q 24.859375 46.4375 29.890625 46.4375 
Q 38.671875 46.4375 44.84375 39.96875 
Q 51.03125 33.5 51.03125 23.25 
Q 51.03125 16.5 48.125 10.71875 
Q 45.21875 4.9375 40.140625 1.859375 
Q 35.0625 -1.21875 28.609375 -1.21875 
Q 17.625 -1.21875 10.6875 6.859375 
Q 3.765625 14.9375 3.765625 33.5 
Q 3.765625 54.25 11.421875 63.671875 
Q 18.109375 71.875 29.4375 71.875 
Q 37.890625 71.875 43.28125 67.140625 
Q 48.6875 62.40625 49.75 54.046875 
z
M 13.875 23.1875 
Q 13.875 18.65625 15.796875 14.5 
Q 17.71875 10.359375 21.1875 8.171875 
Q 24.65625 6 28.46875 6 
Q 34.03125 6 38.03125 10.484375 
Q 42.046875 14.984375 42.046875 22.703125 
Q 42.046875 30.125 38.078125 34.390625 
Q 34.125 38.671875 28.125 38.671875 
Q 22.171875 38.671875 18.015625 34.390625 
Q 13.875 30.125 13.875 23.1875 
z
" id="ArialMT-54"/>
       </defs>
       <use xlink:href="#ArialMT-54"/>
      </g>
     </g>
    </g>
    <g id="ytick_4">
     <g id="line2d_19">
      <path clip-path="url(#pb1311d2a1e)" d="M 72 106.41 
L 518.4 106.41 
" style="fill:none;stroke:#cccccc;stroke-linecap:round;"/>
     </g>
     <g id="line2d_20"/>
     <g id="text_11">
      <!-- 7 -->
      <g style="fill:#262626;" transform="translate(59.439062 109.988906)scale(0.1 -0.1)">
       <defs>
        <path d="M 4.734375 62.203125 
L 4.734375 70.65625 
L 51.078125 70.65625 
L 51.078125 63.8125 
Q 44.234375 56.546875 37.515625 44.484375 
Q 30.8125 32.421875 27.15625 19.671875 
Q 24.515625 10.6875 23.78125 0 
L 14.75 0 
Q 14.890625 8.453125 18.0625 20.40625 
Q 21.234375 32.375 27.171875 43.484375 
Q 33.109375 54.59375 39.796875 62.203125 
z
" id="ArialMT-55"/>
       </defs>
       <use xlink:href="#ArialMT-55"/>
      </g>
     </g>
    </g>
    <g id="text_12">
     <!-- Women's IMDB Score -->
     <g style="fill:#262626;" transform="translate(53.252812 250.835234)rotate(-90)scale(0.11 -0.11)">
      <defs>
       <path d="M 20.21875 0 
L 1.21875 71.578125 
L 10.9375 71.578125 
L 21.828125 24.65625 
Q 23.578125 17.28125 24.859375 10.015625 
Q 27.59375 21.484375 28.078125 23.25 
L 41.703125 71.578125 
L 53.125 71.578125 
L 63.375 35.359375 
Q 67.234375 21.875 68.953125 10.015625 
Q 70.3125 16.796875 72.515625 25.59375 
L 83.734375 71.578125 
L 93.265625 71.578125 
L 73.640625 0 
L 64.5 0 
L 49.421875 54.546875 
Q 47.515625 61.375 47.171875 62.9375 
Q 46.046875 58.015625 45.0625 54.546875 
L 29.890625 0 
z
" id="ArialMT-87"/>
       <path d="M 3.328125 25.921875 
Q 3.328125 40.328125 11.328125 47.265625 
Q 18.015625 53.03125 27.640625 53.03125 
Q 38.328125 53.03125 45.109375 46.015625 
Q 51.90625 39.015625 51.90625 26.65625 
Q 51.90625 16.65625 48.90625 10.90625 
Q 45.90625 5.171875 40.15625 2 
Q 34.421875 -1.171875 27.640625 -1.171875 
Q 16.75 -1.171875 10.03125 5.8125 
Q 3.328125 12.796875 3.328125 25.921875 
z
M 12.359375 25.921875 
Q 12.359375 15.96875 16.703125 11.015625 
Q 21.046875 6.0625 27.640625 6.0625 
Q 34.1875 6.0625 38.53125 11.03125 
Q 42.875 16.015625 42.875 26.21875 
Q 42.875 35.84375 38.5 40.796875 
Q 34.125 45.75 27.640625 45.75 
Q 21.046875 45.75 16.703125 40.8125 
Q 12.359375 35.890625 12.359375 25.921875 
z
" id="ArialMT-111"/>
       <path d="M 6.640625 46.234375 
L 4.390625 59.625 
L 4.390625 71.578125 
L 14.40625 71.578125 
L 14.40625 59.625 
L 12.0625 46.234375 
z
" id="ArialMT-39"/>
       <path d="M 9.328125 0 
L 9.328125 71.578125 
L 18.796875 71.578125 
L 18.796875 0 
z
" id="ArialMT-73"/>
       <path d="M 7.421875 0 
L 7.421875 71.578125 
L 21.6875 71.578125 
L 38.625 20.90625 
Q 40.96875 13.8125 42.046875 10.296875 
Q 43.265625 14.203125 45.84375 21.78125 
L 62.984375 71.578125 
L 75.734375 71.578125 
L 75.734375 0 
L 66.609375 0 
L 66.609375 59.90625 
L 45.796875 0 
L 37.25 0 
L 16.546875 60.9375 
L 16.546875 0 
z
" id="ArialMT-77"/>
       <path d="M 7.71875 0 
L 7.71875 71.578125 
L 32.375 71.578125 
Q 40.71875 71.578125 45.125 70.5625 
Q 51.265625 69.140625 55.609375 65.4375 
Q 61.28125 60.640625 64.078125 53.1875 
Q 66.890625 45.75 66.890625 36.1875 
Q 66.890625 28.03125 64.984375 21.734375 
Q 63.09375 15.4375 60.109375 11.296875 
Q 57.125 7.171875 53.578125 4.796875 
Q 50.046875 2.4375 45.046875 1.21875 
Q 40.046875 0 33.546875 0 
z
M 17.1875 8.453125 
L 32.46875 8.453125 
Q 39.546875 8.453125 43.578125 9.765625 
Q 47.609375 11.078125 50 13.484375 
Q 53.375 16.84375 55.25 22.53125 
Q 57.125 28.21875 57.125 36.328125 
Q 57.125 47.5625 53.4375 53.59375 
Q 49.75 59.625 44.484375 61.671875 
Q 40.671875 63.140625 32.234375 63.140625 
L 17.1875 63.140625 
z
" id="ArialMT-68"/>
       <path d="M 7.328125 0 
L 7.328125 71.578125 
L 34.1875 71.578125 
Q 42.390625 71.578125 47.34375 69.40625 
Q 52.296875 67.234375 55.09375 62.71875 
Q 57.90625 58.203125 57.90625 53.265625 
Q 57.90625 48.6875 55.421875 44.625 
Q 52.9375 40.578125 47.90625 38.09375 
Q 54.390625 36.1875 57.875 31.59375 
Q 61.375 27 61.375 20.75 
Q 61.375 15.71875 59.25 11.390625 
Q 57.125 7.078125 54 4.734375 
Q 50.875 2.390625 46.15625 1.1875 
Q 41.453125 0 34.625 0 
z
M 16.796875 41.5 
L 32.28125 41.5 
Q 38.578125 41.5 41.3125 42.328125 
Q 44.921875 43.40625 46.75 45.890625 
Q 48.578125 48.390625 48.578125 52.15625 
Q 48.578125 55.71875 46.875 58.421875 
Q 45.171875 61.140625 41.984375 62.140625 
Q 38.8125 63.140625 31.109375 63.140625 
L 16.796875 63.140625 
z
M 16.796875 8.453125 
L 34.625 8.453125 
Q 39.203125 8.453125 41.0625 8.796875 
Q 44.34375 9.375 46.53125 10.734375 
Q 48.734375 12.109375 50.140625 14.71875 
Q 51.5625 17.328125 51.5625 20.75 
Q 51.5625 24.75 49.515625 27.703125 
Q 47.46875 30.671875 43.828125 31.859375 
Q 40.1875 33.0625 33.34375 33.0625 
L 16.796875 33.0625 
z
" id="ArialMT-66"/>
       <path d="M 4.5 23 
L 13.421875 23.78125 
Q 14.0625 18.40625 16.375 14.96875 
Q 18.703125 11.53125 23.578125 9.40625 
Q 28.46875 7.28125 34.578125 7.28125 
Q 39.984375 7.28125 44.140625 8.890625 
Q 48.296875 10.5 50.3125 13.296875 
Q 52.34375 16.109375 52.34375 19.4375 
Q 52.34375 22.796875 50.390625 25.3125 
Q 48.4375 27.828125 43.953125 29.546875 
Q 41.0625 30.671875 31.203125 33.03125 
Q 21.34375 35.40625 17.390625 37.5 
Q 12.25 40.1875 9.734375 44.15625 
Q 7.234375 48.140625 7.234375 53.078125 
Q 7.234375 58.5 10.296875 63.203125 
Q 13.375 67.921875 19.28125 70.359375 
Q 25.203125 72.796875 32.421875 72.796875 
Q 40.375 72.796875 46.453125 70.234375 
Q 52.546875 67.671875 55.8125 62.6875 
Q 59.078125 57.71875 59.328125 51.421875 
L 50.25 50.734375 
Q 49.515625 57.515625 45.28125 60.984375 
Q 41.0625 64.453125 32.8125 64.453125 
Q 24.21875 64.453125 20.28125 61.296875 
Q 16.359375 58.15625 16.359375 53.71875 
Q 16.359375 49.859375 19.140625 47.359375 
Q 21.875 44.875 33.421875 42.265625 
Q 44.96875 39.65625 49.265625 37.703125 
Q 55.515625 34.8125 58.484375 30.390625 
Q 61.46875 25.984375 61.46875 20.21875 
Q 61.46875 14.5 58.203125 9.4375 
Q 54.9375 4.390625 48.796875 1.578125 
Q 42.671875 -1.21875 35.015625 -1.21875 
Q 25.296875 -1.21875 18.71875 1.609375 
Q 12.15625 4.4375 8.421875 10.125 
Q 4.6875 15.828125 4.5 23 
z
" id="ArialMT-83"/>
       <path d="M 40.4375 19 
L 49.078125 17.875 
Q 47.65625 8.9375 41.8125 3.875 
Q 35.984375 -1.171875 27.484375 -1.171875 
Q 16.84375 -1.171875 10.375 5.78125 
Q 3.90625 12.75 3.90625 25.734375 
Q 3.90625 34.125 6.6875 40.421875 
Q 9.46875 46.734375 15.15625 49.875 
Q 20.84375 53.03125 27.546875 53.03125 
Q 35.984375 53.03125 41.359375 48.75 
Q 46.734375 44.484375 48.25 36.625 
L 39.703125 35.296875 
Q 38.484375 40.53125 35.375 43.15625 
Q 32.28125 45.796875 27.875 45.796875 
Q 21.234375 45.796875 17.078125 41.03125 
Q 12.9375 36.28125 12.9375 25.984375 
Q 12.9375 15.53125 16.9375 10.796875 
Q 20.953125 6.0625 27.390625 6.0625 
Q 32.5625 6.0625 36.03125 9.234375 
Q 39.5 12.40625 40.4375 19 
z
" id="ArialMT-99"/>
       <path d="M 6.5 0 
L 6.5 51.859375 
L 14.40625 51.859375 
L 14.40625 44 
Q 17.4375 49.515625 20 51.265625 
Q 22.5625 53.03125 25.640625 53.03125 
Q 30.078125 53.03125 34.671875 50.203125 
L 31.640625 42.046875 
Q 28.421875 43.953125 25.203125 43.953125 
Q 22.3125 43.953125 20.015625 42.21875 
Q 17.71875 40.484375 16.75 37.40625 
Q 15.28125 32.71875 15.28125 27.15625 
L 15.28125 0 
z
" id="ArialMT-114"/>
      </defs>
      <use xlink:href="#ArialMT-87"/>
      <use x="92.634766" xlink:href="#ArialMT-111"/>
      <use x="148.25" xlink:href="#ArialMT-109"/>
      <use x="231.550781" xlink:href="#ArialMT-101"/>
      <use x="287.166016" xlink:href="#ArialMT-110"/>
      <use x="342.78125" xlink:href="#ArialMT-39"/>
      <use x="361.873047" xlink:href="#ArialMT-115"/>
      <use x="411.873047" xlink:href="#ArialMT-32"/>
      <use x="439.65625" xlink:href="#ArialMT-73"/>
      <use x="467.439453" xlink:href="#ArialMT-77"/>
      <use x="550.740234" xlink:href="#ArialMT-68"/>
      <use x="622.957031" xlink:href="#ArialMT-66"/>
      <use x="689.65625" xlink:href="#ArialMT-32"/>
      <use x="717.439453" xlink:href="#ArialMT-83"/>
      <use x="784.138672" xlink:href="#ArialMT-99"/>
      <use x="834.138672" xlink:href="#ArialMT-111"/>
      <use x="889.753906" xlink:href="#ArialMT-114"/>
      <use x="923.054688" xlink:href="#ArialMT-101"/>
     </g>
    </g>
   </g>
   <g id="PathCollection_1">
    <defs>
     <path d="M 0 3.5 
C 0.928211 3.5 1.81853 3.131218 2.474874 2.474874 
C 3.131218 1.81853 3.5 0.928211 3.5 0 
C 3.5 -0.928211 3.131218 -1.81853 2.474874 -2.474874 
C 1.81853 -3.131218 0.928211 -3.5 0 -3.5 
C -0.928211 -3.5 -1.81853 -3.131218 -2.474874 -2.474874 
C -3.131218 -1.81853 -3.5 -0.928211 -3.5 0 
C -3.5 0.928211 -3.131218 1.81853 -2.474874 2.474874 
C -1.81853 3.131218 -0.928211 3.5 0 3.5 
z
" id="m3927eff843" style="stroke:#0000ff;stroke-opacity:0.6;stroke-width:0.3;"/>
    </defs>
    <g clip-path="url(#pb1311d2a1e)">
     <use style="fill:#0000ff;fill-opacity:0.6;stroke:#0000ff;stroke-opacity:0.6;stroke-width:0.3;" x="247.239669" xlink:href="#m3927eff843" y="222.895714"/>
     <use style="fill:#0000ff;fill-opacity:0.6;stroke:#0000ff;stroke-opacity:0.6;stroke-width:0.3;" x="365.295868" xlink:href="#m3927eff843" y="138.767143"/>
     <use style="fill:#0000ff;fill-opacity:0.6;stroke:#0000ff;stroke-opacity:0.6;stroke-width:0.3;" x="439.080992" xlink:href="#m3927eff843" y="190.538571"/>
     <use style="fill:#0000ff;fill-opacity:0.6;stroke:#0000ff;stroke-opacity:0.6;stroke-width:0.3;" x="239.861157" xlink:href="#m3927eff843" y="145.238571"/>
     <use style="fill:#0000ff;fill-opacity:0.6;stroke:#0000ff;stroke-opacity:0.6;stroke-width:0.3;" x="202.968595" xlink:href="#m3927eff843" y="158.181429"/>
     <use style="fill:#0000ff;fill-opacity:0.6;stroke:#0000ff;stroke-opacity:0.6;stroke-width:0.3;" x="321.024793" xlink:href="#m3927eff843" y="145.238571"/>
     <use style="fill:#0000ff;fill-opacity:0.6;stroke:#0000ff;stroke-opacity:0.6;stroke-width:0.3;" x="380.052893" xlink:href="#m3927eff843" y="132.295714"/>
     <use style="fill:#0000ff;fill-opacity:0.6;stroke:#0000ff;stroke-opacity:0.6;stroke-width:0.3;" x="291.510744" xlink:href="#m3927eff843" y="222.895714"/>
     <use style="fill:#0000ff;fill-opacity:0.6;stroke:#0000ff;stroke-opacity:0.6;stroke-width:0.3;" x="173.454545" xlink:href="#m3927eff843" y="209.952857"/>
     <use style="fill:#0000ff;fill-opacity:0.6;stroke:#0000ff;stroke-opacity:0.6;stroke-width:0.3;" x="365.295868" xlink:href="#m3927eff843" y="74.052857"/>
     <use style="fill:#0000ff;fill-opacity:0.6;stroke:#0000ff;stroke-opacity:0.6;stroke-width:0.3;" x="166.076033" xlink:href="#m3927eff843" y="235.838571"/>
     <use style="fill:#0000ff;fill-opacity:0.6;stroke:#0000ff;stroke-opacity:0.6;stroke-width:0.3;" x="151.319008" xlink:href="#m3927eff843" y="216.424286"/>
     <use style="fill:#0000ff;fill-opacity:0.6;stroke:#0000ff;stroke-opacity:0.6;stroke-width:0.3;" x="151.319008" xlink:href="#m3927eff843" y="203.481429"/>
     <use style="fill:#0000ff;fill-opacity:0.6;stroke:#0000ff;stroke-opacity:0.6;stroke-width:0.3;" x="269.375207" xlink:href="#m3927eff843" y="119.352857"/>
     <use style="fill:#0000ff;fill-opacity:0.6;stroke:#0000ff;stroke-opacity:0.6;stroke-width:0.3;" x="261.996694" xlink:href="#m3927eff843" y="235.838571"/>
     <use style="fill:#0000ff;fill-opacity:0.6;stroke:#0000ff;stroke-opacity:0.6;stroke-width:0.3;" x="151.319008" xlink:href="#m3927eff843" y="332.91"/>
     <use style="fill:#0000ff;fill-opacity:0.6;stroke:#0000ff;stroke-opacity:0.6;stroke-width:0.3;" x="335.781818" xlink:href="#m3927eff843" y="145.238571"/>
     <use style="fill:#0000ff;fill-opacity:0.6;stroke:#0000ff;stroke-opacity:0.6;stroke-width:0.3;" x="261.996694" xlink:href="#m3927eff843" y="164.652857"/>
     <use style="fill:#0000ff;fill-opacity:0.6;stroke:#0000ff;stroke-opacity:0.6;stroke-width:0.3;" x="343.160331" xlink:href="#m3927eff843" y="222.895714"/>
     <use style="fill:#0000ff;fill-opacity:0.6;stroke:#0000ff;stroke-opacity:0.6;stroke-width:0.3;" x="387.431405" xlink:href="#m3927eff843" y="190.538571"/>
     <use style="fill:#0000ff;fill-opacity:0.6;stroke:#0000ff;stroke-opacity:0.6;stroke-width:0.3;" x="202.968595" xlink:href="#m3927eff843" y="216.424286"/>
     <use style="fill:#0000ff;fill-opacity:0.6;stroke:#0000ff;stroke-opacity:0.6;stroke-width:0.3;" x="254.618182" xlink:href="#m3927eff843" y="261.724286"/>
     <use style="fill:#0000ff;fill-opacity:0.6;stroke:#0000ff;stroke-opacity:0.6;stroke-width:0.3;" x="247.239669" xlink:href="#m3927eff843" y="86.995714"/>
     <use style="fill:#0000ff;fill-opacity:0.6;stroke:#0000ff;stroke-opacity:0.6;stroke-width:0.3;" x="217.72562" xlink:href="#m3927eff843" y="112.881429"/>
     <use style="fill:#0000ff;fill-opacity:0.6;stroke:#0000ff;stroke-opacity:0.6;stroke-width:0.3;" x="365.295868" xlink:href="#m3927eff843" y="145.238571"/>
     <use style="fill:#0000ff;fill-opacity:0.6;stroke:#0000ff;stroke-opacity:0.6;stroke-width:0.3;" x="225.104132" xlink:href="#m3927eff843" y="151.71"/>
     <use style="fill:#0000ff;fill-opacity:0.6;stroke:#0000ff;stroke-opacity:0.6;stroke-width:0.3;" x="202.968595" xlink:href="#m3927eff843" y="209.952857"/>
     <use style="fill:#0000ff;fill-opacity:0.6;stroke:#0000ff;stroke-opacity:0.6;stroke-width:0.3;" x="402.18843" xlink:href="#m3927eff843" y="222.895714"/>
     <use style="fill:#0000ff;fill-opacity:0.6;stroke:#0000ff;stroke-opacity:0.6;stroke-width:0.3;" x="232.482645" xlink:href="#m3927eff843" y="190.538571"/>
     <use style="fill:#0000ff;fill-opacity:0.6;stroke:#0000ff;stroke-opacity:0.6;stroke-width:0.3;" x="195.590083" xlink:href="#m3927eff843" y="145.238571"/>
     <use style="fill:#0000ff;fill-opacity:0.6;stroke:#0000ff;stroke-opacity:0.6;stroke-width:0.3;" x="461.216529" xlink:href="#m3927eff843" y="125.824286"/>
     <use style="fill:#0000ff;fill-opacity:0.6;stroke:#0000ff;stroke-opacity:0.6;stroke-width:0.3;" x="166.076033" xlink:href="#m3927eff843" y="209.952857"/>
     <use style="fill:#0000ff;fill-opacity:0.6;stroke:#0000ff;stroke-opacity:0.6;stroke-width:0.3;" x="180.833058" xlink:href="#m3927eff843" y="93.467143"/>
     <use style="fill:#0000ff;fill-opacity:0.6;stroke:#0000ff;stroke-opacity:0.6;stroke-width:0.3;" x="143.940496" xlink:href="#m3927eff843" y="197.01"/>
     <use style="fill:#0000ff;fill-opacity:0.6;stroke:#0000ff;stroke-opacity:0.6;stroke-width:0.3;" x="247.239669" xlink:href="#m3927eff843" y="132.295714"/>
     <use style="fill:#0000ff;fill-opacity:0.6;stroke:#0000ff;stroke-opacity:0.6;stroke-width:0.3;" x="210.347107" xlink:href="#m3927eff843" y="171.124286"/>
     <use style="fill:#0000ff;fill-opacity:0.6;stroke:#0000ff;stroke-opacity:0.6;stroke-width:0.3;" x="321.024793" xlink:href="#m3927eff843" y="171.124286"/>
     <use style="fill:#0000ff;fill-opacity:0.6;stroke:#0000ff;stroke-opacity:0.6;stroke-width:0.3;" x="173.454545" xlink:href="#m3927eff843" y="248.781429"/>
     <use style="fill:#0000ff;fill-opacity:0.6;stroke:#0000ff;stroke-opacity:0.6;stroke-width:0.3;" x="188.21157" xlink:href="#m3927eff843" y="242.31"/>
     <use style="fill:#0000ff;fill-opacity:0.6;stroke:#0000ff;stroke-opacity:0.6;stroke-width:0.3;" x="166.076033" xlink:href="#m3927eff843" y="197.01"/>
     <use style="fill:#0000ff;fill-opacity:0.6;stroke:#0000ff;stroke-opacity:0.6;stroke-width:0.3;" x="225.104132" xlink:href="#m3927eff843" y="171.124286"/>
     <use style="fill:#0000ff;fill-opacity:0.6;stroke:#0000ff;stroke-opacity:0.6;stroke-width:0.3;" x="284.132231" xlink:href="#m3927eff843" y="171.124286"/>
     <use style="fill:#0000ff;fill-opacity:0.6;stroke:#0000ff;stroke-opacity:0.6;stroke-width:0.3;" x="254.618182" xlink:href="#m3927eff843" y="177.595714"/>
     <use style="fill:#0000ff;fill-opacity:0.6;stroke:#0000ff;stroke-opacity:0.6;stroke-width:0.3;" x="254.618182" xlink:href="#m3927eff843" y="222.895714"/>
     <use style="fill:#0000ff;fill-opacity:0.6;stroke:#0000ff;stroke-opacity:0.6;stroke-width:0.3;" x="188.21157" xlink:href="#m3927eff843" y="125.824286"/>
     <use style="fill:#0000ff;fill-opacity:0.6;stroke:#0000ff;stroke-opacity:0.6;stroke-width:0.3;" x="217.72562" xlink:href="#m3927eff843" y="112.881429"/>
     <use style="fill:#0000ff;fill-opacity:0.6;stroke:#0000ff;stroke-opacity:0.6;stroke-width:0.3;" x="335.781818" xlink:href="#m3927eff843" y="151.71"/>
     <use style="fill:#0000ff;fill-opacity:0.6;stroke:#0000ff;stroke-opacity:0.6;stroke-width:0.3;" x="424.323967" xlink:href="#m3927eff843" y="216.424286"/>
     <use style="fill:#0000ff;fill-opacity:0.6;stroke:#0000ff;stroke-opacity:0.6;stroke-width:0.3;" x="254.618182" xlink:href="#m3927eff843" y="151.71"/>
     <use style="fill:#0000ff;fill-opacity:0.6;stroke:#0000ff;stroke-opacity:0.6;stroke-width:0.3;" x="217.72562" xlink:href="#m3927eff843" y="171.124286"/>
     <use style="fill:#0000ff;fill-opacity:0.6;stroke:#0000ff;stroke-opacity:0.6;stroke-width:0.3;" x="306.267769" xlink:href="#m3927eff843" y="235.838571"/>
     <use style="fill:#0000ff;fill-opacity:0.6;stroke:#0000ff;stroke-opacity:0.6;stroke-width:0.3;" x="210.347107" xlink:href="#m3927eff843" y="197.01"/>
     <use style="fill:#0000ff;fill-opacity:0.6;stroke:#0000ff;stroke-opacity:0.6;stroke-width:0.3;" x="217.72562" xlink:href="#m3927eff843" y="112.881429"/>
     <use style="fill:#0000ff;fill-opacity:0.6;stroke:#0000ff;stroke-opacity:0.6;stroke-width:0.3;" x="210.347107" xlink:href="#m3927eff843" y="222.895714"/>
     <use style="fill:#0000ff;fill-opacity:0.6;stroke:#0000ff;stroke-opacity:0.6;stroke-width:0.3;" x="247.239669" xlink:href="#m3927eff843" y="106.41"/>
     <use style="fill:#0000ff;fill-opacity:0.6;stroke:#0000ff;stroke-opacity:0.6;stroke-width:0.3;" x="343.160331" xlink:href="#m3927eff843" y="61.11"/>
     <use style="fill:#0000ff;fill-opacity:0.6;stroke:#0000ff;stroke-opacity:0.6;stroke-width:0.3;" x="232.482645" xlink:href="#m3927eff843" y="125.824286"/>
     <use style="fill:#0000ff;fill-opacity:0.6;stroke:#0000ff;stroke-opacity:0.6;stroke-width:0.3;" x="225.104132" xlink:href="#m3927eff843" y="158.181429"/>
     <use style="fill:#0000ff;fill-opacity:0.6;stroke:#0000ff;stroke-opacity:0.6;stroke-width:0.3;" x="180.833058" xlink:href="#m3927eff843" y="138.767143"/>
     <use style="fill:#0000ff;fill-opacity:0.6;stroke:#0000ff;stroke-opacity:0.6;stroke-width:0.3;" x="402.18843" xlink:href="#m3927eff843" y="132.295714"/>
     <use style="fill:#0000ff;fill-opacity:0.6;stroke:#0000ff;stroke-opacity:0.6;stroke-width:0.3;" x="254.618182" xlink:href="#m3927eff843" y="164.652857"/>
     <use style="fill:#0000ff;fill-opacity:0.6;stroke:#0000ff;stroke-opacity:0.6;stroke-width:0.3;" x="372.67438" xlink:href="#m3927eff843" y="158.181429"/>
     <use style="fill:#0000ff;fill-opacity:0.6;stroke:#0000ff;stroke-opacity:0.6;stroke-width:0.3;" x="261.996694" xlink:href="#m3927eff843" y="145.238571"/>
     <use style="fill:#0000ff;fill-opacity:0.6;stroke:#0000ff;stroke-opacity:0.6;stroke-width:0.3;" x="180.833058" xlink:href="#m3927eff843" y="209.952857"/>
     <use style="fill:#0000ff;fill-opacity:0.6;stroke:#0000ff;stroke-opacity:0.6;stroke-width:0.3;" x="173.454545" xlink:href="#m3927eff843" y="177.595714"/>
     <use style="fill:#0000ff;fill-opacity:0.6;stroke:#0000ff;stroke-opacity:0.6;stroke-width:0.3;" x="225.104132" xlink:href="#m3927eff843" y="145.238571"/>
     <use style="fill:#0000ff;fill-opacity:0.6;stroke:#0000ff;stroke-opacity:0.6;stroke-width:0.3;" x="188.21157" xlink:href="#m3927eff843" y="164.652857"/>
     <use style="fill:#0000ff;fill-opacity:0.6;stroke:#0000ff;stroke-opacity:0.6;stroke-width:0.3;" x="225.104132" xlink:href="#m3927eff843" y="203.481429"/>
     <use style="fill:#0000ff;fill-opacity:0.6;stroke:#0000ff;stroke-opacity:0.6;stroke-width:0.3;" x="380.052893" xlink:href="#m3927eff843" y="80.524286"/>
     <use style="fill:#0000ff;fill-opacity:0.6;stroke:#0000ff;stroke-opacity:0.6;stroke-width:0.3;" x="202.968595" xlink:href="#m3927eff843" y="158.181429"/>
     <use style="fill:#0000ff;fill-opacity:0.6;stroke:#0000ff;stroke-opacity:0.6;stroke-width:0.3;" x="321.024793" xlink:href="#m3927eff843" y="171.124286"/>
     <use style="fill:#0000ff;fill-opacity:0.6;stroke:#0000ff;stroke-opacity:0.6;stroke-width:0.3;" x="409.566942" xlink:href="#m3927eff843" y="119.352857"/>
     <use style="fill:#0000ff;fill-opacity:0.6;stroke:#0000ff;stroke-opacity:0.6;stroke-width:0.3;" x="210.347107" xlink:href="#m3927eff843" y="158.181429"/>
     <use style="fill:#0000ff;fill-opacity:0.6;stroke:#0000ff;stroke-opacity:0.6;stroke-width:0.3;" x="202.968595" xlink:href="#m3927eff843" y="255.252857"/>
     <use style="fill:#0000ff;fill-opacity:0.6;stroke:#0000ff;stroke-opacity:0.6;stroke-width:0.3;" x="217.72562" xlink:href="#m3927eff843" y="255.252857"/>
     <use style="fill:#0000ff;fill-opacity:0.6;stroke:#0000ff;stroke-opacity:0.6;stroke-width:0.3;" x="210.347107" xlink:href="#m3927eff843" y="171.124286"/>
     <use style="fill:#0000ff;fill-opacity:0.6;stroke:#0000ff;stroke-opacity:0.6;stroke-width:0.3;" x="269.375207" xlink:href="#m3927eff843" y="190.538571"/>
     <use style="fill:#0000ff;fill-opacity:0.6;stroke:#0000ff;stroke-opacity:0.6;stroke-width:0.3;" x="180.833058" xlink:href="#m3927eff843" y="274.667143"/>
     <use style="fill:#0000ff;fill-opacity:0.6;stroke:#0000ff;stroke-opacity:0.6;stroke-width:0.3;" x="350.538843" xlink:href="#m3927eff843" y="125.824286"/>
     <use style="fill:#0000ff;fill-opacity:0.6;stroke:#0000ff;stroke-opacity:0.6;stroke-width:0.3;" x="261.996694" xlink:href="#m3927eff843" y="177.595714"/>
     <use style="fill:#0000ff;fill-opacity:0.6;stroke:#0000ff;stroke-opacity:0.6;stroke-width:0.3;" x="261.996694" xlink:href="#m3927eff843" y="235.838571"/>
     <use style="fill:#0000ff;fill-opacity:0.6;stroke:#0000ff;stroke-opacity:0.6;stroke-width:0.3;" x="254.618182" xlink:href="#m3927eff843" y="203.481429"/>
     <use style="fill:#0000ff;fill-opacity:0.6;stroke:#0000ff;stroke-opacity:0.6;stroke-width:0.3;" x="409.566942" xlink:href="#m3927eff843" y="164.652857"/>
     <use style="fill:#0000ff;fill-opacity:0.6;stroke:#0000ff;stroke-opacity:0.6;stroke-width:0.3;" x="210.347107" xlink:href="#m3927eff843" y="281.138571"/>
     <use style="fill:#0000ff;fill-opacity:0.6;stroke:#0000ff;stroke-opacity:0.6;stroke-width:0.3;" x="284.132231" xlink:href="#m3927eff843" y="177.595714"/>
     <use style="fill:#0000ff;fill-opacity:0.6;stroke:#0000ff;stroke-opacity:0.6;stroke-width:0.3;" x="439.080992" xlink:href="#m3927eff843" y="119.352857"/>
     <use style="fill:#0000ff;fill-opacity:0.6;stroke:#0000ff;stroke-opacity:0.6;stroke-width:0.3;" x="276.753719" xlink:href="#m3927eff843" y="151.71"/>
     <use style="fill:#0000ff;fill-opacity:0.6;stroke:#0000ff;stroke-opacity:0.6;stroke-width:0.3;" x="225.104132" xlink:href="#m3927eff843" y="209.952857"/>
     <use style="fill:#0000ff;fill-opacity:0.6;stroke:#0000ff;stroke-opacity:0.6;stroke-width:0.3;" x="210.347107" xlink:href="#m3927eff843" y="151.71"/>
     <use style="fill:#0000ff;fill-opacity:0.6;stroke:#0000ff;stroke-opacity:0.6;stroke-width:0.3;" x="225.104132" xlink:href="#m3927eff843" y="235.838571"/>
     <use style="fill:#0000ff;fill-opacity:0.6;stroke:#0000ff;stroke-opacity:0.6;stroke-width:0.3;" x="335.781818" xlink:href="#m3927eff843" y="164.652857"/>
     <use style="fill:#0000ff;fill-opacity:0.6;stroke:#0000ff;stroke-opacity:0.6;stroke-width:0.3;" x="225.104132" xlink:href="#m3927eff843" y="197.01"/>
     <use style="fill:#0000ff;fill-opacity:0.6;stroke:#0000ff;stroke-opacity:0.6;stroke-width:0.3;" x="202.968595" xlink:href="#m3927eff843" y="197.01"/>
     <use style="fill:#0000ff;fill-opacity:0.6;stroke:#0000ff;stroke-opacity:0.6;stroke-width:0.3;" x="225.104132" xlink:href="#m3927eff843" y="164.652857"/>
     <use style="fill:#0000ff;fill-opacity:0.6;stroke:#0000ff;stroke-opacity:0.6;stroke-width:0.3;" x="195.590083" xlink:href="#m3927eff843" y="222.895714"/>
     <use style="fill:#0000ff;fill-opacity:0.6;stroke:#0000ff;stroke-opacity:0.6;stroke-width:0.3;" x="357.917355" xlink:href="#m3927eff843" y="93.467143"/>
     <use style="fill:#0000ff;fill-opacity:0.6;stroke:#0000ff;stroke-opacity:0.6;stroke-width:0.3;" x="195.590083" xlink:href="#m3927eff843" y="184.067143"/>
     <use style="fill:#0000ff;fill-opacity:0.6;stroke:#0000ff;stroke-opacity:0.6;stroke-width:0.3;" x="269.375207" xlink:href="#m3927eff843" y="190.538571"/>
     <use style="fill:#0000ff;fill-opacity:0.6;stroke:#0000ff;stroke-opacity:0.6;stroke-width:0.3;" x="232.482645" xlink:href="#m3927eff843" y="274.667143"/>
     <use style="fill:#0000ff;fill-opacity:0.6;stroke:#0000ff;stroke-opacity:0.6;stroke-width:0.3;" x="173.454545" xlink:href="#m3927eff843" y="222.895714"/>
     <use style="fill:#0000ff;fill-opacity:0.6;stroke:#0000ff;stroke-opacity:0.6;stroke-width:0.3;" x="225.104132" xlink:href="#m3927eff843" y="235.838571"/>
     <use style="fill:#0000ff;fill-opacity:0.6;stroke:#0000ff;stroke-opacity:0.6;stroke-width:0.3;" x="173.454545" xlink:href="#m3927eff843" y="313.495714"/>
     <use style="fill:#0000ff;fill-opacity:0.6;stroke:#0000ff;stroke-opacity:0.6;stroke-width:0.3;" x="173.454545" xlink:href="#m3927eff843" y="164.652857"/>
     <use style="fill:#0000ff;fill-opacity:0.6;stroke:#0000ff;stroke-opacity:0.6;stroke-width:0.3;" x="424.323967" xlink:href="#m3927eff843" y="106.41"/>
     <use style="fill:#0000ff;fill-opacity:0.6;stroke:#0000ff;stroke-opacity:0.6;stroke-width:0.3;" x="195.590083" xlink:href="#m3927eff843" y="209.952857"/>
     <use style="fill:#0000ff;fill-opacity:0.6;stroke:#0000ff;stroke-opacity:0.6;stroke-width:0.3;" x="247.239669" xlink:href="#m3927eff843" y="197.01"/>
     <use style="fill:#0000ff;fill-opacity:0.6;stroke:#0000ff;stroke-opacity:0.6;stroke-width:0.3;" x="328.403306" xlink:href="#m3927eff843" y="119.352857"/>
     <use style="fill:#0000ff;fill-opacity:0.6;stroke:#0000ff;stroke-opacity:0.6;stroke-width:0.3;" x="225.104132" xlink:href="#m3927eff843" y="132.295714"/>
     <use style="fill:#0000ff;fill-opacity:0.6;stroke:#0000ff;stroke-opacity:0.6;stroke-width:0.3;" x="195.590083" xlink:href="#m3927eff843" y="255.252857"/>
     <use style="fill:#0000ff;fill-opacity:0.6;stroke:#0000ff;stroke-opacity:0.6;stroke-width:0.3;" x="173.454545" xlink:href="#m3927eff843" y="177.595714"/>
     <use style="fill:#0000ff;fill-opacity:0.6;stroke:#0000ff;stroke-opacity:0.6;stroke-width:0.3;" x="195.590083" xlink:href="#m3927eff843" y="235.838571"/>
     <use style="fill:#0000ff;fill-opacity:0.6;stroke:#0000ff;stroke-opacity:0.6;stroke-width:0.3;" x="306.267769" xlink:href="#m3927eff843" y="203.481429"/>
     <use style="fill:#0000ff;fill-opacity:0.6;stroke:#0000ff;stroke-opacity:0.6;stroke-width:0.3;" x="188.21157" xlink:href="#m3927eff843" y="203.481429"/>
     <use style="fill:#0000ff;fill-opacity:0.6;stroke:#0000ff;stroke-opacity:0.6;stroke-width:0.3;" x="247.239669" xlink:href="#m3927eff843" y="209.952857"/>
     <use style="fill:#0000ff;fill-opacity:0.6;stroke:#0000ff;stroke-opacity:0.6;stroke-width:0.3;" x="335.781818" xlink:href="#m3927eff843" y="171.124286"/>
     <use style="fill:#0000ff;fill-opacity:0.6;stroke:#0000ff;stroke-opacity:0.6;stroke-width:0.3;" x="306.267769" xlink:href="#m3927eff843" y="171.124286"/>
     <use style="fill:#0000ff;fill-opacity:0.6;stroke:#0000ff;stroke-opacity:0.6;stroke-width:0.3;" x="151.319008" xlink:href="#m3927eff843" y="184.067143"/>
     <use style="fill:#0000ff;fill-opacity:0.6;stroke:#0000ff;stroke-opacity:0.6;stroke-width:0.3;" x="498.109091" xlink:href="#m3927eff843" y="119.352857"/>
     <use style="fill:#0000ff;fill-opacity:0.6;stroke:#0000ff;stroke-opacity:0.6;stroke-width:0.3;" x="357.917355" xlink:href="#m3927eff843" y="158.181429"/>
     <use style="fill:#0000ff;fill-opacity:0.6;stroke:#0000ff;stroke-opacity:0.6;stroke-width:0.3;" x="372.67438" xlink:href="#m3927eff843" y="203.481429"/>
     <use style="fill:#0000ff;fill-opacity:0.6;stroke:#0000ff;stroke-opacity:0.6;stroke-width:0.3;" x="188.21157" xlink:href="#m3927eff843" y="203.481429"/>
     <use style="fill:#0000ff;fill-opacity:0.6;stroke:#0000ff;stroke-opacity:0.6;stroke-width:0.3;" x="269.375207" xlink:href="#m3927eff843" y="99.938571"/>
     <use style="fill:#0000ff;fill-opacity:0.6;stroke:#0000ff;stroke-opacity:0.6;stroke-width:0.3;" x="158.697521" xlink:href="#m3927eff843" y="145.238571"/>
     <use style="fill:#0000ff;fill-opacity:0.6;stroke:#0000ff;stroke-opacity:0.6;stroke-width:0.3;" x="180.833058" xlink:href="#m3927eff843" y="158.181429"/>
     <use style="fill:#0000ff;fill-opacity:0.6;stroke:#0000ff;stroke-opacity:0.6;stroke-width:0.3;" x="239.861157" xlink:href="#m3927eff843" y="119.352857"/>
     <use style="fill:#0000ff;fill-opacity:0.6;stroke:#0000ff;stroke-opacity:0.6;stroke-width:0.3;" x="291.510744" xlink:href="#m3927eff843" y="229.367143"/>
     <use style="fill:#0000ff;fill-opacity:0.6;stroke:#0000ff;stroke-opacity:0.6;stroke-width:0.3;" x="284.132231" xlink:href="#m3927eff843" y="93.467143"/>
     <use style="fill:#0000ff;fill-opacity:0.6;stroke:#0000ff;stroke-opacity:0.6;stroke-width:0.3;" x="195.590083" xlink:href="#m3927eff843" y="184.067143"/>
     <use style="fill:#0000ff;fill-opacity:0.6;stroke:#0000ff;stroke-opacity:0.6;stroke-width:0.3;" x="298.889256" xlink:href="#m3927eff843" y="171.124286"/>
     <use style="fill:#0000ff;fill-opacity:0.6;stroke:#0000ff;stroke-opacity:0.6;stroke-width:0.3;" x="269.375207" xlink:href="#m3927eff843" y="197.01"/>
     <use style="fill:#0000ff;fill-opacity:0.6;stroke:#0000ff;stroke-opacity:0.6;stroke-width:0.3;" x="446.459504" xlink:href="#m3927eff843" y="74.052857"/>
     <use style="fill:#0000ff;fill-opacity:0.6;stroke:#0000ff;stroke-opacity:0.6;stroke-width:0.3;" x="180.833058" xlink:href="#m3927eff843" y="326.438571"/>
     <use style="fill:#0000ff;fill-opacity:0.6;stroke:#0000ff;stroke-opacity:0.6;stroke-width:0.3;" x="202.968595" xlink:href="#m3927eff843" y="177.595714"/>
     <use style="fill:#0000ff;fill-opacity:0.6;stroke:#0000ff;stroke-opacity:0.6;stroke-width:0.3;" x="92.290909" xlink:href="#m3927eff843" y="67.581429"/>
     <use style="fill:#0000ff;fill-opacity:0.6;stroke:#0000ff;stroke-opacity:0.6;stroke-width:0.3;" x="313.646281" xlink:href="#m3927eff843" y="197.01"/>
     <use style="fill:#0000ff;fill-opacity:0.6;stroke:#0000ff;stroke-opacity:0.6;stroke-width:0.3;" x="298.889256" xlink:href="#m3927eff843" y="119.352857"/>
    </g>
   </g>
   <g id="PathCollection_2">
    <defs>
     <path d="M 0 3.5 
C 0.928211 3.5 1.81853 3.131218 2.474874 2.474874 
C 3.131218 1.81853 3.5 0.928211 3.5 0 
C 3.5 -0.928211 3.131218 -1.81853 2.474874 -2.474874 
C 1.81853 -3.131218 0.928211 -3.5 0 -3.5 
C -0.928211 -3.5 -1.81853 -3.131218 -2.474874 -2.474874 
C -3.131218 -1.81853 -3.5 -0.928211 -3.5 0 
C -3.5 0.928211 -3.131218 1.81853 -2.474874 2.474874 
C -1.81853 3.131218 -0.928211 3.5 0 3.5 
z
" id="m59705e72fd" style="stroke:#000000;stroke-opacity:0.6;stroke-width:0.3;"/>
    </defs>
    <g clip-path="url(#pb1311d2a1e)">
     <use style="fill-opacity:0.6;stroke:#000000;stroke-opacity:0.6;stroke-width:0.3;" x="247.239669" xlink:href="#m59705e72fd" y="177.946933"/>
     <use style="fill-opacity:0.6;stroke:#000000;stroke-opacity:0.6;stroke-width:0.3;" x="365.295868" xlink:href="#m59705e72fd" y="135.389609"/>
     <use style="fill-opacity:0.6;stroke:#000000;stroke-opacity:0.6;stroke-width:0.3;" x="439.080992" xlink:href="#m59705e72fd" y="154.133072"/>
     <use style="fill-opacity:0.6;stroke:#000000;stroke-opacity:0.6;stroke-width:0.3;" x="239.861157" xlink:href="#m59705e72fd" y="167.051696"/>
     <use style="fill-opacity:0.6;stroke:#000000;stroke-opacity:0.6;stroke-width:0.3;" x="202.968595" xlink:href="#m59705e72fd" y="160.275136"/>
     <use style="fill-opacity:0.6;stroke:#000000;stroke-opacity:0.6;stroke-width:0.3;" x="321.024793" xlink:href="#m59705e72fd" y="165.424242"/>
     <use style="fill-opacity:0.6;stroke:#000000;stroke-opacity:0.6;stroke-width:0.3;" x="380.052893" xlink:href="#m59705e72fd" y="121.926577"/>
     <use style="fill-opacity:0.6;stroke:#000000;stroke-opacity:0.6;stroke-width:0.3;" x="291.510744" xlink:href="#m59705e72fd" y="193.698521"/>
     <use style="fill-opacity:0.6;stroke:#000000;stroke-opacity:0.6;stroke-width:0.3;" x="173.454545" xlink:href="#m59705e72fd" y="201.772432"/>
     <use style="fill-opacity:0.6;stroke:#000000;stroke-opacity:0.6;stroke-width:0.3;" x="365.295868" xlink:href="#m59705e72fd" y="93.731786"/>
     <use style="fill-opacity:0.6;stroke:#000000;stroke-opacity:0.6;stroke-width:0.3;" x="166.076033" xlink:href="#m59705e72fd" y="198.981988"/>
     <use style="fill-opacity:0.6;stroke:#000000;stroke-opacity:0.6;stroke-width:0.3;" x="151.319008" xlink:href="#m59705e72fd" y="204.067459"/>
     <use style="fill-opacity:0.6;stroke:#000000;stroke-opacity:0.6;stroke-width:0.3;" x="151.319008" xlink:href="#m59705e72fd" y="218.704736"/>
     <use style="fill-opacity:0.6;stroke:#000000;stroke-opacity:0.6;stroke-width:0.3;" x="269.375207" xlink:href="#m59705e72fd" y="181.792294"/>
     <use style="fill-opacity:0.6;stroke:#000000;stroke-opacity:0.6;stroke-width:0.3;" x="261.996694" xlink:href="#m59705e72fd" y="183.579776"/>
     <use style="fill-opacity:0.6;stroke:#000000;stroke-opacity:0.6;stroke-width:0.3;" x="151.319008" xlink:href="#m59705e72fd" y="207.860551"/>
     <use style="fill-opacity:0.6;stroke:#000000;stroke-opacity:0.6;stroke-width:0.3;" x="335.781818" xlink:href="#m59705e72fd" y="153.475851"/>
     <use style="fill-opacity:0.6;stroke:#000000;stroke-opacity:0.6;stroke-width:0.3;" x="261.996694" xlink:href="#m59705e72fd" y="173.798174"/>
     <use style="fill-opacity:0.6;stroke:#000000;stroke-opacity:0.6;stroke-width:0.3;" x="343.160331" xlink:href="#m59705e72fd" y="164.057495"/>
     <use style="fill-opacity:0.6;stroke:#000000;stroke-opacity:0.6;stroke-width:0.3;" x="387.431405" xlink:href="#m59705e72fd" y="165.550118"/>
     <use style="fill-opacity:0.6;stroke:#000000;stroke-opacity:0.6;stroke-width:0.3;" x="202.968595" xlink:href="#m59705e72fd" y="225.134834"/>
     <use style="fill-opacity:0.6;stroke:#000000;stroke-opacity:0.6;stroke-width:0.3;" x="254.618182" xlink:href="#m59705e72fd" y="176.184246"/>
     <use style="fill-opacity:0.6;stroke:#000000;stroke-opacity:0.6;stroke-width:0.3;" x="247.239669" xlink:href="#m59705e72fd" y="122.147546"/>
     <use style="fill-opacity:0.6;stroke:#000000;stroke-opacity:0.6;stroke-width:0.3;" x="217.72562" xlink:href="#m59705e72fd" y="174.295256"/>
     <use style="fill-opacity:0.6;stroke:#000000;stroke-opacity:0.6;stroke-width:0.3;" x="365.295868" xlink:href="#m59705e72fd" y="157.707231"/>
     <use style="fill-opacity:0.6;stroke:#000000;stroke-opacity:0.6;stroke-width:0.3;" x="225.104132" xlink:href="#m59705e72fd" y="143.99816"/>
     <use style="fill-opacity:0.6;stroke:#000000;stroke-opacity:0.6;stroke-width:0.3;" x="202.968595" xlink:href="#m59705e72fd" y="191.854802"/>
     <use style="fill-opacity:0.6;stroke:#000000;stroke-opacity:0.6;stroke-width:0.3;" x="402.18843" xlink:href="#m59705e72fd" y="141.25698"/>
     <use style="fill-opacity:0.6;stroke:#000000;stroke-opacity:0.6;stroke-width:0.3;" x="232.482645" xlink:href="#m59705e72fd" y="170.084272"/>
     <use style="fill-opacity:0.6;stroke:#000000;stroke-opacity:0.6;stroke-width:0.3;" x="195.590083" xlink:href="#m59705e72fd" y="165.821681"/>
     <use style="fill-opacity:0.6;stroke:#000000;stroke-opacity:0.6;stroke-width:0.3;" x="461.216529" xlink:href="#m59705e72fd" y="89.639671"/>
     <use style="fill-opacity:0.6;stroke:#000000;stroke-opacity:0.6;stroke-width:0.3;" x="166.076033" xlink:href="#m59705e72fd" y="191.233533"/>
     <use style="fill-opacity:0.6;stroke:#000000;stroke-opacity:0.6;stroke-width:0.3;" x="180.833058" xlink:href="#m59705e72fd" y="142.577307"/>
     <use style="fill-opacity:0.6;stroke:#000000;stroke-opacity:0.6;stroke-width:0.3;" x="143.940496" xlink:href="#m59705e72fd" y="193.069397"/>
     <use style="fill-opacity:0.6;stroke:#000000;stroke-opacity:0.6;stroke-width:0.3;" x="247.239669" xlink:href="#m59705e72fd" y="164.20894"/>
     <use style="fill-opacity:0.6;stroke:#000000;stroke-opacity:0.6;stroke-width:0.3;" x="210.347107" xlink:href="#m59705e72fd" y="176.547047"/>
     <use style="fill-opacity:0.6;stroke:#000000;stroke-opacity:0.6;stroke-width:0.3;" x="321.024793" xlink:href="#m59705e72fd" y="166.098686"/>
     <use style="fill-opacity:0.6;stroke:#000000;stroke-opacity:0.6;stroke-width:0.3;" x="173.454545" xlink:href="#m59705e72fd" y="193.551771"/>
     <use style="fill-opacity:0.6;stroke:#000000;stroke-opacity:0.6;stroke-width:0.3;" x="188.21157" xlink:href="#m59705e72fd" y="180.408036"/>
     <use style="fill-opacity:0.6;stroke:#000000;stroke-opacity:0.6;stroke-width:0.3;" x="166.076033" xlink:href="#m59705e72fd" y="210.405342"/>
     <use style="fill-opacity:0.6;stroke:#000000;stroke-opacity:0.6;stroke-width:0.3;" x="225.104132" xlink:href="#m59705e72fd" y="181.876496"/>
     <use style="fill-opacity:0.6;stroke:#000000;stroke-opacity:0.6;stroke-width:0.3;" x="284.132231" xlink:href="#m59705e72fd" y="144.213291"/>
     <use style="fill-opacity:0.6;stroke:#000000;stroke-opacity:0.6;stroke-width:0.3;" x="254.618182" xlink:href="#m59705e72fd" y="149.467587"/>
     <use style="fill-opacity:0.6;stroke:#000000;stroke-opacity:0.6;stroke-width:0.3;" x="254.618182" xlink:href="#m59705e72fd" y="188.054158"/>
     <use style="fill-opacity:0.6;stroke:#000000;stroke-opacity:0.6;stroke-width:0.3;" x="188.21157" xlink:href="#m59705e72fd" y="155.040673"/>
     <use style="fill-opacity:0.6;stroke:#000000;stroke-opacity:0.6;stroke-width:0.3;" x="217.72562" xlink:href="#m59705e72fd" y="193.256236"/>
     <use style="fill-opacity:0.6;stroke:#000000;stroke-opacity:0.6;stroke-width:0.3;" x="335.781818" xlink:href="#m59705e72fd" y="195.73468"/>
     <use style="fill-opacity:0.6;stroke:#000000;stroke-opacity:0.6;stroke-width:0.3;" x="424.323967" xlink:href="#m59705e72fd" y="158.408732"/>
     <use style="fill-opacity:0.6;stroke:#000000;stroke-opacity:0.6;stroke-width:0.3;" x="254.618182" xlink:href="#m59705e72fd" y="180.218722"/>
     <use style="fill-opacity:0.6;stroke:#000000;stroke-opacity:0.6;stroke-width:0.3;" x="217.72562" xlink:href="#m59705e72fd" y="201.602299"/>
     <use style="fill-opacity:0.6;stroke:#000000;stroke-opacity:0.6;stroke-width:0.3;" x="306.267769" xlink:href="#m59705e72fd" y="143.985082"/>
     <use style="fill-opacity:0.6;stroke:#000000;stroke-opacity:0.6;stroke-width:0.3;" x="210.347107" xlink:href="#m59705e72fd" y="196.723361"/>
     <use style="fill-opacity:0.6;stroke:#000000;stroke-opacity:0.6;stroke-width:0.3;" x="217.72562" xlink:href="#m59705e72fd" y="153.241886"/>
     <use style="fill-opacity:0.6;stroke:#000000;stroke-opacity:0.6;stroke-width:0.3;" x="210.347107" xlink:href="#m59705e72fd" y="204.800042"/>
     <use style="fill-opacity:0.6;stroke:#000000;stroke-opacity:0.6;stroke-width:0.3;" x="247.239669" xlink:href="#m59705e72fd" y="149.187581"/>
     <use style="fill-opacity:0.6;stroke:#000000;stroke-opacity:0.6;stroke-width:0.3;" x="343.160331" xlink:href="#m59705e72fd" y="108.607189"/>
     <use style="fill-opacity:0.6;stroke:#000000;stroke-opacity:0.6;stroke-width:0.3;" x="232.482645" xlink:href="#m59705e72fd" y="182.118059"/>
     <use style="fill-opacity:0.6;stroke:#000000;stroke-opacity:0.6;stroke-width:0.3;" x="225.104132" xlink:href="#m59705e72fd" y="136.98231"/>
     <use style="fill-opacity:0.6;stroke:#000000;stroke-opacity:0.6;stroke-width:0.3;" x="180.833058" xlink:href="#m59705e72fd" y="158.938261"/>
     <use style="fill-opacity:0.6;stroke:#000000;stroke-opacity:0.6;stroke-width:0.3;" x="402.18843" xlink:href="#m59705e72fd" y="126.466782"/>
     <use style="fill-opacity:0.6;stroke:#000000;stroke-opacity:0.6;stroke-width:0.3;" x="254.618182" xlink:href="#m59705e72fd" y="175.674263"/>
     <use style="fill-opacity:0.6;stroke:#000000;stroke-opacity:0.6;stroke-width:0.3;" x="372.67438" xlink:href="#m59705e72fd" y="119.021387"/>
     <use style="fill-opacity:0.6;stroke:#000000;stroke-opacity:0.6;stroke-width:0.3;" x="261.996694" xlink:href="#m59705e72fd" y="169.660451"/>
     <use style="fill-opacity:0.6;stroke:#000000;stroke-opacity:0.6;stroke-width:0.3;" x="180.833058" xlink:href="#m59705e72fd" y="185.223666"/>
     <use style="fill-opacity:0.6;stroke:#000000;stroke-opacity:0.6;stroke-width:0.3;" x="173.454545" xlink:href="#m59705e72fd" y="165.697642"/>
     <use style="fill-opacity:0.6;stroke:#000000;stroke-opacity:0.6;stroke-width:0.3;" x="225.104132" xlink:href="#m59705e72fd" y="182.929868"/>
     <use style="fill-opacity:0.6;stroke:#000000;stroke-opacity:0.6;stroke-width:0.3;" x="188.21157" xlink:href="#m59705e72fd" y="173.154474"/>
     <use style="fill-opacity:0.6;stroke:#000000;stroke-opacity:0.6;stroke-width:0.3;" x="225.104132" xlink:href="#m59705e72fd" y="195.607286"/>
     <use style="fill-opacity:0.6;stroke:#000000;stroke-opacity:0.6;stroke-width:0.3;" x="380.052893" xlink:href="#m59705e72fd" y="131.744845"/>
     <use style="fill-opacity:0.6;stroke:#000000;stroke-opacity:0.6;stroke-width:0.3;" x="202.968595" xlink:href="#m59705e72fd" y="204.173638"/>
     <use style="fill-opacity:0.6;stroke:#000000;stroke-opacity:0.6;stroke-width:0.3;" x="321.024793" xlink:href="#m59705e72fd" y="202.071975"/>
     <use style="fill-opacity:0.6;stroke:#000000;stroke-opacity:0.6;stroke-width:0.3;" x="409.566942" xlink:href="#m59705e72fd" y="106.630148"/>
     <use style="fill-opacity:0.6;stroke:#000000;stroke-opacity:0.6;stroke-width:0.3;" x="210.347107" xlink:href="#m59705e72fd" y="174.901629"/>
     <use style="fill-opacity:0.6;stroke:#000000;stroke-opacity:0.6;stroke-width:0.3;" x="202.968595" xlink:href="#m59705e72fd" y="199.463929"/>
     <use style="fill-opacity:0.6;stroke:#000000;stroke-opacity:0.6;stroke-width:0.3;" x="217.72562" xlink:href="#m59705e72fd" y="152.663058"/>
     <use style="fill-opacity:0.6;stroke:#000000;stroke-opacity:0.6;stroke-width:0.3;" x="210.347107" xlink:href="#m59705e72fd" y="163.92186"/>
     <use style="fill-opacity:0.6;stroke:#000000;stroke-opacity:0.6;stroke-width:0.3;" x="269.375207" xlink:href="#m59705e72fd" y="181.409131"/>
     <use style="fill-opacity:0.6;stroke:#000000;stroke-opacity:0.6;stroke-width:0.3;" x="180.833058" xlink:href="#m59705e72fd" y="159.856798"/>
     <use style="fill-opacity:0.6;stroke:#000000;stroke-opacity:0.6;stroke-width:0.3;" x="350.538843" xlink:href="#m59705e72fd" y="129.377623"/>
     <use style="fill-opacity:0.6;stroke:#000000;stroke-opacity:0.6;stroke-width:0.3;" x="261.996694" xlink:href="#m59705e72fd" y="188.746599"/>
     <use style="fill-opacity:0.6;stroke:#000000;stroke-opacity:0.6;stroke-width:0.3;" x="261.996694" xlink:href="#m59705e72fd" y="151.200429"/>
     <use style="fill-opacity:0.6;stroke:#000000;stroke-opacity:0.6;stroke-width:0.3;" x="254.618182" xlink:href="#m59705e72fd" y="181.255443"/>
     <use style="fill-opacity:0.6;stroke:#000000;stroke-opacity:0.6;stroke-width:0.3;" x="409.566942" xlink:href="#m59705e72fd" y="107.855259"/>
     <use style="fill-opacity:0.6;stroke:#000000;stroke-opacity:0.6;stroke-width:0.3;" x="210.347107" xlink:href="#m59705e72fd" y="204.830418"/>
     <use style="fill-opacity:0.6;stroke:#000000;stroke-opacity:0.6;stroke-width:0.3;" x="284.132231" xlink:href="#m59705e72fd" y="152.244275"/>
     <use style="fill-opacity:0.6;stroke:#000000;stroke-opacity:0.6;stroke-width:0.3;" x="439.080992" xlink:href="#m59705e72fd" y="132.201189"/>
     <use style="fill-opacity:0.6;stroke:#000000;stroke-opacity:0.6;stroke-width:0.3;" x="276.753719" xlink:href="#m59705e72fd" y="151.145273"/>
     <use style="fill-opacity:0.6;stroke:#000000;stroke-opacity:0.6;stroke-width:0.3;" x="225.104132" xlink:href="#m59705e72fd" y="213.891559"/>
     <use style="fill-opacity:0.6;stroke:#000000;stroke-opacity:0.6;stroke-width:0.3;" x="210.347107" xlink:href="#m59705e72fd" y="186.057017"/>
     <use style="fill-opacity:0.6;stroke:#000000;stroke-opacity:0.6;stroke-width:0.3;" x="225.104132" xlink:href="#m59705e72fd" y="197.039185"/>
     <use style="fill-opacity:0.6;stroke:#000000;stroke-opacity:0.6;stroke-width:0.3;" x="335.781818" xlink:href="#m59705e72fd" y="127.742738"/>
     <use style="fill-opacity:0.6;stroke:#000000;stroke-opacity:0.6;stroke-width:0.3;" x="225.104132" xlink:href="#m59705e72fd" y="146.567381"/>
     <use style="fill-opacity:0.6;stroke:#000000;stroke-opacity:0.6;stroke-width:0.3;" x="202.968595" xlink:href="#m59705e72fd" y="174.875718"/>
     <use style="fill-opacity:0.6;stroke:#000000;stroke-opacity:0.6;stroke-width:0.3;" x="225.104132" xlink:href="#m59705e72fd" y="168.268752"/>
     <use style="fill-opacity:0.6;stroke:#000000;stroke-opacity:0.6;stroke-width:0.3;" x="195.590083" xlink:href="#m59705e72fd" y="186.83002"/>
     <use style="fill-opacity:0.6;stroke:#000000;stroke-opacity:0.6;stroke-width:0.3;" x="357.917355" xlink:href="#m59705e72fd" y="149.866476"/>
     <use style="fill-opacity:0.6;stroke:#000000;stroke-opacity:0.6;stroke-width:0.3;" x="195.590083" xlink:href="#m59705e72fd" y="166.604753"/>
     <use style="fill-opacity:0.6;stroke:#000000;stroke-opacity:0.6;stroke-width:0.3;" x="269.375207" xlink:href="#m59705e72fd" y="164.739976"/>
     <use style="fill-opacity:0.6;stroke:#000000;stroke-opacity:0.6;stroke-width:0.3;" x="232.482645" xlink:href="#m59705e72fd" y="186.367134"/>
     <use style="fill-opacity:0.6;stroke:#000000;stroke-opacity:0.6;stroke-width:0.3;" x="173.454545" xlink:href="#m59705e72fd" y="202.719126"/>
     <use style="fill-opacity:0.6;stroke:#000000;stroke-opacity:0.6;stroke-width:0.3;" x="225.104132" xlink:href="#m59705e72fd" y="209.915968"/>
     <use style="fill-opacity:0.6;stroke:#000000;stroke-opacity:0.6;stroke-width:0.3;" x="173.454545" xlink:href="#m59705e72fd" y="208.626469"/>
     <use style="fill-opacity:0.6;stroke:#000000;stroke-opacity:0.6;stroke-width:0.3;" x="173.454545" xlink:href="#m59705e72fd" y="128.565392"/>
     <use style="fill-opacity:0.6;stroke:#000000;stroke-opacity:0.6;stroke-width:0.3;" x="424.323967" xlink:href="#m59705e72fd" y="103.186715"/>
     <use style="fill-opacity:0.6;stroke:#000000;stroke-opacity:0.6;stroke-width:0.3;" x="195.590083" xlink:href="#m59705e72fd" y="170.038086"/>
     <use style="fill-opacity:0.6;stroke:#000000;stroke-opacity:0.6;stroke-width:0.3;" x="247.239669" xlink:href="#m59705e72fd" y="174.757698"/>
     <use style="fill-opacity:0.6;stroke:#000000;stroke-opacity:0.6;stroke-width:0.3;" x="328.403306" xlink:href="#m59705e72fd" y="157.464835"/>
     <use style="fill-opacity:0.6;stroke:#000000;stroke-opacity:0.6;stroke-width:0.3;" x="225.104132" xlink:href="#m59705e72fd" y="173.676114"/>
     <use style="fill-opacity:0.6;stroke:#000000;stroke-opacity:0.6;stroke-width:0.3;" x="195.590083" xlink:href="#m59705e72fd" y="174.302202"/>
     <use style="fill-opacity:0.6;stroke:#000000;stroke-opacity:0.6;stroke-width:0.3;" x="173.454545" xlink:href="#m59705e72fd" y="196.02456"/>
     <use style="fill-opacity:0.6;stroke:#000000;stroke-opacity:0.6;stroke-width:0.3;" x="195.590083" xlink:href="#m59705e72fd" y="203.868377"/>
     <use style="fill-opacity:0.6;stroke:#000000;stroke-opacity:0.6;stroke-width:0.3;" x="306.267769" xlink:href="#m59705e72fd" y="145.398695"/>
     <use style="fill-opacity:0.6;stroke:#000000;stroke-opacity:0.6;stroke-width:0.3;" x="188.21157" xlink:href="#m59705e72fd" y="159.173968"/>
     <use style="fill-opacity:0.6;stroke:#000000;stroke-opacity:0.6;stroke-width:0.3;" x="247.239669" xlink:href="#m59705e72fd" y="201.219651"/>
     <use style="fill-opacity:0.6;stroke:#000000;stroke-opacity:0.6;stroke-width:0.3;" x="335.781818" xlink:href="#m59705e72fd" y="152.897918"/>
     <use style="fill-opacity:0.6;stroke:#000000;stroke-opacity:0.6;stroke-width:0.3;" x="306.267769" xlink:href="#m59705e72fd" y="137.616367"/>
     <use style="fill-opacity:0.6;stroke:#000000;stroke-opacity:0.6;stroke-width:0.3;" x="151.319008" xlink:href="#m59705e72fd" y="221.5493"/>
     <use style="fill-opacity:0.6;stroke:#000000;stroke-opacity:0.6;stroke-width:0.3;" x="498.109091" xlink:href="#m59705e72fd" y="130.589616"/>
     <use style="fill-opacity:0.6;stroke:#000000;stroke-opacity:0.6;stroke-width:0.3;" x="357.917355" xlink:href="#m59705e72fd" y="173.997721"/>
     <use style="fill-opacity:0.6;stroke:#000000;stroke-opacity:0.6;stroke-width:0.3;" x="372.67438" xlink:href="#m59705e72fd" y="158.716578"/>
     <use style="fill-opacity:0.6;stroke:#000000;stroke-opacity:0.6;stroke-width:0.3;" x="188.21157" xlink:href="#m59705e72fd" y="196.064236"/>
     <use style="fill-opacity:0.6;stroke:#000000;stroke-opacity:0.6;stroke-width:0.3;" x="269.375207" xlink:href="#m59705e72fd" y="167.887953"/>
     <use style="fill-opacity:0.6;stroke:#000000;stroke-opacity:0.6;stroke-width:0.3;" x="158.697521" xlink:href="#m59705e72fd" y="139.99664"/>
     <use style="fill-opacity:0.6;stroke:#000000;stroke-opacity:0.6;stroke-width:0.3;" x="180.833058" xlink:href="#m59705e72fd" y="131.489376"/>
     <use style="fill-opacity:0.6;stroke:#000000;stroke-opacity:0.6;stroke-width:0.3;" x="239.861157" xlink:href="#m59705e72fd" y="132.841044"/>
     <use style="fill-opacity:0.6;stroke:#000000;stroke-opacity:0.6;stroke-width:0.3;" x="291.510744" xlink:href="#m59705e72fd" y="164.81565"/>
     <use style="fill-opacity:0.6;stroke:#000000;stroke-opacity:0.6;stroke-width:0.3;" x="284.132231" xlink:href="#m59705e72fd" y="165.240865"/>
     <use style="fill-opacity:0.6;stroke:#000000;stroke-opacity:0.6;stroke-width:0.3;" x="195.590083" xlink:href="#m59705e72fd" y="194.371239"/>
     <use style="fill-opacity:0.6;stroke:#000000;stroke-opacity:0.6;stroke-width:0.3;" x="298.889256" xlink:href="#m59705e72fd" y="167.260362"/>
     <use style="fill-opacity:0.6;stroke:#000000;stroke-opacity:0.6;stroke-width:0.3;" x="269.375207" xlink:href="#m59705e72fd" y="189.058564"/>
     <use style="fill-opacity:0.6;stroke:#000000;stroke-opacity:0.6;stroke-width:0.3;" x="446.459504" xlink:href="#m59705e72fd" y="127.248102"/>
     <use style="fill-opacity:0.6;stroke:#000000;stroke-opacity:0.6;stroke-width:0.3;" x="180.833058" xlink:href="#m59705e72fd" y="181.539881"/>
     <use style="fill-opacity:0.6;stroke:#000000;stroke-opacity:0.6;stroke-width:0.3;" x="202.968595" xlink:href="#m59705e72fd" y="203.576389"/>
     <use style="fill-opacity:0.6;stroke:#000000;stroke-opacity:0.6;stroke-width:0.3;" x="92.290909" xlink:href="#m59705e72fd" y="89.615481"/>
     <use style="fill-opacity:0.6;stroke:#000000;stroke-opacity:0.6;stroke-width:0.3;" x="313.646281" xlink:href="#m59705e72fd" y="171.920741"/>
     <use style="fill-opacity:0.6;stroke:#000000;stroke-opacity:0.6;stroke-width:0.3;" x="298.889256" xlink:href="#m59705e72fd" y="125.496859"/>
    </g>
   </g>
   <g id="patch_3">
    <path d="M 72 346.5 
L 72 47.52 
" style="fill:none;stroke:#cccccc;stroke-linecap:square;stroke-linejoin:miter;stroke-width:1.25;"/>
   </g>
   <g id="patch_4">
    <path d="M 518.4 346.5 
L 518.4 47.52 
" style="fill:none;stroke:#cccccc;stroke-linecap:square;stroke-linejoin:miter;stroke-width:1.25;"/>
   </g>
   <g id="patch_5">
    <path d="M 72 346.5 
L 518.4 346.5 
" style="fill:none;stroke:#cccccc;stroke-linecap:square;stroke-linejoin:miter;stroke-width:1.25;"/>
   </g>
   <g id="patch_6">
    <path d="M 72 47.52 
L 518.4 47.52 
" style="fill:none;stroke:#cccccc;stroke-linecap:square;stroke-linejoin:miter;stroke-width:1.25;"/>
   </g>
   <g id="text_13">
    <!-- Actual vs Predicted Test Values -->
    <g style="fill:#262626;" transform="translate(211.712812 41.52)scale(0.12 -0.12)">
     <defs>
      <path d="M -0.140625 0 
L 27.34375 71.578125 
L 37.546875 71.578125 
L 66.84375 0 
L 56.0625 0 
L 47.703125 21.6875 
L 17.78125 21.6875 
L 9.90625 0 
z
M 20.515625 29.390625 
L 44.78125 29.390625 
L 37.3125 49.21875 
Q 33.890625 58.25 32.234375 64.0625 
Q 30.859375 57.171875 28.375 50.390625 
z
" id="ArialMT-65"/>
      <path d="M 40.4375 6.390625 
Q 35.546875 2.25 31.03125 0.53125 
Q 26.515625 -1.171875 21.34375 -1.171875 
Q 12.796875 -1.171875 8.203125 3 
Q 3.609375 7.171875 3.609375 13.671875 
Q 3.609375 17.484375 5.34375 20.625 
Q 7.078125 23.78125 9.890625 25.6875 
Q 12.703125 27.59375 16.21875 28.5625 
Q 18.796875 29.25 24.03125 29.890625 
Q 34.671875 31.15625 39.703125 32.90625 
Q 39.75 34.71875 39.75 35.203125 
Q 39.75 40.578125 37.25 42.78125 
Q 33.890625 45.75 27.25 45.75 
Q 21.046875 45.75 18.09375 43.578125 
Q 15.140625 41.40625 13.71875 35.890625 
L 5.125 37.0625 
Q 6.296875 42.578125 8.984375 45.96875 
Q 11.671875 49.359375 16.75 51.1875 
Q 21.828125 53.03125 28.515625 53.03125 
Q 35.15625 53.03125 39.296875 51.46875 
Q 43.453125 49.90625 45.40625 47.53125 
Q 47.359375 45.171875 48.140625 41.546875 
Q 48.578125 39.3125 48.578125 33.453125 
L 48.578125 21.734375 
Q 48.578125 9.46875 49.140625 6.21875 
Q 49.703125 2.984375 51.375 0 
L 42.1875 0 
Q 40.828125 2.734375 40.4375 6.390625 
z
M 39.703125 26.03125 
Q 34.90625 24.078125 25.34375 22.703125 
Q 19.921875 21.921875 17.671875 20.9375 
Q 15.4375 19.96875 14.203125 18.09375 
Q 12.984375 16.21875 12.984375 13.921875 
Q 12.984375 10.40625 15.640625 8.0625 
Q 18.3125 5.71875 23.4375 5.71875 
Q 28.515625 5.71875 32.46875 7.9375 
Q 36.421875 10.15625 38.28125 14.015625 
Q 39.703125 17 39.703125 22.796875 
z
" id="ArialMT-97"/>
      <path d="M 6.390625 0 
L 6.390625 71.578125 
L 15.1875 71.578125 
L 15.1875 0 
z
" id="ArialMT-108"/>
      <path d="M 21 0 
L 1.265625 51.859375 
L 10.546875 51.859375 
L 21.6875 20.796875 
Q 23.484375 15.765625 25 10.359375 
Q 26.171875 14.453125 28.265625 20.21875 
L 39.796875 51.859375 
L 48.828125 51.859375 
L 29.203125 0 
z
" id="ArialMT-118"/>
      <path d="M 7.71875 0 
L 7.71875 71.578125 
L 34.71875 71.578125 
Q 41.84375 71.578125 45.609375 70.90625 
Q 50.875 70.015625 54.4375 67.546875 
Q 58.015625 65.09375 60.1875 60.640625 
Q 62.359375 56.203125 62.359375 50.875 
Q 62.359375 41.75 56.546875 35.421875 
Q 50.734375 29.109375 35.546875 29.109375 
L 17.1875 29.109375 
L 17.1875 0 
z
M 17.1875 37.546875 
L 35.6875 37.546875 
Q 44.875 37.546875 48.734375 40.96875 
Q 52.59375 44.390625 52.59375 50.59375 
Q 52.59375 55.078125 50.3125 58.265625 
Q 48.046875 61.46875 44.34375 62.5 
Q 41.9375 63.140625 35.5 63.140625 
L 17.1875 63.140625 
z
" id="ArialMT-80"/>
      <path d="M 40.234375 0 
L 40.234375 6.546875 
Q 35.296875 -1.171875 25.734375 -1.171875 
Q 19.53125 -1.171875 14.328125 2.25 
Q 9.125 5.671875 6.265625 11.796875 
Q 3.421875 17.921875 3.421875 25.875 
Q 3.421875 33.640625 6 39.96875 
Q 8.59375 46.296875 13.765625 49.65625 
Q 18.953125 53.03125 25.34375 53.03125 
Q 30.03125 53.03125 33.6875 51.046875 
Q 37.359375 49.078125 39.65625 45.90625 
L 39.65625 71.578125 
L 48.390625 71.578125 
L 48.390625 0 
z
M 12.453125 25.875 
Q 12.453125 15.921875 16.640625 10.984375 
Q 20.84375 6.0625 26.5625 6.0625 
Q 32.328125 6.0625 36.34375 10.765625 
Q 40.375 15.484375 40.375 25.140625 
Q 40.375 35.796875 36.265625 40.765625 
Q 32.171875 45.75 26.171875 45.75 
Q 20.3125 45.75 16.375 40.96875 
Q 12.453125 36.1875 12.453125 25.875 
z
" id="ArialMT-100"/>
      <path d="M 25.921875 0 
L 25.921875 63.140625 
L 2.34375 63.140625 
L 2.34375 71.578125 
L 59.078125 71.578125 
L 59.078125 63.140625 
L 35.40625 63.140625 
L 35.40625 0 
z
" id="ArialMT-84"/>
      <path d="M 28.171875 0 
L 0.4375 71.578125 
L 10.6875 71.578125 
L 29.296875 19.578125 
Q 31.546875 13.328125 33.0625 7.859375 
Q 34.71875 13.71875 36.921875 19.578125 
L 56.25 71.578125 
L 65.921875 71.578125 
L 37.890625 0 
z
" id="ArialMT-86"/>
     </defs>
     <use xlink:href="#ArialMT-65"/>
     <use x="66.699219" xlink:href="#ArialMT-99"/>
     <use x="116.699219" xlink:href="#ArialMT-116"/>
     <use x="144.482422" xlink:href="#ArialMT-117"/>
     <use x="200.097656" xlink:href="#ArialMT-97"/>
     <use x="255.712891" xlink:href="#ArialMT-108"/>
     <use x="277.929688" xlink:href="#ArialMT-32"/>
     <use x="305.712891" xlink:href="#ArialMT-118"/>
     <use x="355.712891" xlink:href="#ArialMT-115"/>
     <use x="405.712891" xlink:href="#ArialMT-32"/>
     <use x="433.496094" xlink:href="#ArialMT-80"/>
     <use x="500.195312" xlink:href="#ArialMT-114"/>
     <use x="533.496094" xlink:href="#ArialMT-101"/>
     <use x="589.111328" xlink:href="#ArialMT-100"/>
     <use x="644.726562" xlink:href="#ArialMT-105"/>
     <use x="666.943359" xlink:href="#ArialMT-99"/>
     <use x="716.943359" xlink:href="#ArialMT-116"/>
     <use x="744.726562" xlink:href="#ArialMT-101"/>
     <use x="800.341797" xlink:href="#ArialMT-100"/>
     <use x="855.957031" xlink:href="#ArialMT-32"/>
     <use x="881.990234" xlink:href="#ArialMT-84"/>
     <use x="931.949219" xlink:href="#ArialMT-101"/>
     <use x="987.564453" xlink:href="#ArialMT-115"/>
     <use x="1037.564453" xlink:href="#ArialMT-116"/>
     <use x="1065.347656" xlink:href="#ArialMT-32"/>
     <use x="1093.130859" xlink:href="#ArialMT-86"/>
     <use x="1152.455078" xlink:href="#ArialMT-97"/>
     <use x="1208.070312" xlink:href="#ArialMT-108"/>
     <use x="1230.287109" xlink:href="#ArialMT-117"/>
     <use x="1285.902344" xlink:href="#ArialMT-101"/>
     <use x="1341.517578" xlink:href="#ArialMT-115"/>
    </g>
   </g>
   <g id="legend_1">
    <g id="PathCollection_3">
     <g>
      <use style="fill:#0000ff;fill-opacity:0.6;stroke:#0000ff;stroke-opacity:0.6;stroke-width:0.3;" x="449.15625" xlink:href="#m3927eff843" y="318.742188"/>
     </g>
    </g>
    <g id="text_14">
     <!-- Actual -->
     <g style="fill:#262626;" transform="translate(467.15625 321.367188)scale(0.1 -0.1)">
      <use xlink:href="#ArialMT-65"/>
      <use x="66.699219" xlink:href="#ArialMT-99"/>
      <use x="116.699219" xlink:href="#ArialMT-116"/>
      <use x="144.482422" xlink:href="#ArialMT-117"/>
      <use x="200.097656" xlink:href="#ArialMT-97"/>
      <use x="255.712891" xlink:href="#ArialMT-108"/>
     </g>
    </g>
    <g id="PathCollection_4">
     <g>
      <use style="fill-opacity:0.6;stroke:#000000;stroke-opacity:0.6;stroke-width:0.3;" x="449.15625" xlink:href="#m59705e72fd" y="332.8875"/>
     </g>
    </g>
    <g id="text_15">
     <!-- Predicted -->
     <g style="fill:#262626;" transform="translate(467.15625 335.5125)scale(0.1 -0.1)">
      <use xlink:href="#ArialMT-80"/>
      <use x="66.699219" xlink:href="#ArialMT-114"/>
      <use x="100" xlink:href="#ArialMT-101"/>
      <use x="155.615234" xlink:href="#ArialMT-100"/>
      <use x="211.230469" xlink:href="#ArialMT-105"/>
      <use x="233.447266" xlink:href="#ArialMT-99"/>
      <use x="283.447266" xlink:href="#ArialMT-116"/>
      <use x="311.230469" xlink:href="#ArialMT-101"/>
      <use x="366.845703" xlink:href="#ArialMT-100"/>
     </g>
    </g>
   </g>
  </g>
 </g>
 <defs>
  <clipPath id="pb1311d2a1e">
   <rect height="298.98" width="446.4" x="72" y="47.52"/>
  </clipPath>
 </defs>
</svg>
